<mxfile host="app.diagrams.net" modified="2021-08-10T08:29:43.716Z" agent="5.0 (Windows NT 10.0; Win64; x64) AppleWebKit/537.36 (KHTML, like Gecko) Chrome/92.0.4515.131 Safari/537.36 Edg/92.0.902.67" etag="U7w0g_LPgtsWdBkG3iMQ" version="14.9.5" type="github">
  <diagram id="C5RBs43oDa-KdzZeNtuy" name="Page-1">
    <mxGraphModel dx="1422" dy="804" grid="1" gridSize="10" guides="1" tooltips="1" connect="1" arrows="1" fold="1" page="1" pageScale="1" pageWidth="827" pageHeight="1169" math="0" shadow="0">
      <root>
        <mxCell id="WIyWlLk6GJQsqaUBKTNV-0" />
        <mxCell id="WIyWlLk6GJQsqaUBKTNV-1" parent="WIyWlLk6GJQsqaUBKTNV-0" />
        <mxCell id="WIyWlLk6GJQsqaUBKTNV-4" value="" style="rounded=0;html=1;jettySize=auto;orthogonalLoop=1;fontSize=11;endArrow=block;endFill=0;endSize=8;strokeWidth=1;shadow=0;labelBackgroundColor=none;edgeStyle=orthogonalEdgeStyle;" parent="WIyWlLk6GJQsqaUBKTNV-1" source="WIyWlLk6GJQsqaUBKTNV-6" target="WIyWlLk6GJQsqaUBKTNV-10" edge="1">
          <mxGeometry y="20" relative="1" as="geometry">
            <mxPoint as="offset" />
          </mxGeometry>
        </mxCell>
        <mxCell id="WIyWlLk6GJQsqaUBKTNV-6" value="DDS" style="rhombus;whiteSpace=wrap;html=1;shadow=0;fontFamily=Helvetica;fontSize=12;align=center;strokeWidth=1;spacing=6;spacingTop=-4;" parent="WIyWlLk6GJQsqaUBKTNV-1" vertex="1">
          <mxGeometry x="250" y="180" width="100" height="80" as="geometry" />
        </mxCell>
        <mxCell id="WIyWlLk6GJQsqaUBKTNV-8" value="X Window System" style="rounded=0;html=1;jettySize=auto;orthogonalLoop=1;fontSize=11;endArrow=block;endFill=0;endSize=8;strokeWidth=1;shadow=0;labelBackgroundColor=none;edgeStyle=orthogonalEdgeStyle;" parent="WIyWlLk6GJQsqaUBKTNV-1" source="WIyWlLk6GJQsqaUBKTNV-10" target="WIyWlLk6GJQsqaUBKTNV-11" edge="1">
          <mxGeometry x="0.2667" y="-15" relative="1" as="geometry">
            <mxPoint as="offset" />
          </mxGeometry>
        </mxCell>
        <mxCell id="WIyWlLk6GJQsqaUBKTNV-10" value="Server with&lt;br&gt;GCS Software" style="rhombus;whiteSpace=wrap;html=1;shadow=0;fontFamily=Helvetica;fontSize=12;align=center;strokeWidth=1;spacing=6;spacingTop=-4;" parent="WIyWlLk6GJQsqaUBKTNV-1" vertex="1">
          <mxGeometry x="245" y="310" width="110" height="90" as="geometry" />
        </mxCell>
        <mxCell id="WIyWlLk6GJQsqaUBKTNV-11" value="Operator System" style="rounded=1;whiteSpace=wrap;html=1;fontSize=12;glass=0;strokeWidth=1;shadow=0;arcSize=0;" parent="WIyWlLk6GJQsqaUBKTNV-1" vertex="1">
          <mxGeometry x="140" y="440" width="120" height="50" as="geometry" />
        </mxCell>
        <mxCell id="ntVtzUU6A0rQ3JmOIG8a-2" value="STANAG 4586" style="edgeStyle=orthogonalEdgeStyle;rounded=0;orthogonalLoop=1;jettySize=auto;html=1;" edge="1" parent="WIyWlLk6GJQsqaUBKTNV-1" source="ntVtzUU6A0rQ3JmOIG8a-0" target="WIyWlLk6GJQsqaUBKTNV-6">
          <mxGeometry relative="1" as="geometry" />
        </mxCell>
        <mxCell id="ntVtzUU6A0rQ3JmOIG8a-0" value="" style="shape=image;verticalLabelPosition=bottom;labelBackgroundColor=#ffffff;verticalAlign=top;aspect=fixed;imageAspect=0;image=data:image/png,iVBORw0KGgoAAAANSUhEUgAAAggAAAENCAYAAABq2Z1NAAAAAXNSR0IArs4c6QAAIABJREFUeF7svQmQHVd2JXZy/1stKOz7ToAAiI0LCDbZC9mtXiRNtKXReKSwxpalsa0Yj2M8IYUUinF4PGOPxjERnrF2dbtb6qa6m/u+ggQJgiTAnWySIAEQIEEQO0CgqlD7/5npOPe+rCqwCkBmfwAsgO+zqwtVlZX1//vv3Xfeueee66RpmiLnY2hoCP39/TmvBtra2nJfG8cxenp6cl9f5N68aVdXV+5712o1eJ6X+/oi9y6XywjD8KLcm/fl/fM+ijxvjgfHJe+jyL15zyLvJ+cJ50veR5F7c35znud9FLm3XT/jj2qRuWLXz/hjWGQe2vUzdgzt/jP+vHIsQBg7MBYgjB0TCxCaD8wWIFiAkBd4FgFNFmA3vzYtQLAAIe/alJOyZRDOHC4LEJoPQhYgWICQNwhZgDB2pOz6ufTrxzII44y5BQiWQcgbyItQuzbAXfoAV2SjtSm65kGwTdE1P8cn0v5jAYIFCLn2QssgNB88LUBoPnhaDULz89BqEKwGIVfQB2ABggUIueaKBQjNB2YLECxAyLXYCoqqrQah+bVpNQhWg5B3bVoNwjgjZQFC80HIAgQLEPIGoSKpEQsQml+bFiBYgJB3bVqAYAFC7rliNQhjh2oi5VCLbLRWg9D8Rms1CM2D4Im0fmyKwaYYcm2GlkFoPnhaBqH54Gk1CM3PQ6tBsBqEXEHfahDGH6aJhODsCWjse2QDnA1weQOcXT92/eSZKzbFYFMMeeaJXGMBwtihsgxC8yc3yyBYBiFvECoCbKwGofm1aQHCWQDC4OBgbqtlujInSZJ3jhcyG7qY9+YTLmLN67ouHMfJ/Tonyr35nPnc8z6KPG/es4h51OV6b87vAu7jhcbkYs7xi3lvu37GX1GX6xy/mM/brp/m58pE2n+czs7O3ADBiniaR6pWxNP8KdIyPJbhyQuCrYh07EjZ9WPXT971YwHCOCNlc9w2x513ARWhgi3AtgA777wqAmx4zyLz0AIECxDyzkMLECxAyDVXbI6ueebDAgQLEHIttoLdTS1AaH5tWo3VWTQINsUwdmAsg2AZhLyBvMjJzQIECxDyzivLIIwdKbt+Lv36sQyCZRByxSzLIDR/SrEB7tIHuCIbra0yaX6OW5+K5uf4RDqgWoBgAYIFCKNGwAa4KyvAWYAw9v20GgSrQcgV9GmUZFMMNsWQZ7JYBqH505VlEJoHH7YKqPl5aAGCBQh5Yj6vsQDBMgi55ooFCM0HZgsQLEDItdisSHHcYbLr59KvHwsQLEDIFbMsQLAAIddEATCRcqg2xWBTDHnmra1iGH+ULECwACHP+hEnSgb+vI8igZn3LFINYClSS5FejHloRYrNg2Cr4Wn+lD+RALYFCBYg5Iq1FiA0HzwtRdp88LQahObnoQXYFmDnCvq2m+P4w2QXkF1AeRdQEabEnlCb39zsCbV5kHUhTqja+yNFmibSn4df07N/oL8fQ0N1aCsbR3rauK5+zj5GvwK7fiZ2CshJC3SmsQHOBri8G2eRlAHvWSRQXIgAd7bXYU+ozc9xC7CvXID96acnsXvPh/j40DF09vajgRQJHMBx4bgpXAfw2TDOdREKSEjA9nGB46AUeGir1dAxqR3Tpk5FtVpFe3t73pACu/80vzaLAmwLEMYZcxvgrtwAd75oZAFC80HIrp8ra/0EQYDX39qBN3fvwZFTvXCjEEEYwgt86WYaeC68wEXgegh8F57jwvU8OB7gkkpwXAQpWYYEThIjTWKgUYfvOmit1jB35kwsnj8P5Ur1nMvTAoTm16YFCGeZYkVOtDbAXVkBrgg7YQFC80HIrp8rY/1Qd/TO+x9gyys/x6khB1ElgBcECCMfoefD8z24SBGGBAr8nrab9z0PnucCnitsAokEAgV+5v8TKCBtIElT1AcHMNjTg9WL2rFq8UqUJ80+K0iwAKH5tWkBggUI5zskD/+8CGiyZUDN535tgLv0Aa7IHLci0pH3p7e3F3fc9zjeOdGPWksFlTBAqeTD9z14vo/Ad+B4HkKPzIEL1/WQekwluMoqBB4IH1wPqj0ARKMAahcIE6hb4HfSGBESdLjAjTfdjDAqWYBQq8kY5n0UmeMWIFiAkHdeFSottADBAoS8E8syCJc3g7B3717cv2kbPm24iCpVRJGPKAyEMfA8B4GABGUJmF7wHQ++lwpj4JFBEMDgIEkTAQ+eQ3DgCEAQMWOaioiRREKIGOuXLsb8efMFSJzrYQH2pQfYVoNgNQi54r4FCBYg5JooACxAuDwBAqsRXnn1DTz50g4M+CWUKyVEgQc/9OD7vqQOfN8x4CCA7xETOJI+YHrB8Vy4ZBAoUnQcqW7wiQ7iWFMLBgAQLHiI4TbqWLd0KZYsXpRralmAYAFCronCi4rklXl9ERrGBrjLM8CdbfIUmStWg9B8ELLr5/JbP/V6HU8/9yK2vPMRomoLSqUAIQGBAQfCGFCAyO95vrAEgRQrEBg48JlGkHJGVjMQDpAxSOGQLYiHFDDAkYoGJ3UQJA0smzsbq1atyh3zLUBofm3aFINNMeRecEVAk2UQLIOQd2JZgHB5AQSKEX96zyN4+3A3arUqonIAP2B1QpZG8OBSgOg5iHwfnuvBd1nOyEqFzOdASxtZ5shUApmENEngpkMCFhoxECOBl8QI+vvxtS/fAmo+ioB3CxAsQMgbgwpNLMsgND+xLECwACHv4rQA4fIBCGQOfnjP4/jkRC/CaiTli9Qc+L5LiaGwBkwTUJzoS1WCIywCswgsa6RugGWNiWEREuoMmEqIY3jqkIBGnCBOHfhpjDntrVhx1VKwdLIoE2wBQvNx3DIIlkHIG8cLpV0sQLAAIe/EsgDh8gAIh48ew08feRafDgKVcglhyUUQUltAxoA1CAQGFCLC+B0oMCBQcMQMyRMDJClepOwgAwcJ/Q7qoBFCPWGagWyDg+Uzp2HRvLlnDI5lEMbOlYm0fpw4jqX6JM+j0WhgcHAwz6VyDZ2y8j4oaGH+N++jyL15T5bt5H0QZbGeN++jyL2jKBLBT95HkXvzvrx/3keRe3M8OC55H0XuXXSucJ5wvuR9FJkrnN+c53kfRe5t18/4o1pkrtj1M/4YFpmHfX19eH/XXvzo4eeQVmqolX3xMuCpnpUJLlkDig197vE+QgoRqTlwFCi4BiAQJFCDaHyV4bJqMYmRxIkAhjRJkTiOVEBct3A+pk7uGPPkizxvu34u/fqxzZrGGXNr5Tt2UGyzpvEXZxEdh62zH38Mi5wirYi0uXnIEsNNz72EZ9/eh7AUISwHqEaeuCJSeEiAICJE+hfwa4IDz5HKBHFIpM4gAwjss0B6IFXxodQtxnXELmsUHNEglDwXX127GtOnTB73idv1M3ZYJtL+YwGCBQi5DssWIDQXmPnbFiBYgJBrsV2kKq1jJz7FXU88jwOdg4gqIWplehsEiKg3EEFiKqkAAgSCAkk1sCLB+BoQIGjzJU8qFVSMqK+I4kP2XWADpzilvyJQi0LcsnYVppyj34IFCBYg5FoTNsfdfPC0Ip7mN/GiIh4b4CZ2gCvCTlzJ6+e93Xtx99PbMeRGKFNvELridhjS18DzZcOnGJGVC2J0xFSDSS04rmoPCBCYO/BVdqCOiEjhpipITFIHQ6n8AJUowNevW4e2lto5479dPxN7/VgGwTIIuQCcZRCaBx+WQWgeBNsUQ7F5SK3Ocy++ikde3YVqrYZS5CGIAgTSaAkIAqYPtOESXQ+FPSAtwDQCzZKpRZRUAlMNFCfSDZE/oZ8BkKQxfKchWoN67IlLYiXw8O2NN6CSQ7NkAYIFCLk2IMsgNB88r+QT0OjRmUgqXxvgJnaA+yIzCARTP3vwaew83iOuiOWITohsuOQKc8ANn2mESMyPaHakDZakdwLLGcX0SEsbKUQU+2SaHfFLaaPQgE/mgFWN/D/HkWu/um4Npo0jSBwvwtn1M7HXj2UQLIOQC8BZBqHYyW28qy2D0DwItgxCvnl48NAx3LXpeRzvaaBSLcOPtMESfQ2kE6OXms6LPsLARyCWyZo6IG0gokQWOoptsooN1ATJUXBAGWIaSylkLK2cKWJMsXHFciyYMydXTOFFFiBYgJBrslgGofngaRmEfMHzXBPSahCan4cTSYX9RWMQSPF/9MlB/N0DLyANA1TKAYISGQJ1RWRawXO0SkE8Dlzt0KgsgWnHLOkEFSjSEZEVCkoQUHqo1QnswkimIWWawTgnrpo9AyuWLBYxbt6HBQgWIOSaKxYgNB+YLUCwACHXYit4cuM9i2y0FiCMfRcuFQP32pvv4KfPvSV6g+HyRfZQcJlWYEoBSFxfzY/YX0Fsk7WXAkEAKxT4b7IIkmYQISJBQMpqRqT0OGDzJd9Hw3iR8PK57W1Yd9USVCoVCxDGWYSX6/qxKQabYsi1p1yqAJfnyVgNwthRsgD7iw2wT5w4gXuf3IrXPjwsm3Q5CiWlwJ4KHlMLphJBvQ48qWBQQaKWKoqxsugM1PsgEWMDFSNKOSPYnXFI2zU7AZI0lQ/PcTC5EmHDiuViAGcZuObn4UQC2BYgWICQZ0+GBQjNsxNWg9B88LQahLFjePzECfztHY/iYPeAadFMZ0RaImtagW2YCQq48fN71BuIY6JjmjAZQaIABCYUPPU4YDdG7b6YIk1jIEmQDpsgAW6aouwkuH7FMrS3tckTswCh+TluAcI4Y2hPQM1PLJtiaH4TtwGu+Xk4kQJcEWr3cls/PM1/8OHH+I8/uAel1nZUSgGC0IMbBAh8tkpwUHIy7YELh1oD+hh4/Jn2WqBoUZozEzDws2mqoGoD1R2ktB6nIJFpiMRDzFRDmiCKG1g5bw7mjeqvYNfPlbV+bC+Gcd5P24th7KDYXgzjL3zrJT92XOz6uTTr5+nnX8am13fCicooRQFK9DZg+WLAvgkeXN9HSJtkabbEckVjpeywTbMKEpVF0DwDRYeaWHBEb0DAQOvklJoDqWBwNbXAnzWG0Jo08Cvf+c7w7/F3bS+T8eNEkX4jE2n9OClhaM7H5YawR7+sImpZm+O2Oe6cS6KQeM+uH8vw5J1X54pXnEc/e/hZ7Dh4EuVSCWHkwgsChGJ85MIPsvSBGiBpi2bto0DhoVQm8Hv82ugOBAEYgKAggRmFmFSB+XeCOJHsAxr1Bg7u2Yk/+P3/EaVS6YyXZFNAzc/xibT/WIAwzvs5kd6gIsDG5ribp/dsgLuyAtyVtn4++OgT3PfMS+gciBGVIkShL0JEn4JE6gxMxQJbMpM9cMQ6mR/c/+X/xNuADIJHJoFfy/cMcyAeB6bxEpsviTgxlQ8BC2mM9955B7/57V/CmtXXjJksdv1cWevHAgQLEHIdaqxGpHnwYRmE5oPnFzXHTaL3hZffxH0vvotytYwKjY+C4AxwIN0XjadB5m3giieyljU6qYKB0d0YWcZIJaJ8P9FSR8QNOA4LG4E4VYDAB9s+b3/hRVw9bzb+p9/9nXHfTAsQmp/jE+mAagGCBQgWIIwaARvgrqwAdyUwCPV6Hbff/xR2Hj2JICqjHKoYkWWM/HC9YLg1c+DT4MhoDVx1S5QPk0qQNINhDcgmCEDIcgr83GiIyyKvaQhzQJAABGjg5N69WLp4MdatW4up06ZZgJArcupFReahBQjjDKwto2s+MNsUQ/OnfAsQmp+HEynAFQnME3H9nOrqxs8e34qPj/eiVA4QimUyP8gWuAgoQnRdKT+k1oCaA1YkUJDItEJmeETdAa+TRkyUH6pxoqQc6GXAksY4biBgtwXPAUmDJNb2zTROmuS52Hj9dWhpbT3ntmjXz5W1fiyDYBmEXDjYphiaBx82xdB88PwipRj2fXII//D4C+huAJVyiFCaLNEamb0UKDw0xkbmM7UGTCmEUsLIzswqSuRnZRJGBIrMH6hDoholiUMiGgIyErhSxsi0hp+mmFGr4Us3bjijWuFsQcMChObn+EQC2BYgWIBgAYJNMZx3DhQ5iU+kAFfkeU8UBoEb8yNPPo0HXn4f5VJVShiVOdD2y9QXkCUI2W2R1QnsqyBOify+nvjZiVHYAjFBUjEivyZgUI8D/S9lf4U4hid2iYQLhlkA4CNFm+vitq997bzzI7vAAgQLEHJPliImJTbF0PzEmigBrmjOjdcXmSvWiGfsXLHr58pYP52dXfi7ex/HroMnEZRDRAQHYnxkKhR8MUUW9kBKGI2HAV0Saacs/RNM4yVJKYgI0ZggSaUC9QWedGXk/zOtIN/jdVK1oGWNvgO0Bx7WrV6Djo6O3DHfAoTm5+FEAtiWQbAMQq7Fb1MMNsWQa6IAmEgB7nJhEMgavLd7L370yLM4NZCgKiWM9DQIBASwjJHVB/w3mQJptiR9E9ToKBXWgN9T9mBEe2C4gmHRAUkFFSbG9UHt4kiIIFWMmncgcJgSBli/ZrWkJoqAdwsQLEDIGycKTSx7Amp+YlkGoflN3Aa45uehBQhjx/BcAJtVCltefBk/2/IG/FIJlTBAKaS3QSAtmQkOKEik6yEFhdqFUc2PyAaQRFADJG2uRDvlRICEggNu8nCUGUhZ6uimqNdjpHFDfkf+E5ygzZdqaYKN164XrUNRds+unytr/VgGwTIIuQCfZRCaBx9WpNh88LzSRIqnT5/GX91+Dz443oeoXEEQuSjRDVE2ePoXaMmiRzMkZgukakFZA/U08BQYiFuypheoRyAZkFUsiPWRdGfUT0P1hvxbLA/4OUnhJAQLKdodBxuuW39Gy2bLIIydt0XGpGjKdSIBbNvNcZyYZXPcNsedCzUVrG+2DE/zIOtKOaGSzt+5ew/ue/Y1nKoD5VIkYkQCAaYPCAB48g9cag/IEqQCFAJxQRT3I61kIAMgnRnVKVGqFQwjQMBgeAMBEwQNcaMBtUDiValUMVB7wDvOqpbx5RuvFwOm0Y8iaZqzAbhTp07hVGc3gihEiR9hKCCkr69PGY4cD7t+Lv36sQDBAoQcS5NC5xgETnkfXxSEXSR42gB36QNckXl4qRge/p3nX3oDj7+6C06pjFopQhDSGdGDz5JFKVukdfKoNs1ifqTfF9GhqUogQMhAQdZwiekCphkUFGR9GRMkcYwGtQbsypg6cFOWNlK0mGJWawu+cv21w2mFCwkQ+gcG8Bc/uB1uaztK1QpCz0XkOQgJgDxHUiqVqISWahm1Cqs2QunxwPWSNZDi87Hr59KvHwsQLEDItedbgNA8PW4D3KUPcBMNIPT29uH+x7fg9f0nUTKWyX7gS+dFCgalZ4JHFsF4HNAAyXNUh2A6Lgo4cBwBAdzsaWyUuSVSi5BlFAgNCCCSNEY9jkV/wLM6EwwECAQHFCROr0S47aYbxwUHRenx8RiELS9ux0t7DsjrLYUBmK4U3QRZEL4mto4kayKfEnj0ZGjUESLFpPZ2zJg+Ha2trahWKmD31NGg4VzBqwh4tynU8UfSAgQLECxAGDUCV1qO+2xvbpHgyXsU2Whtim7sqDcaDbz22hu48+mX0I8QpXJJWIMw4GaplQlMFZAlEObA2CVzww/YcEmIAwUDtEeWckZJK7DJgn6thQpqkSikPd0QnRRxva4NmHhBQnCQKrAAMC0K8fUv3XCG5uCzz77IXPns+vlg92784f/+HxBXaqi2t2PqlCmYPGUyOtprqFSqCP1AUijCcxhGQ6yiHeDjPbsxdeZ0tLS0imFTRQCUg6mTOrBixarzAoUiz9sCBAsQcm2EvMgGuLFDZRkEyyDkXUB2/Zw5UtRNPLZpC554bRe8ckW7MAbcGNlLQUWIWc8EAgMRKJrvUW4QuNpmWUCESS/wuC0VCNQkmH4Kkn4wDok8lNMvuZ40WJygAIGaA/7DZB1mtdTwtespSDxTc3ChAEJ9aAi/87u/h+e3v4IECfyohKhaRWv7JLRUq6i0taBWraLW0oL29nZhC9ra21CttbDXNPr6+3Dq+BG0T56MmTNnmyqMBMtnzsSK5VefdzpagDB2iIpqeCyDYBmE8y40XmABggUIuSaKBdhnDNPx4yfwo7sfwc4j3QiqVdmMyyH7KPjCCBAgiAWysATKIEj5outK90RhDZhOEKKA7AD1BxQqKjWv5Y2mlbOYHSka4IZM1oJJBV5D1oA/o0CRgGF6SwW3Xn8toig879taZKPNGARqH/7qL/8S/8+f/RUacUPKN6NyhFK1hmq5gkolQhCVEATUXlBzEIlwUYCRH+HI8eOYu3AJqkGKabPnCEAgeKJI81s33oAoii7o87YMgmUQzjuhsgvsCcgyCHknS5HgaTUI449qkfRF0RNQkXtfaJHirl278ec/eQiDQQ3lSgQ/cGVDpEiPpYrCHHCjN3bIIS2UhSmgeI/XjKQVAseTVsy0URZ2QDQIggy0YJEWysIOKIUwNNQYLnMka0Bo4BAgpCmmRD6+dfPGc6YVRr9TReZ4BhAOHjiAr3/rO+jq6YHn+QjLZZSrLWhtbUFLrYpIxiOUbpQES0yjlMKSVHHQ0HH//gNwwlDGgZUP06dNQ6lcxXXXXIN/8qu/fN70Ap9/kedtAYIFCHljvk0xjDNSlkGwDELeBfRFB9iDg4N4+LGnsOmN3fDKNUSlUJosedJsiSdk5thHpRUo0KM7ojRXUmAgH1K+SBbB07bM0ktB/QvUDZE9GF1NH1B0kJrSxXoDiXFLJGCI5VKyCAk6QhffuPEGofbzPopstAQIA4OD+Iu//yncWk1YAa2maGBoYAiDfb0YHOhFT28Penv6UB/qV2tnplJ8yhKBEydOoPt0HypMQ1RKaKm1oBwF6Ow6jf/wJ3+CmTNn5nrqRZ63BQgWIOSaVLzoix7gxhsoCxAsQMi7gL7I6+fIkcP46f2bsONIN8os2aPpEUsYQ9+YGREg8N+qPdDeCakRKlJ/oG6I3LC4sYoTIm2WmX7gRisAQX0DXCoOpWxRZQX8iBvacEm7LiijQC8EphamliNsuHopJk+eLPfP+yiy0bI88clnt2LnidMKjEJWZLCRlDF2MgJE8T4geGkMIR6so3+gB33d3Th54hh2f/ABhobqCMIItWoF5UoFaaOBBXPm4I//13+d92lbBmGckSrKwFkNwjiD+EUOcGdbfRYgWICQNzJ/EdcPPQZ27tqN79/1GE65ZcmzlyPaJOsGSatk7snCBoj7oeoIRJRomAHRIAh7QAjAn3Of15JAfk8rDxRASJqBXDyZAe3LiEZivtZWCyJSZMaBkKGjFGLjiqXiL3Axnfo+2PMhnnpjByrtrdJHQiowTPUFgYoAHYIbeT2qq5DXTVAUONi3Zy8WLFmCvu5OHDl8GMePH0d/fy96uk/jv/vHv4Fbbr457zS0AMEChNxzxZZpjTNURfKzFiBYgJB3tX3RAALXxv0PPIIn39wLt9KKsBSgRK1BQIaArZh9YQrYkZGHf1ohZxqEbPNXUMCdM0VI9oBf8RvGCIlljlLOaCoXeKImQyCpBMcRQWLWxpkCwTglZKAgMUUt8PHlVctRLpfkLbxYAIFVCz9+8Cmgpaq9JLxABZjSito8d2ZK6MdAAoFli8byma+rMdiPnXv24Jq1a/UahwCHoKcBDAzhto0bxQ8h76MI82FTDOOPqjM0NKQVMDkeSZKImj3v47OWnef6PU5qTvK8jyL35j3ZECXvg01K8ppxFL23nB5yWosWvbfUDxegDouMiSB907wlzzgWuTfvV+T9lGAoiqx8jyL35vzmPM/7KHJvu37GH9Uic2WirZ/enh7c9fBmvPXJpwjKZUShmh5RfEe9AXfCwGNKQR0S1fOATEFWrcDafk0fSCdFJ5VTNk/dqfRb0AoFYQ6MJpFVCKI/MOzA4FADCUGFWRL8HIs6AWgrh/jq2lWoVSrDg38x1g8tnH92/0M4noSolCNxhWRFhoouvWH7Z34tTAJfvzSWYtpEx+WD99/HvEWLpaKB7o40dpJ6jAS4asZULFu40O4/4yyhi7l+bLOmcQb8YiFs/ilrxDP+JlGEzfiinVDzgBXL8Iw/SkVOkUWqTAhQ333nXdzxyLM4VvcQlSqIaJUcqCpfyhWJDzwfPlMMGTigngAj3geZO6IACHZcJGPA/0zagZtoQgDBLdakDihLlEZLSYJ6I0bK5kymU6OwCEkqTZgmVyPcuv4atNRqZwzOxVg/P3/nXTzx+g6EVWUPtGeEvhb9n4ICTTMomyCdKQkYCHwaQ9j98QEsX7ZUWA8CBNFPsM9UmuJr69eiXCqDOfS8jyIxxa6f8UfVAgQLEHKtN0vBNQ9sLnQZ3ehnZAPcpQMIHOsXnn8Rdzz1MoZKLdI7IAp8RL4LJ9Q8O1sz0x5ZvA48sgqmbNFRBjHzNZCTtDAHWsGgwkTaHaQq7JPd1bgniiKRWyzz9ykG6rH8LWoQWKFACoJljPz9tijA169bg9aWljEDc6EBAnUCf/2z+1GdPl0YlEgAkXona8UFX48xdBJwoN+T9INpLPXW669j6cpr0FIuaaWGlGaqPfTkIMRXNm4QFtgChLHzvAgILnpAtQDBAgQLEEaNQFGVb5FTigUIzW/iRQNckeCZh0EYHBjAD358J9745BS8ShlhEIlmgCWMZAp4ag490wOBvgXsq0BTJI9AQT0LpLcCU3au4QKM3wG/xw2fOyQBgqY51S2RAkXXpBD4qdGoI2EvBlO+QL0B+yvEKVDzge9suBZtrWPBAd+BCw0Qbr/rfhyWjpQs52R6RMdBgYDmRbQsU2s0M68HsgRiG40Gdn/wEa5evnzY5VFnSgInifHl1asxuaMDdv1c+vVjAYIFCBYgWIBw3jlQZKO9ElN0ZA1ef+113Lf5ZRwfchCW2W2QDZY82RRZpUA3RO2uqHLB4ZbNbOHMls10PhRwkCAw/RMoMmR6QbsvqmbBGCZS168mymQF5BjOwoUEcaOORgzE1CoEPlI2YgLBgYP2Uohb163CpLazi/kuJEB4/Oln8NbB4yjTJVIMj5QpkVRmaPcwAAAgAElEQVQJn7OpXFCsM5JaIOAhXgicFG++9gZWrblGPBN4jYIeqcvApCjEV2/YIGyKBQgWIJw3UGUXFDm58Xe+6AFuvIEtMiY2xWBTDHkX55UGEHp7e/Hw40/jubf2Ii21ICr58LnpkzFgVYKn5YzUHqv1sW72VODz+6xmkFO1sAaaOiCQyE7SrH/0R52uNc0QI3H4Oy7cRC2SY1ElxnA87Yh49MhhDAwMYMrUaSIgbimX8bW1KzGpre2cb9WFAgifHDiAnz21FX61RVIs9HWQZlOG+SDw0ZelqRNlD7JqBqZWUvR1d2H/oaNYtWKZPOfhFtUJgUKM1fPnYumiRfIzCxAsQMgbgwqVLVqA0PzEsgDBAoS8i/NKAghdnZ34L3/z9/iw10OlUhHDI5ofubRN9nzZyEVTwMonMgHsmWA2RIrvmFaghTJrCljZQKpdGi+lCVyXm6on1Qos61M3RG6SWp5IBEFgwB+wXXO2gYauq8JFsg1xjEraQHtLDauWL0f7ecDBhUox9PX14T//8CcIpkxFxbRwpm9DaMoys0qFLL1ALiSV9tQ0hdLyRjIv77z1DlatXS2CS0mtmK6OBENl18F3brl5uKLMAoTm43jRFJ1NMdgUQ664bwGCBQi5JspFrLPn3y8a4IqwZJ/VIGx7cTvufno7TiFCqVQWdX7ksyqBqQJttazVCaZsz1QryDZnKhJCab7kG/8D44zouEKtU1uQSIdGNl5i5QLgSUMlYw6QJoh58hZ3RL2eh/I4q3IwdHzgJFi7YN7wSft879OFYBAeePQJfNDZjyAMEQYERvo6Au0cZUSJ+ky014RaQqujYirplp6ukzh09ASWL18uwEFHx5E0SpI2sGzmDKymLsE8LECwAOF8c3v45zbFMHao8oisRv9WkeBpAYIFCHkX5+XOIFCI+MAjT+CZt/YCUQuCKEDIun42FnJVcOhKG2ajF5C8u36IU6CnlQTikkhtgnEOlHSB6A2oVVB5Pz0AsoZLwizI1QQEaqNc105LmmowJYHinJhVPqRAa+DilmvXjilnPNv71SxA2PH+Tjz84uuI2loQsm21AUmaNtHXKOLKz6QURJfA5w0VbL7+xptYds0qaX2tNQ5qC50mMTwk+MqaNeiYNMkChPMsvCJxvCjAtgyCZRByxX0LECxAyDVRLnMGYaC/H//w03vw5pEBBJUKKmw25LsgE0BQ4IjRGe2DeRoeESM6PnUEmldnbwU3iGSrF9GidmnW8kcDJmRD9LRfAuv8SR+QPVAaHnCTRMzA+CPax4lZkpQwaupB9mDXQVsYYOOqFZg0aiM93/vUDEBgqeGP7n0EXamDcuTDo/hS9BX0fNAeEQFfg6AZZUJUsKg6BKlacFLE/X3Yd+Q4lixeJJ0mtZqBACEVo7KZ1Qq+dP31Z7wUyyBYBuF8c9syCOcYIcsgNL+J2zLH5oPQ5cogfLhnD25/cDO6nSrKFVYphHI6zhwQM7MjKUE0df2sXuCO7kqr5hShk4qAEW4w7AEghkkmv04hH9GCtm3mhskNPxVzI274LF2UTTWmRsFDQ1o0k3JPDU2vjAKpfHod3LDyaimjLMKoNgMQ7n/4cew51Y+owtQCwUFm6qT6CilnZLUGXwOdII3wcHS5I82fnn92C66/+SZTuaAgwnSXEgbhy9eswtTJky1AyLEjWgZhnEEqsiD460UG8XINcBYgWICQI57IJXb9jIwUT6xPPfUstu74CANBBbVSCQGFd7KxM7Vg0gWe8SMwvgU8OetOmGprZkOdEzyQbuCpX62Ts81T8/F80BlRNk3pt6BsgW6nfOgGS7AgtsmkEdJkxErZAaaUI6y9is2XosLv5y8KEA4cOIifbdqKsKWGUKoWVFsgm7v4HmQMgT5/eSWZHsFUL/A1D/ScxuHjn2LxwvnCGkh5Jx/GHClCim/edNMY+3XLIDQP3gunGDo7O3Ob2tsNyG5AdgM6cwSKAE+7fibe+mHHwDvvewzvHOlCWKlJCSNP5PQtUJaAjogKAITm515IMCAugbrBa4dCmv540ppZvi3ljuzaSMGeKX8U0yMFAGocpNdqd4JEjZBY3eAFaGgthHofSKpBNQlMWUyrlXHLteuE4cgeRebhL3IAYtXC3937CIKOqaiUAngECBwL0V3oa2Er6hBaqSDGTqNMkgQ0saoDDl555TWsu3atCBtlfEyravU/aGBeawuuWrx4zGSx6+fSrx/b7nmcMf9FEXaezdNS2M2j4F8kwOV5b3hNUYRdJDDbAHfpA9zZmBKyBjve3YHv3fEYesMaanRFDOkAaHwNpE2xWCKK4yE1AsIEUGTI77PiQLoj6SYutf8EBCQVsmtZmeAxVWD0+cYBSTQJo45lUvrH7DvTDCx7NGWSojfg/0xfAv6h6S1V3LbhujHN5IrMw6Lrp7OzE5u3bsMH3X2IIu1UqR4QRpxpukoqYyJtpIwbpCnr5NfsF+GkOHXiUxw5cQqrll+lgEg0Cqo9kMrOJMYtq1aeAX6yWWPXz6VfPxYgWICQa++0Xv/NAxsb4C59gBsPIPBEfsed9+K5HR/DiWoIS3Q6pE8BKxS4+dPjgJs9c+xK/VOAl/VKyPLurOVPpMTReB+YqgYW9Em3RqINsUymv1EqOgXeS5oUcs/UpLtsjh4ZAtcXkaIm7ilU5M9Ys6AswozWGr587XoEAf/yL85kFQUIL7/yKp5+ezcqrTXt0uh7iORFaxfGrApDTZCUIckMkbRqQRkVekW89sabWL12Lbw0HvE9kBQL0IhjdEQhrl+5ctyJYtfPpV8/FiBYgGABwqgRsAxC80FoIjNwBw8cwE/ufRS7TvYjLFVls6XYjnQ3myv5ND8iiyDHfHVHFCMkaaUuOx17MZoKBq0uEPF+1nfAdC0UE0FDsxMGHD3Rhe1v78GCWVMxd9ZUTGqrqJti0lBTJAodTApDKxvEYVkrGkBwUMWX1q5BFKnm4FIBBLpIfu/OB9GoVIRhKRngpE2mTJknYY9JnajGwqRfTKpF2lQD6DxxHCe6TmPJ0iViFCVXEUClrogw06SBFTNnYtbMGRYgGGOsPMG5iJ6oKINtAYIFCHnmoPRhZ+DP+ygyaXnPi0mRFrm3BQhXJkAYHBzEiy+9igeffQWnnTIqZTYWIijwBRioTTC1Baww0N4K0ivAmCBl3QdVfMjGSYmU8oksT0yPtJRPKhTEHMhIDg1b8O6uj7H1lT2yEZZLHmZOn4Q5M6di7ow2TGqtaKmgtiDItldhDfi3pre34qvr12iHxLM8iszxvAwC1/ztdz+A43UgKIcoSdWCvk61k1ZDJMEGQnwY5oBVHcMtG7Uss+R6ePnlV3DN+nWi7yAAYntr5lrSxJXKharnYsM1q3Qcx3lYBqH5tWkBwlkWUJENayKfgM61QVuV7/ijUyR4WoDQfBCaaOuH4OA//+X/h10n64gqZTHmYZUCrY81XaDpA+6/YnjE5ksEC0KhGyEeh0W8B8Q0WNz+jp/qxtBQjHKlglo5QrkUSImjNl5SQyAxQowTbH7hbezcd2q4+VKaNpA6MfzQw6xZU7B+xSLMmtYuugaBHWxW5KSY0d6C22440w/gUjEI27a/jC27P0KlXJWqBVZvCiAYJUzMUgnaiEk3fUnJGP8DafnsuOg5dRKnB4Ywa8b0EeZA8hEs44Q0nFo+cwbmzpx51hBnAULza9MCBAsQ8h7yC5W6WQahefBhA9ylD3DHj3+KH97zOI4MpCiVSyiHnjggUg+g7Zm1lJGmRVK2J2UJqXQmFMdEESbyWybXTmrcdXD0eCeikodqFIoNMwEHH3LqF42eChp5Fj7dO4D7N72Kk91DmjpIYhEYOE6oFsMpxHGxva2CuXMmY/miWehoa8HCjjbcuGaVuBWe71EEBOdhED45cBC3P/oUovZ2BVTsI+HSAdIYHnHjpxOkea1SYSEnfwNwxBxKax0JIjZt2oyv3nYrIqZwDHMgQEu6NibwGw1sWLlCRMJne9j1c+nXj00xjDPmE+0EdL7gkP3cMgjNb+KWQWg+CE2E9UNAu3XbK3jylV0Y9ANUyiVE0jOA+gLaA5s0gqHCCRa4+anmQCsVpFhBTsD0MtCUQRInwjAE3LQprhuKBWxI4ySCCYIOOBiKE6lK4O8fPHIKDz/1hjAJjTSWigeHgsSE9yZQILDgc3MQlkL4boxf/9q1+O9//duIRpUynisOXEiAMDg4gB/d8xC6EKrNNF+v+By4AqQ+63egsEBZEylblM8j7Z1PHj+OoUaCmbNmiN7AITgyL0YaVKYxZteqWLF06TlDnQUIza9NyyBYBiEvnrAMwjgjZQFC80Ho8wYIXV3duO+RTfj5wdPwKjWEoYNSROaArIHmz4UdyOhytmzmBi+MgbZmZltmCugyOl1L/dW4iABB3JE9FyWerj0H9SRBI64DcWyAQiAGwgQq7+38BE9ve880XKKuwEeaUno4wjYQjXhOgnLJx4arZuNP//CfjyllvFQA4bFNm/H2oROSjmFqIRS2gOOjaRcVFyoIYNWF9JowpY5iLS1ggd0ZCbQcvP32O1i1eo2oLlXMSDjB18/qhURcJDdevRyVc7AH/C0LEJpfmxYgWIBgAcJnRqDI6coChOaD0OcJED78aB++f89T6HbLaClHiAJfWzNLe2YjQhTTI27UrEZQMaK0KRbGgGyAbn7SN0ELE1WQKJuj6TsgKQTjh5AmYhlMVmFgaBCDA0OIG0OInRRRUELqBdj2xnt45bU98LySmCGpxxJbEmlrJtEsuAm+snYx/vj3fv2MJkV5FnSROX6uFMPhw4fx9w9vRtDaglLIzpUq2tQeFNKLWV0gXRoi0dwpM0kaXdpIDQWdIFP0dJ3CR4eOYM2KFQqchGFgakHLNGgj3eI6uOGa1WcVJ2av3wKE5temBQgWIOSJJ3JNEeGm1SA0n76wAe7iBThuOE88tQWb39mHIaYUShEizzVaAjocqpmRWidr/lzSAvIBlAUUsIGSboRiH2w2NGNdhFTSCCM0uzRcMqkF8QQA+zCw7NHH4NAQ+vr6MVSvo5HE+PCTY9j22odoDI2YAyVCt2vqgoDkGzcsxb/4ze9IOqTI2uSoXgiAwM3jr/7hbiSVGkpRCN8L4Hv0dFCjqKyUU8SbWY5AnY7Mz7JrCH6UZdj19luYNm8RJk/uEGGn2iRkNZwp0riB1fPmYdrUqeeNW3b9XLz1c7bBd/r6+nJbLWdduc77TpoLuKnkfVzMe/M5nKtE6LPPkS5rgnBzPibKvfmc+dzzPoo874t5bz7fInMl6wyX93VOlHtfzDl+Me890dfP4cNHcPdjm/He0T74UYQo9KWEMaKwzqcojm2XFRBk1Qm+m8i/E8cTdT4ZBP6cIIA0udgXGZHhiCJfrYEpw9PWxqTTxbVABXmm35C0bWa5pOfi+KkubHv1bezZdxh+VMFATwN1oQxE6y+/Q8bia+uX44//h19DZMSORdbmhVg/jBtPPrMV7x7vRrlUQimkaFPLGsm0iEOi6UpJrQYLLhPTmEl0nVnHSRkzFSrWB3rw6acn0d3Ti66Tx7Dm2g0olSuaaklTxEmM1jDAl9evz7WUL+Ycv5j3nujr51yDb9s9jzM6eVS+o3+tCHq3FHbzKPjzpLA/++yLnPSsiLR5Fmb0+uGm9vY77+Kv73ocgyEpcdbq09eAAkRu4gQBvrFM5obNnDhk4w+MAZLj+whlk9bNkGdcdRvQA4LoFXT3k+ZJvIZ5d7ZcyIwL9FSsavzMJojPjQfl3fsP4onn3gDiBI6nFsV9fQ3AjbTbggvcdt1S/Okf/M4Zg1MkpvAXi8zD8dbP7j178dir76La3oYwoEeEYVyyfEsGiqTHhJo3iUF0Vs4p1pDGOIlVGa6Dbdu2Yd1118p7cv8dd+BX/8l/DT8IWdMoaCOhMdKcWVh51bJcAMGunwu7fvIMugUIFiDkmSdymiBwyvu41AHuXM+rSPAsmqMrcm8b4C5cgOMG/MPb78T2PceBIBITHzr9iQ8BlfZsnSSledpcSZsK0fiI9sgULBIkqIUytQSZOl/KGrmBiYeBbuDD3oCmY6O6G6pU3/Ra0nZLQiLwZOzASRNhEJ7a/i7e23kAMWJJX4Regv7eBtKUraQT/FdfvQ5/8Hu/NqaU8VKuH875Hz34BNJaq7AvtJyWSg0DiHQAVMAp7Iixh2Z6RESKWU8FYRK0tDOp9+OjQ8ewZNECLfs0zIvALmE6U/ho4JsbNqBSIatw/oddPxdu/Zx/tPUKCxAsQMg1VyxAaJ75sAHuwgS448dP4Ht3PYr9JwcR0IeA3gZ+CN8XHyNTnaBlitykMzMfAQRShqCbn/QJYCpAXBON+NCwB1reOPK7qhNgXp35AQ9OamyCySywlp+UOX9OpX4SI3F9cU2866EXcOzTPqRoaP8F1xNhHmIXv37revyr3/kuyqZl8+jRuZQA4bHNz2FPd79oH3ja1x4Upkul0WjwuZE1kS6NhjHJNn1NtWhVCAGS68TYsvV5bLjxJpQj9m/kfyYPIQCK2oMUs2gffd21ueIPL7Lr58Ksn9FdQM83+BYgWIBwvjkiPx8NELT9rH5kwVdEXaMelzLAne8FFDnlWwah+SB0sVJ0nG/v79qDu558EZ0JgYH2UWCjJTYQotGR9EaglS+9C8ga0P0PrpTqic5OKhMyEGGMkCSnQAdE0745M/8x9+MJWbgC8UMwc36YQSA4UIAgaQWxXfYkHdHd1YefPfwC+gbEHYlbI9KUNQAJvrVxNf7tv/xNsXoe73Gp1s/xY8dw55btCGoqTKR2Q4ScmdsxO1WKt4O6JBIYifbAlDsKo5B97TDlkIhr4keHj2D1yhUy1iNNnEx/CY5FCly3aAEWzJt3vuU7/HMLEJpfm0VT3BYgWIBw1gWagQAqsXt7+3C6pxeHDx7G8c4u9A8OIYkbElBqpQjt7a2YNWMGOqZMlnwoF/OwDWuOEFBkE7cahLEDeqVXmXA+3ffwJry45zj8Eh0RCQ58qRrgBsbNWz9rlQEBgVQpiFMiv+1LeiGr4VdMYMruzOmXAMNlXwAyEVKVwKu1G6McmuX/9GtNLqhmgdQ73REdipv9QE7Z5Bne370fTz//ntDprPyXmn/E+OaNq/F//et/ds5VcSkAAsHw39x+N0ozZ6FSCrUk1AgTxeOAzzBN5XvDXgdS4qhMgiRyzOBk5Yu+72H7Sy/h2htugG/skLIOj9IGOqUcIwaTlRvXrsakSZNyRAe9xAIECxByT5YiGwpvWmTBXawTEJ9HUQRX5HlfqDKg/oFBvLdnH3bs2S/+6YPiAAepIxezFF/pWfA0ZERLpFk1ZMYSGEq+g7ZyhHnTJmHh/LlobW0953tb5P20AOGLBRDefncH7tn8c5xqpGJ4FPkBPJYTmkZLrkMhorZGlhMtxYhkFERgaFgBz0PAbc64I5qiA7lGgICwDao5kPOyqWRQOj1Rlb4I88zROhMf0MtACocSpLKR8omkaCQpHnnmFXy4/5SkIBxWdDkp/ptfvgn/4rd+FaGpVjjboiiy7nmPouun0Wjg/kefxIE60FKtSFdLbTJlxo4VHsarQOyVpTpBkRLBAceZmgv5HRFq8Gcxjhw6hK6+Qay4aqlaKhsoJWPgmCqrNMG1ixaio7290PO2AMECBAsQPjMCRQJFMwCht68fOz86gJ0f7sfHR0+iARdRKZDAQZEXT2ci6GJDGykJk2yjBFaJoabsi/lVxoWYsSFhPpZfJ5jSWsG8aVMwd/pUdExqG/M+Fw1wRUoXi9zbphiaD0IXCmAP9PfjiS3b8fyO/Yh97SYoFDiFiL5pwWwskblBi/DNmCFxrjJlIDX8gdodhSQYOI+FBVBXQG5gzK0PN2wSoQA1BpJXULdAECAQBRj3QzIG9DCQLdFwC8ZiWCh4AH0Dg/jp/c+hp4+Wyw1R9f/GL92If/nb/2i4lPFcwa7Iuv9FAMJrb/wcW97bi3JLqzSZopGUsATiMqmiTq5wYRAk9aJ6DNnyjeZAzZ5GbJX53mzf/rJULrCXBd8TLRgVL2mTlgQqHnDjqlWStiyyNi1AaH5tFj2g2hTDOGN+oQLceG9n0TeoSKAoChA6OzvR2d2DV9/ZhRd+/j7qjouSHyAqByL+8n3jwy5WqwYguKmapDi+MZTRs5XWRMdK55qCcIMRJDjEcSLiJNqqTmuvYu2SBZjcRtW0NqIpEigsg3BlMwhMbR0+chS33/M4Dg65CMIQEVkrVgHwpMuNX1ILerJVyxL1NZCqhczQKMulswmT6yFk2aPPHgo88XLjMyJFacDkqQeC7oCmFbGeenWT48mZQIObpnIJ7LlEO+aUqDnrLmD8Uw6dOIm7H3pJrmWHxl+5ZS3+5Pd/SxmNHI8i677o+jl86BB+/NDTiCtVlKJAPkKP+gGaImnKJHvRfJ0KoPjz7DAw0mdBwJYBCZ8ePYLTfXUsXjRXSiBdKW/QHtYq5CRgSDCvrRVXLVpUeN1bgGABQo6lo5cU2VB4fZEF90UACH39/fjBnQ9j+85PUAlDlKsRqpVAA3BIcGDqyeU04YjqW73YVfTFf0gNtLCxhnykaJHnDqmD4s9VvMUgQhrWI1BIUwwlMeI4RZACS2dPxbqrlojTWt6HBQhXNkB45rlteGD7DnilMsoBC/KBiEI5n6WBamxEPwFqDchYcdNuSQbhHjqAZKAfQy2t8ObMl/JHMUeiHkFSD8boSDo0qt8BBXlMTwimNRujpiuUL3C1XaEBCFrSR+qdeXQ9VXtyH4rzYtLoBMEO8M4H+/HM8+8hdXz8xm3r8fv/9FtoaWnJO8ULxasi8ZBCyr/58Z3odAKEJV3jkU+hZzDcd4LrNOGY8CWSBRADKXWH0MOBmkKNbmlNF8lHn3waX//61xEEBBNkZlRzIAcIk4YJkOLm1dcMG9cVieMWIFiAkHsBFZlYFiCMDCup+Z8+tBnPvL4DA3GC9lokLWujKIIXsQY6kNMa68kdyeMyuNKBTg1ieBqS9rgmiSsOa2r5YvKQDCkaWLPTHU8mjLMMIkmihjL1JJZud7HY0juY0d6K5fNmY+m8WWdVdmevwgKEKxMgdHd34ycPbsbuY93wyBoE1BoAIdMFYvfL+nw16mGlglj3ihgR6N+zC5NefhutLRUcq4RIb7wJ1SkdMidZ3iipBgEGWT5d8+0EHCKwSwwQ8FL4BLfUJEiVjkoRtVLBkf4KkjoTCY6q+wUUizI/kZ/xsXnbO9jxwSH89re/hN/6lS+jFEUTwkfk+W0vY8vOfSiVI6kAYeqDY6uVH5p2cZ1ExZdGpKlUoZogqaOitlrStCK5Agddn57Ayf5BLJw3R0YkEzlKdZNkKpRFnN3WgpVLFg9P4CJx3AIECxAsQPjMCBRhPs6VYuDifP3tnfjevU/hRG8/WisllCs+apVQnNMIEMgesO+7dL0TSlfFW2Ira/zYPXGJ0S5tTCtk1rNCPg7/nwZJCSCMp0YJLjlbQzWqWUoipzE2fuOJjLqFchhh8cxpWDp3FqZMajM95s8clIkMEOJGQ/z3+V581i7XBrjxl/epU6fwznu7cOcT29HnkfLWzYtmPXRCZHGCAFVJIWRNgUwu3AgLQ5Yp8lRPDwLRKUgpggACaVVsbI0zoZ2ADE5IbvICBkyNv2HXjRWSiG75IeJEAoQkMU2auKGqyr/BT2KfnMJNEgwMNfDopu24Ze0K/Le/9g3R70wEH5EDBw/h+/c9hvLkSSL0jDjGZm1LC2dJL4xIMbVts/GI4Gs0xlACJLTFlI4BYmx5egtuvvVWuadaUZsmVPwx9QdyaEiwev58TO4YYQstQBi7JiYSg+10dnbmbjpQNMddZHObCAvoSj2hcmO6+9Hn8MALO1Brr6Ba8VCjLW3JR7kSokwqlmyBuNB5iBgITI97BmS2vyVlyFOEUrNkEVzEJqCY8JsdLwyrqLlWjaGECGSKVcAlbW4JChg4yC7EyjjwmqFEgUOjnqC9HGHVormY0dEu4CXzWphIC+izc7yruxNPP/8iUi9ErVxFtVJGa7WMKe3tmDKlAy21FrPRaUc86SZ4lscXYf3Uh+rY+tIbeHD7+wirJQRhIL4G1BcQqIq3gUkTiEOiEcOKQC6z9uXcEqdEUuEmfWB8ELiDaQvirAETf08bC2gHRZ2nuhFq/j0T2nI+cq4LxBURAkv+fMQi4DPKBJYwCpPOORwLaO7q6kPUSPDPf+u7w+/s512GyqqFnz38OLq9MkpkCmn7LHbUOm7qY8T1aLwhpNdCtt7VACoVMGaaS0nqUDMIRw8dQnffAJYvW2KAmCkNlVwj134qbOGUKMRXNt54xmwvMsft/jN+oCgCsoqKsC1AGGfMJ/IJ9VwUy3gn1JMnT+Hf/sVdOHR6AB3tEWqRj1IpQFSKpP96EHqITC15SCGiT/GhWtDyxCZd6ky7V6FTTQMbCauyuSnV6LPcy6Qbsh9pKCFdKb8oQWZY1yx27Bp4YqIFAQbSIV5YhSSO5et6kgiFOW9SO1Yvno9arSJUbZFmNkWCUPMi0hT1egMDg4N4Z8d7ePbt9+EFAUphCRG1HuUQraGPEh38XKBaKqG9pYbJkyYZD4l2hFEkb3OR5305AuxTJ0/ie3c8gkP9DkrlkuSumU5wCU5l89Ipxk1Z6W1V0fOUyxbEMYWJMo5abisliqKTMRUKIqg1TZVMvb7ex1xPcMqtnikDptCMvbLqDxQQiMFRkqJhAAl/wsZPuukpyM0qHo1SActmz8K1K5afAf4+b4DwzNbt2HH8FEqVirZwpu6A4k0pYRxJH4jegK+fgMAAIS31VE5FbaZ1gPg59ANsef553HTzTaDcWA4SmXMi17UBB2Rebrp6OWbPmGEBwnl48om0/1iAcIUCBJ7Cn3nhNfzwwa2IXR+11ggtZAsIEMgeyL9DEXv5pGPFJ14rEzIql2pxqrvFNc0EXXFYy0nult8AACAASURBVFrhMn4KJZt1szOnMfk+Pe0zcxlJMsjFqlkiFWuU4UJQ0qENxlBG0w4EB+qqkqKRJtrtMQU6KlUsnjMDS+fNRkutep6lpj8ustE2DxBGntLevR/i0VfehBNFxo0uReQCt65dg8GBfpzs6sTp7h50nz6NvsFBAWWBF4hXRltLDW21KmbPnI6OyVPOyTTwL15OAIGn2RdeehNPv/we+gMfYRgJOOC8o9eGAFMjiPVdU5JIAJA0wBbJfK2igSGVbcrxmCLTTYwOimpwpOV5mg7TM7+ChYwpkKwBZ69s8goLCHKz8j16GRAFePzsqwnTcJtjo79rEKQYdoG3Xrt4Ia5etHDM+/V5AoTDhw7jvq0vw63VEAWhMDQcI5pJcWwIBGQsycBkUiIRGGs1B0WLWZmjsIVmjAj+D3y8H91DdVyznL4HGThQEaP6IulaDpDgmxtvRCkqWYBgAULxwHw5BbjPvr8Xk+Ipcu+MQejt7cVP7n8aD7/0PkotFbSWfQUHJeZ3VfxVLtOFzkfkBmI44zDfa8xiRKgkfvXmxDAMEtRERgOEaVRjPOs1BaFNakTpzbIpESbSftYEHmOmJEHYgAcGEGoP5FviOMeTmaYkxMnRfE/823mSi9XLnZrqudMmYeXCeZg6qU3YkAtB1XOj4d+t1+vyeiTlQgEnE+HjPM4GPvr7+nDPY5twyiH4IqXryMecWgX/+DvfOuN+3Dx6e3rAstMTn36KU53d6Oo5jf6BfqxcvhCT26eite3cjnOXy/ph+997n9iK9w51IiiXpUlR1n2Rp1qe5OneT/2LNFEyG9ZIbtxMHmm2xJ87qlXwA+2wyAI705ZYZmhm8COmPiqqo7FS4jIlwMZNWbMhLZeUNu9CjGnqS0R48t5reoybZWYxLvbK8hPxScTKBfOwetlVw6mw0dPl8wIIg4OD+Lt7HkJabUNYDmQ+M72gGEwFF2JPLWDJGKDJOBqnRNPVUls46hpQV8VU9AZPP/McbvzSTSiztERuZsqcZSXr+5HEKZZOnYw1q1aNWUFFwLtNMYwf4YrsETbFcJZdosggTiSKp8jzJkA4cuQI/vA//hBH+2KUKwGqVR/VyEdFKhVCVMMS/HIoxig0NpGyMeZ6xR3RNK7JFNpUgEsA0U51vrFZlRDwmXJHUYJntijDJwkte8zqziW0ZKlbU1vOExpBBZXRmaBRheAKFOSRsIRMKV0mLPiZPxvk13EDbiPG4plTsX7FcjFhksA36pEnCJFx2ffxfvx811509g3CL/PU78qmUg4DLJwxRbzlq9XqGRvAePfmxvHQY49jX28dbhAIhRuaWvwvL12A63I2qMnzvLOXOdEBAsdk184P8DcPPoe4VEZLGEoqgaxVEBBDSaMEKaVV5kpP+yqio0CR5Yxq+cudXRz/TP5cdAnSlMlYJEsawTAIUnHjirMhrZalA6OxRtZt0EUijIOyXwIQDC3OTZCgLqYSQfQyBAgmZTZKg0DosGbRAqxadva2xZ8HQOBz3vzs83jvVC/KJeo7FHQRIEh/Ks0ZGkZlhGUxekwBQ65LwyN2kdB0j5gkGa+IU0eP4kRfP5YtXmjKn7WeSZY80y9Gu8EY8qu33DwuC1ZkjluAYAHCeciXkR8XmVj8rSIb7eUKELZtfw1/+v370Jv6qFQilMsuyiUXVaYUaIYS+XIapuc6T2s0QpIyL57aJFDwJMaNWqlb6gW0rEw9DUilZic6XsNjvNaOcyM1VY4SdTOV87AkXMOp1JPz5KaJTKYW6EhHcZecyiTHqWWSdGBkpBH9uEgUmHogUCBe0LwwH8xt8ncb8j0XtcDH9EmtoleYNXO6XHO+uUJU/YM7H8RgqYKWlrLoAqKI7nKBBtPAV7Ay0I9y3MCtX7kFVdP6erx773h3B555dyeSMJL8uOTIPQdV38Nvf/vrqOWshz/f8x69WCYyQOgjm/Los3jz42PwIrIG9PxXMFoKNI3Fk60YFYma3ogHBQBo0yVOM182JpNCMJu66GXIJEiaJRPRGY8D2dAyB8ARJkuo9Ax88sacU4oP5D6sqOHm6HimkZJR4asuP7uKYEKuxpoF83DNsmXjMgfZe/R5AIS9H36Ih7a9gUpbm5hNyZqXklHVEomewjAImloweo1snRvNgba1Nh0bHUYF/pfg/gcfxbd/+duSqsycI1TUmXkoJkjjBDNaa/jSddeNG9uLzHELECxAsADhMyOQB9hQ0PeDnz6AOza9AvglVFt8lFmhQOYg9AUQhBTGlUK4LrvgceOnUIvUopY0SqmXVCgoUND8LSlcBmRpiactXYdbvqooTBkCDcRyspBqMK2TlnhuyMrM257ahBERmP7bWOEZPwU9rYhkIcvtxsIbSDlZVmculRFSJkkDR6V9hWVIIX0jyDrUogAdtQqmtdUwbVI72ttaxz3FPL3leWx+fQdmzZ2NWksZpVIJpTDQMQsjcXvkWJGCHervR++xo/iVb9yKtvb2MeDj4KFDuG/zViTlqlSFSGc8YzK1uKMVv/bNr1+UOT4RAQK1Bi+9+hY2v74LXQ36FplNKhPIGRMuzjNWITC9wDkVGNGcCBRFU2BYBTnFnsksiC6A81hYr2yXz9gFo8Q3tLiIYsW8J6tPIDCVggZBCJLeohso3yEaMKiZuPYkyKj2bG5KmsvB+qULcdWC+ecVzV5qgHDy5EncvWmruCXSLp1sobglcixFVpRVb5BhMcJPrS/SFWsOBQIjskoPk6JhrDi8fx+G3AgL5s2WNKIyLwo6zEiaFGGCG5Yuxry5cy1AyLnyJ9IB1YoUx3nTJtIbdD6A0N8/gD/725/goe07Ua6VUSvT34B5c0e1BlKl4Elw5tfc7KUDnlQrqAGNWhyYenBzkhBndqFttRZBXFZJ10rjGi0Hk2DL70klA79WexXZ3CXloMFCDmn0rjdlUSbFaSKzqbKlgFF+PqIKl5oGE5tF7CQ6BaYkWOnAPAMFjIATqxCqYbzj5Trjs9Bg4CeASOpoJSsQA8sWzcPMqR2oVssS2I8ePYZ//+ffw5z589E+ZRLKlbKyLhzLUiR1+dLpjza9ZDXqDaRdJ/HN227D6dOnh2dQX38f7nzkcXQTZvmROPeJ056bInRdbFy6ABuuXZczTJyf+ZjIDMKJE5/iwSe34I0DnQjJGnDsOYbGE8B3E6lO4Dzi+AgoNYAhS1cRl8oJV+apER6a+SqmWzIfTYOlrHJh2LxH9Qt64DeNxOQbFMRqOV9WfidzisxVHKNRH4Trh5oakhO0CmgJPqVoz6TIyC2sWzwfVy9ZfE7m4PNgEDj373jwcZxIGAfIhDGtwHmo4y9C5IwdMJ0sdWvPVMW6VjNzJNVxCHmjzagQ48lNT+Eb3/626ZBpFJuZdoFGSwndE2Nh9L55001nFdlaBmFsOJhI+48FCJcxQKDm4H/7v/8aW9/5BGVS47USqqVQNAeRnyL0XaHJ/ZAe9nSl8+UUIfSuqS13vUCVyuZkluVoeerlyU62eAngnlC8GjjMKUNyuqZXvDgnKjigE5t0eJPTWdb5MYvWelqRU5sRhQ07LkofWUkxI84c7AxpwKDOtANrs+W0YsRiBApMN0jlQ5pIrplVD7xHQzCEBirBGXGKPfuOYuvWd1DygPkzO/Ctm1Zi4w3X4MjRY/j+PQ9h7txZ6Jis4KFajlCpVCQtI42qTN45aTTQ6O7CL33lq+Z0qZPoic3PYteJLm0I5JeMy5+Cp5rv4Jc3rMf8+fOveICwa+cu/JefPoJBv4KS78MLKYpzxPyIgFKrFYyoVUrtDAPlspwx0TJGggUxR9ITrFYmmI0+y59LqkqZr8wCXMCr6OVMWoyXSPWMSQ/INGQazcwJ2fhi1BuxPK/ECZDUG2jUBxBFZfE1yLgwETWSUYOD1fNmY82K5bnfy0vJIOzetQuPvbULpWpVKhYC2qaLBoZMDF8jy5I1RagVSkZ/QBbOjLOkAofLRdUPgldxyD/ctRtRtYr58+aqYZIRh2ZOJwLmuYbjFNfMm40VS5acdZwsQLAAIdcimogUaa4nfhZ9AwPCwYMHJV/OVsc8ab7/3g5s3HiTbCpnM8jp7uqSjaWlRdsjn41B6Ozqwr/5T3+P1/cckD4KUSVEaylCmRqDMBV/9ShQ9zlViqvugDl1DbhqNEPmQGvIjQ2txAw9QUjaQSoQRmrJFR/oZi+UMOsc5X+jHO6kNE3LGjOBYpZY0FIzw0ZK0FHOIKM2s6SEcAmmMx4VTxQ9iYtCyvp3tbtV8RQFCkpxklRomBJJqYQwJz+ON/+tnx0cO9mD11/fif0fHZfyydCLMbm9Fb0DPZjcHmDenA5MnjIJHZNaxdgoKrF2nMzBEJx6HVfNm4s1K1ehXKmA9sB8vPfe+3jm5zvRoG6BVSEUd0lZHE/KLqZFHn79G7cOaxfyzK0iwXMirJ/BgQHc+8hT2Pr2XsR+SVoaCyggOJAqGYJNo3nhnBv2LND5onNRFfWcg0w1UICSqe1FLmeMejLqO0s5CDDQXJcKHE0tnnE30EZBxvdAQKtoEHTeJPEQHJdiUm/YJInrtn9gQO4ZlZhj1xSTCBIXzsPcGdPR3t6e522Uay4VQOjp6cXf3fco3LZJiORgwDEdqVrIShn5SrRlM4E9wb+yB7Fh/oatks/wPVEW4sPdu3Hk2KeYMWMK5s2ehbBcViGzdLjUdcfx5j1vu279OVu9F5njVoMw/nQ7H8s8+rdsFcNZlmyRQbwQFA8Dz+nubrAp0tDgIE52duK1N97EqePHUGutYfrUyYiiigjWWlu4CdG4qIo//ff/J/7nf/W/YN78BeMCBG58+z7+BP/uL+7C7kOfIip7qNW0QqHCMkbPRSmkroBgQB3pmAtnKaOCAwhYUJtZze0On86YZ6eJjFGAq77A1I5npwzhGo3ymc9QLOxHaswlXylBmtRspk8w+c6susD0hjf8rzGoMUVRJtUw8jP9I+wGZygHRRdSCqn/CbNAcCCgQsshpSzSgAIKGPkF7yD/Tih+TLD/46PYs/cwjhw5ie7OLjQGexH5wNJl0zF5ShuqpUhMjGqtLahVy1JKObOtAzddux6VSlnGkQGO4O+OJzaj1zGiT+lhQXrclHd6LtbPmoYbr10nHgd5H0WC5+cNED76aD9+9vAz2HWiRzQbQcRTqzm9Gk2Lmh85cAJNUQ2nEkw9PtMx0k7cgAePdTNMRZjUVOZrkPkYiseBmZ+qKtCyRjVTMoY+puxOzZJNAsv4HlDwmsYNIK7Dj8pqxCRMlH4QTLJMcLBRl34lvudj1fy5mDdrpmyIRWLKpQAI/BsPb9qM/f2xxJOSVClpJ8vMdTLr1Mix5OtVu3Qt3zRyIsSsapITgDIMWtxIcOfg5JHDONF1GlcvuwqdRw9i+7Zt+NZ3f81oMNQ5URyvkwTzJ7XixmvXn3O6F5njFiB8DgChu7vbJIHPH7YYEMWQJOeD9fh5HwxwFIflfRS5N+/J8rS8j4GBATXmyfkocm8iuGPHjuHosaNS997TcxpDrIPv74EPH4P9Q+joaMG6ddeira19OAhxwzt85Dg2b9mKu556E4OJh7AaoVRy0FKN0BIyheCJGIkiJDZbYkATBb34IPEUF5gcJAMAT3BKO0owlY1d2QLRF0i20ZGubkIj8uRmyps01Wga4GiPm2G1uAADVSKod7sJ4NnvCONgUhCiAtd6SRWGaYZ4lLxR76Xk8Ij5iugPCBCMEyOd8KTDnqQjGNhN2kFObswfGxEV3RmlE1+KRmNQ7XZdD404wZGDx7D/wBG89/P3ceOGq7Bm/Up4ro+0UYeTxJJyGIKLTw51Sari472HsHjONCxeMB09g704XlezInWlG/G15xgGvodvrl2BubNnXXHrp1Fv4MWXXsFPnnwZcVhBEAVSE+8Ke+UhdBWUiq+Bse4Vx0NTraCbvJojCXsgKQVjayQliobBNpS3WCebuaCNg1h2ZxgDo5PjFNO2zTqnhmVzRvQqWhfx1UiEGRJJrUMJbDYLM6CgRJWktOoDWLtkERbMnTccFYqse8YTxpW8D6a2MqbufL/D58dKkbfefhdP/Hy3AFpWikhprYy7+nlwAYvngQCurHmVajuYQpC1N2wqpfNY9Qe6RTAt+eTjT+Cmr3wF5SiQ3gq9p7vR2jHFCJK1ZFkasKXAV9etwaTzsCxF4rjdf8afCUXmIQEvxcN5H06q8tNcD9tsZvxhKoKCP+vUJw2LKI5KKJBqoLu7C0eOHsW+fftw+OgxaVnrVms40VXHo4+/Kv0OXN9Fuaq9FMgaVCuRAAOKENm5jhu/CBG5uMkcmDIyMaQhS0DBkjACDJAawEWQZNTMoLmPESdqnM262ikzwP2ZLIPQrsJA8Bp1txPdotCW6qGfAQMJ1NQrZK51w8pHdWGU4qnM3z1lbbpWN2TKBYKJLGASCFBtrqFNukGpJa6UO6pNrFQ9iG5B/62axgScw4P1ulZmkFEYHJDf46YTuynqgw10nzqBeQvmoL21RSpABnt74AYRPjl2Cv11FWae7q3jsUe3YcH8qdh40wqh033Xp6+eijSlNS5fVYqy5+Of3nazMBAEiHkfE+2E+tnn3dXZhb/9yQM41MfiGTb9oqdBKO87mRgyVNz4KUKUdIHMMdMdVLwMVD9AIaJU0rDsLiudHQUyOVeFqTKbuepiMt0B31jThtzoBXSeKN3NCSlzR9Gn2oE3YgWpBM9yQtZqBuWk1OxLRIu8X6JluRtWLsPCzyjxi6z7i83w8HX82Y/vAlraRJgoHTCz8mWKjekiwfWtVIuCAQELRjeEEYMz6XopLoqKmUzyBl5al6ZaJ093Y/rkdixcsABRqSzmZRynLE7w7lUnxca1685b3VFkjtv958LvP+eLRRYgjDNCE8Xrnzndj/Z9jL37P8F/+v79GERFFMS1ViqTQ1Qisi50R2QZE/3+yRjoKUE0BwwMBhRkKYYsrSBxgU6H0gCHucVMeyhHOBUZZhUFRp2s/gU8JZgCBPWqVUBgtAsqGstqqsk6qEZBbRMYkLUbg+QszdhLLlSVZcpSCGGg5kwanhSmZH0csktEzGgaP2WKdOPBqN315EKeaIxoKo0xNKCWxrIhsIOkMEWsdIjlOSaNupyU+BGGNDjyMDjYLyWWQ7GHQTo5Mg2Spvjgg/2YNKmG6TOmihENwZaAoizlwvciiTE4UJcWwuVSiErgobVaQXu1Ip9bJHVRGrfFdZHgeSko7NFLZdvLb+LR7W+jK2VKi1oDVinoeHGXl09ZB1A9iI5oXTJWyZQ0EkBIKoxsQ/aeG/ZJ33lTXivjaspxzfzgrFHtgfHRkNmiwExnj6amZPsyZbEyn4R2lxyD6vKN9bf2C8n+KsFLig0rV2L+nNljIsVEAQici/c88iQODqSIypF4S8jhgKZIkj9Q70OxPierMAywWAnigh1atQJJWUQRDZvUQyYNJWh66IEHceu3v4VapYyP3v05ugbquH7D9UY0rFbpDbJ09TrWzJ+FObPHL20cPZBF5rgFCBYgnA/QDP+8yMTiLxVZzBMFIPB5Hz58GPc9+gzufuplJLRFDozHAX0OygFKAdvheigxvcB/c2GP6sQoQkQ5yakuQalcPeVq0xoGDQaPTCjGzVzV5rIlCxrIqhXknG1OZkZYKNoAZXPFDVHSB0prKguhDIMEKONwR3tbDTwjeU9Jb4iA0TSLGXFLMIDBFQFVVqamf1NtmiXOi/4gQSPzxBME4CBOeVpkJUMiWhAVaErdpYoapZRCdwfVPWqFREyHRkmpaoUH/zZzq9QwEFNIKoMbS2MIfsS+FpEIEwnMGGBZe873gi6MJztP49NT3SKAExtrR90gKYdgjr3sBpImaq1U0FbjR1U+pkzukDJLNnmS+w7X7Y1dJpcKIJzq7MKDT2/D6x8elrx9KTQls3RElD4e0ptZS2ENUJQ0ltEL0Ktg2B2RAkRzshUwK0xXllMw/T9kXmkZK/9jykwbMml6StT4SlsNQ0npEGoaDlEHI90ZRbain/lcOMeVzRrRHSiqJJugaoXIc3Hdsquw8CyVJ0ViykVjENIUb7z1Nra8/5FUFqgJWlYFoi3bVUeUpW00vSPjoLSMsDGyQg2DJwLbLKWnPa3ReewoPtx/GNddt1YFzY0G4iw1JIuRa4ZrKkbFc3Dz2nW5UiRF4rgFCBYgWIAwagQY9P/o//h/8dq+kygFiWgJWPfP+vyKl6JCWjtwUI5KGoAZGFSFqGWM0lPBKMOlQUsmWjJ9FyQ9oMZIkpWU04OmDoYLDcympGcqpW1H6suzTV1PaqRkR+oRDHAwwWjYgdFoHSTAp5pj1lxylkAeyR0zeCmGUP0BLXF5zPcSbasrXovGKIF/TQ1t9PsMdnVJHWjXP5Y/Dg30ohyVjSkOzZcy2Zo2hRKjJdNNUnCDfqWe/SYTx2tY460/V+mbgqOsXE+DJf3+VfwJSSv09jfkPRESRjrlaSMc/jwcGkCDFRJBhH43MFUaJGvU86ES+JhMYWtHB2ZN68DkyR1ob2tBQE2JOWlz8yuSzy0SmDklqZfZ8+HH+Jt7NiEOa3B8B2WWzorBkaaP1LOAm5OKYFPXtPkW0aZqDDSNpSwTT+ecn3SXEC0AjXxGWf/KJpYA/UOD6O3rkxQNQTDvz4EjWJAWACa1JV4bTIEZ0Mo0guJDAsWG/B5HXHPww1hQgKWSVgoyCSz5Wq6/etlZwUHRQ8fFAgjHT5zAD+59HOWpk0UXQL8DjjMraWRpm1ThCEhQPYj2j9B5K5UlZBMJpNjanQxbpsjwHGn/vunxJ3HLN76B0JijKVg1VKIxn6o3KEyOsXByO5YtPntpo2UQzr3NTaQDqk0xjPNeTZQ36IFNL+Bv73tWTH4YE9kLwQnobeChwg6BzO0ilg5ptFGWDUfKxJQxkEBsxF+ZCY0GdAZsvZZ5cy1WUB5YxEoSVMzpniCCpzejaNZdWcvPspJEESJmhK7kgQ1dKQc7nuBMnxcxS2IQ4glQUwrD5Z6y0Wm+VzZmeQ7KRqSJnoA0n6zMAVMSI6kGNbOR7dwo0YUIMFfwOuo8UB+CH0Tq1GjMlPTkxHOjkTIYkCCsRGaxK4ZMpizMtAAe7heh7k7yl8STQRwgjZ206UJJpTwBira21twvrw+cFD37D+KDl19C6PsoT52CBTfeiCFeOyzuJPuhbpZSi54MsUOAvA0UokaOK26ZHS1VtFfLmNRaRXtbG2q1Kqj6PtujCEDg6/nzH96FN/cdRewHks6S+nrBotrmW/oikDwgWyXug4noCqRb4KfHUG4M4HQjRuu8RXIP6mgUNPB32XhJBbEcGJmjZtPn86frJ63CmQYaHBxQ6pyMDf9OQ102Jb9uBK8yQ7JKGVp0x7GwauQbxATY7G0CXwz4E02NKYsljPjSNddg7uyxaYXR4/l5Mwhxo4Ef3/MQTqa+ljqbtKLnsSmTpumyagUxfBKGz5gg6Y9FzCndHGXtKaDImjIJhnccHN3/MT4+dAQbN24w/RsUiGdVHwK24kTEvqwomttSxsqVYxszjTcXi8xDyyBYBsEyCKNG4N7HNuOOp1+WTY98tHio+6SvXZQ8PS1IQJYUAQMyOwYacMB1zlOEpBG0Bl3TCep7oB3vDIgY1g0wqmhrZs3ratZfz9mkIvU0nwnEZfM2oi495CtQYF5TWQbVD2T146bqUV+hmDCpUpqbvWx+pJJNFQV3WtcxWzmZBqMyy2CJbAJSdaGbcWZ8Y6DJcGc+CV5IMdjfj0q5MixGEyMdQRsmRy3AJNvcFVrIuZKbvnw/e+VacinGO4pCFBpJRkPvKb9tjqhaVcGqiYZoHpJE+wDwP+Z1mf9tDDExQsTgoS53Mz0ChQGJUR+so3vXHkz/6ABCL8EnZA+uWYtKe5thVzRH39vbj6/duA4d1Qg9p0/j7ff2YKi/G9M62jFj6kxMamsR5oFltdOmTcu11j7efxC3P7gZO090S5msNPiSzZ1zLSslNP0QWL0gclWCF7JZKSInwSevvQ6vqxv9no/5GzbAbZ9kABAEGClI0KoUSU3IpNNOjQQP+jalIr5jCoIbIxkFdnCk/kH6dzQUTCpTpTNUwSTXDVNEZg7xvTPaFKl2kdSUvn8UvpI5WLtkKZadw9wnG7jPGyA898J2vLL3AEotNfU84FgaBkGMkYyxkeg/TJpBtRomaygAwGh/jNg42/iz9csU0qYnnsL1X7oZtUrJSEcTo9/QNc41Uqf2gA2auk4i7O/DN//Rd3PNLwsQxg7TRDmgalyzVQxj3qGJ8gbRR+FP//wHONiv5iNO2tByMVOyGJl8LFMKkZQzqRiL7EEaDwgFrSpyY4zkaZ2+ygMYJtRAZSR46HWameVFsclLGkLS5B2yn6tbolY4SMwV+lySFeo4ZyoT1TRJOV3Slwo6DLhgcJc+B7rZyGeTw5AExnDzedUGZOkNpTh5Uh2xw9WdmrhG+QwFB8o4DA0NIopK4rKYCa8U/pjdPaMjsl90aaCTaRuUSs2Ya3kdso9nLnL6hzI4JBbQ2eswAEE2I95D1N5MeWhXwJh9JsSbASLwUvCgzauk06VUYDioHzuGllPd8Ms+OisVeFNmih7FTRuQE6PvS3XG1QtnY2pbFfuPHMP2197FkaMfY8Xiuai1zkB/4svzLPsepk5qxZS2NhFJTp/WgUmtrWKuxWoM0tMDA4N4dttruHvL60hoeuQDEVMHPJqahj8BFR+iM9DmS3wDffm3A2f/brTsPQDPbaCnrRXJinUot7VK3lqtMpQVCQMFk5IXFwGinmblPTIbPp+zOllqK+cgVGBLIyMKeQl4KdqlIZC834YN0Codgkhf8+xS/mqcOI1mZZj+SROh0lcvWoQlS5bkyp9fKICQheDRGpPz3Xvfxx/j3s0vIqi2oGTaOLOpmIyT6XI5YnaUjbmuMQHxAtJVoCwrSQUj6ithjgGMJ0c+2Y+jfClDMgAAIABJREFUp05jzdpVJk4YozNN5MmYsp0z06Ec7869u+APDuK7/+x3z2oGNzrgWoBgAUIuJHmpRFZ5nsxEAQh8rh/s/gD/5t/9B0y9agVi4WBNTTPpZZcnMAbmQNaqeq2TQWCpmW4udCD03RgOzWAC9hTQfLFsjg59EQRSDOeHuUFpkNZ8P5XecnY2WjDNZap4L7NWznZtQxpoHRXFjAIWjFmSofLJLqinglKeukFTv2CqJph3l4CVMQQmXyqRX0HCCFsxLHUcTnfwGhO65JROdoEaBNojB2FJVOv6WxQ9Zj0jVMsgTZ4ybwWhXk2aIWtEM1omYURzoo2QlIC+FnWqz06wWvGR+UprjwiyBpneQV+O8gd6rZj00LuBYC8hQNMqjLRBgMFUhaIgYXnShvho3HLj9ZgzbYq8b09u3YbDx46IWr1t0jR5EWpHrfoH4XmMmr2vrx/HT3VhxVWLUK8Poj5Ql+dPbUFP7xBODTQEdEhZoND4WjpHXiPw+TbyxG02X5OS0u6gLuJjx+Hu2YfW0EHX5BqChVdJSRw3c+I3tnkW1kgqGRR0EFiK86Qps0uNW49aAWtprcBL6aWQSgqF85/GZtRf0BCoVKnK3xjq70OlWkUsIHiE6SFnIL5ZWU8G+cyMWR0brr4aCxcuyhMi5JpzbeLc9Lu7usVpc6jekA6R1LwMDg5hcKiOgaEhDNXrIpzt7xuQFEhHaw2zZ03DvDlzReR6NlEqqfa/vP1ONMqtqFbYY0XbtqvGSM3PJL1gypPF+GjU1zqdtSxZU3wKzzPHStEtpImkkO6+8x5867vfRbWkz0fAvUn1KbeYAYQGvME+HN/5Lvr7h/DLv/4bmDnHVjH8ImzTRNp/LIMwTjiYSG8Qg9An+/fjj/7oj1GbOg3TFy5BUGoR9K+lYQwKFCVqOZOyAwzSnuQX1ePAuNNJXpdLnCdVFc0xoFD9yN+RzcNQ7npwN62ezcZozttGMW6U44ZF4KahbWHl2K3PY7jYjKwFv6/e+ULm8+8Zd0QpODBMgXTlk3CllDE3OMmfGtreVKrrMUgO9uakKSf/kaoIhTX6GBzqRykMzSae2b5kraop0lJJBSsapBTMsAhZC2Bu0KJ8HwYKyo6Iy7M8jYwe19esoIHsgm7GmpLI+kdk1fb6/DWBoayLiuXM17KhG0CUsRCGcYjrA6a8kzeIMaOjBbOnTcGhE6fw/gf78OGeHbhm1XKUK5PQl0ZqWS1oR8V43IDZPIlTgyZdom9xgKE6TaQU1InPRJyiPtCHtLdXvQGqbYhdUvqaCuL3+HvyOk1jL9WgZqWuLKFLtMxO/AbYQlnBKH9P+39pfwC+j2LZnVXAmCoI5XsUGGj5aAaPjL23mypL5jg43dODgf5++ZpCziFOOdMaVIGqsjJZ50+Rs6ZA8P+z9x7wltblueizetu9zJ69pxfq0AREREQBAQugwWisSTxGgxpNNRpPTu495x6T3Jxzk5NmyrHEEBuCqEQTFBCiiCB1RphhmN7b7nv1dn/P877/tUdmD+yVQ87RsFaCM7PLWt/6vm/93/f/vE+pV3HeqacqcfBf43TJ8dHk1BSOTU5g78FDeGLz0yg34ijWeV4syprnRAoOJwXznRi6EbJJ7Dzws8nzxPh1yglzmQyG+nuUSEoSYq1axYOPbsLu2TLSuYyaA7qnEtmRxDZwjpyE2EIDHBlUFHtoxgX/eJJryEdx50QeydFDB3BktoANp5+i6xV6dEP1XO1D11LdNHXM7noapfGjKFUbOPfsDXjJFa9+zmargyB0EITnvEn4Ax0EYeHTFHYpDz3wIP7T7/4n1CINjKxYiVWnnImeoSWIJ5KteGZZqnIxFkvZdl1cF7VAyf7YZv5kjxtj2x3mI0C1VpOWXQXXuwpNhL0QaCquqm/WieZ9YDuVsCPx4YI3CD5fULGx3XWIh9byEoiQnpCntVtF2JALzaTtt0RstNpvhfY4FoTCZayoG+xvxd12qcaoMCkiF1db0+bHJfbzpvk2PoUhCfNlOrxiGLtY0Q8UAyMy2m7UmiMfj7jiwfyb7Igd1LWmwBsZkRm9+Nke3ccwlhtoO2WfpWuvFkYXTWrNK2jULaeAc2SeT2EjQiyq+l16NnA84T5S/roaAOG6y1+K7nQa9z++EXsOT7h005AJNirkS8xNTKL00MM48+BRFLoT2LZkFKMvfZlxWeIJ3QOy7BYKYjtzIksWJ2zRwqk4I7LnkOLOvjUHJ5mRt6m7+el+8vhwHx3ZAKyBJscGTlh0NZ5f4zDa4nusebBTRFyTarUqJKE7l0OhWFHqoz0CSmNIDv9LoYFTl43p3PCzlEilTQJIJYDUADHJTDOZrIK7+HU+/5Fj49i17wCOTE5htliQHfP+Awfx8ONbMLZsOVK5LqQSScQSbMI9OVVSTrVonoPizZXuQ5OCNmj97CMSG7MEFxALI9OAyukvggcjVBlYvgVzFwxJMBWGfXZ8/OVE5NZnViZJTlz0dSEocSx/qYZbv/p1vOa669CdTto5n1eUWpvG+0SS4CaitTImNj+OUr4gcmpPLo3XvvWXkHgWoiyf8n+lQSAXhY34yV6jnefu1J+F608HQfgpQBDCIX7+ps/hE3/1CUHnrDHDY8twyoazMLx8BdKcS8eTiBHydZ24PBAIbDqcqEIo8pItSC5c8KjbqhUoQby2oGkR0KJg9sghDtY4BlzAbdXgsmUQsO+yvVhy52wui1aI6+7OJs6lVhszb7Flz4ux+AgRwfBNkiR1ADa/N+6Z4Qt2rOZPIHlW4BtIcREWVR5bQ/HM2QwbBD6Ph0/5TjQ0IbbDDJHUzjfgQuzOTS2SYoAlWmxJ+9kw2+W7MIzAm5WQRumwhHELjm9GzMXRJgeeXxGmEqG1CAgCd8ShStrW2F/FGiu+pskxiYQ0pIaQSyTJY3TqdCJeMgasGRnQPbTz0DFUa1GpNHTcHGlUqyY/pa9DrYrm1CQaiRgiXT2CwoU4OalN1y6gJHV752xVyuUaYqm0iIqNUhFIs0EwxICKBUkhPSHTbL7d7tvfUggT0nUh4hAaKG/QgpTVSIa8N+uoVKrIZTPiSxDWz2RyYBw69+Q2mbCmWHcQC0ujhnPWr9NO/uGnnkIzkTIkw7kOQrFo6V2rolauKpmyp6cX3310M47NVBBJJszd0d0hxasg/4cNroicQDQZQ4xhaVGmplqFVWCSo3WShjoCw2tkrp72edHnxpUvPtfTc9P7g6RcSm4VZ65cErtpggqJQW3me8I/aeLOz7U1JvpZpbAaKmOuByKC2MoQaeLAnl04NJ3Hi849x0YWGglag9XiHImGQ3JiE+WjB1Het1MNWVc2grlSBD/zznejt79/4crjX22niB+vYqAy5YG77kD/kiU4/bwLF3yNdp670yCcpEGYnp4+np71rBeT0cHtZDFwNrjYBzvfduA9zhwXy6/kB7Adv2rq1tvJYuBIYrEPemFzB7LYx/HPzW75f/x/f4LPfPazNvtzgx9+tnv6+7H+1NOx7vQN6Fu6lMQDNGq2cw3mQNql+KJsTmlO8Auxro4WKCa5WpLmXFs9L0RcfGREpBXWIGYDf30vrshFY6GTLqHGwoF+XitprD1Vz3ZGhizYDjH8K+xUDG616uPjgKA68B06YXCaPbXcE5tNlEpFpNPmYy9fg0YN9VoVXd09kmLxodQ5L/QmydRBWHHzQClrjKwB0aJIyJ1xwJr9Wxx1KM9yifRRiLVePuf2ImqLdziNzumQBbQR6mTmoybDzmQY0YSCb1HXJjU1jb/NQcJwwo7DFRQ+RtA79RFIGC2EICsZQbVQDiN6Mq8imEcpzlq8BZMEkg0vRMajmYlUELmoEUL3FlElulrB9Zdfgmwqjqe2bsX9m55GX3cWuXgT042k5K5ixgRup+B1Fi3yG2JS55jRT8ycAAMLX7XP8z0cixF6o4LKZ+Qu0s29dG1tBJRMxlGrVVGshmtsklHeV/FaBS8//0KMjY3qwnz0o7+FWiyJcy+4EN39fXZ+69y118yuu15ClE6ZbtdcrQE79xxEM5HBXKnWUsTwuCNEDEim5Gct7uM++kQEH4yQISEUzkZJXP/KhQKSyZShC7p+1qDoXnPfDzYXarDrorIKoVKTIM4Kr6XbHtMlVA2EG6A5hySdiiHOdTzJ8DaSW+28CrTwcQfHFt/8xjfxymuuMWdMv9eFAAXlB3+LzQG7lVoF41t/hPrcDBJRNknAxBzw2p95I84677xnXeraqRHH159NDz2AH9z9bQwNj+ANv/hLC/I12nnuTv05SYMwNTW16Aahk6a18Elsp1NtN27zmc/NwJc/+v0/xBe/fPP8XNvn19p9sNHqzmFweBijY8swtnIlBkaWIpMjeUv7CDdE8qXd/dm5UHMhku99C6o3BzuLxa2jXqmK5R64CfIL8mJrv+XyPJV+Jzq2thss9kkbEQiQIHw8HwAluF1FuYFGJC5GP8NmbD9sxY8FKB7nGMR+jil8dH2zkYAVK9Y9Me3Vwzgnw7HRoCSwGmwrountWXxt8XPyhJsrhn1cqNo8Me7AR9KCN0DB3MeaDcoYPe7aJjBu6BTY38Zz0Bw/qDk0oTC/CKcwePF3bMVleObPZMTLoKgQrK8GhTwIFn5/H3oua2gC8GJNZeBC+Iv5iETNpqdmCgUJmRm+4279njIu7JypyXDORr1hhNbTVwyjJ53Ejv2HcGyqgEcffgiJ8iz6l63CitPORE1kS5cyavdvngl878HLwugIEckpjWdDO+e44P7AdVDrSw4E6kjEIqjxWjSEFcj4h/eWOQPSMMt2wHwR7nhj1TIuf8lFWDY21vpA7965A//hXb+g0UF3Xy+GlizB8JIl+hwNDA2gt68fXd1ZJDk2iJMvEsWWrU/hzA3noFRpIF8sYjZfRqnC5srGdDpeZkxEiSB4SJIjBmZwNd8MuozFCMZek9mgoMGRg7ozQ0AC58Z5LWwU+KAqJjSAUsI0GpZFonAynh+/7mTAOtLERoR9VTqVkg24Ap4SMRzYvRtHpqZx/oUXIKFNhPNAjhud6ePD5qXRRHX6GIq7nka+UERPNo7ZQg1zFeC0M87Em9/5zmdtEJ5LrXH8Lx9ff77wyb/CxJEjCvh75wd+FcnUiUF/7Tz3v5WRVTj+dmrE85EmfLKT3m79iXQahBNP5U/SBVroxuJC8Hu/+3u45Su3zBPn3JzG5o5uTeuyQM5jlywdwfKVK7Bk2TIMDC5BtqcbiWQWUUqjjNnoGv7QHRjMb+Q8axm4uBqka8WFkJ+UE3HK52yeTkfAqKRrJkXTDsPZ1ISmuWCXy1Vp2o3EZ5BnvV41m151GlHtfLQbc7Kj4Zpu2KQCbIW2Lq8GRyqCh4KPMMw+OrgtcsfFl4zaztDNdWxHzkXQHBNtZ+6EvuOMG4IawzjfzqZ3mkUIaFI7EYuiUioKuUinc7b7k4eCowSuklCh93FJa4vmoxFrlgyOllOkF+kAfxtKE0YZVmTZIBAwMhmlw9Y2bPgxwyjxTgRJ03/C/DUEH7c4DzaicWKJzmxV1Ts4DxpMz//R/Fl/2j0iqF/HTDtqvl/zk/7B3Xcjk8uif+kYVqxe0wrmCkXexiPWSQWJovFZI0jFE5aZwS17yOdQ1ghdFBvIcZ4QMUUE1QrBWbLOWXxQbHC2766UzVoZV1xwAZYvYIL07Tv+Gb/2679qCB936C5npXwwkUhhYLBP5lQyakow6nsW/UPDSMaTiKd5DMYDGVu5BstPOxOIJS2XImrOkhz1iRDLZsHbWguDYkFvynwqEvMGXARS88rQZ9BHcLoUblXeIr6SKMg72q89zznJp3wPOne8NygJ0bWioqehEQyb8GgjohRY3muZdAzNuSls2bQJp597Dk7bcLY3bsFjwq+9K0CqdaJBVczt2Ybq+FFU6w2kY3Ucm2PDF1Hxfv9v/CZyz4KwtlPEQ4Ow4+mn8I0vfwHVWkONwbs+8EHkurpPWMjbee5Og9BBEJ61kz3+mz/pDUI41r/5xF/jL/7yL1GtV+eLuyBcsQ89XMCjcB0XUPHgwptOo6evDwNLlmB0xXKMji7FwNCwIQ1xmt/anDRUJxUFGs44d0Fl3AuFJHmyarVUPBayRq3uVsNOLPQAI1m7Ogxvpdl+3nl+RnoMvvFCLuZdFQNxj1bHZoZjD5vhGwHMyyOaLBZ1ohXsIjyPwY9LNkXMWPCirXjaMPdt1hVZbDxCNhiGRpiiwBol/a8IYqa5EMzd5Fw+irvv+Cfc80//iNe/9a3Yu2MXbnjrm1GPpN2J0me9WmCD2sMcI2nk05pCuBY9MMN8Ym1NmpsAiZgZWJKu9qi5+ZKIkGKjG9Lgl6l1LQNyofelImjSQqEBToTk18VcVxPgpFKNOvjcTrx0ciKvC8c2+lnLRxYsz+NRAZwXUMgwKthTC51yJCY0nWZFTXCohjPPXI/1y4aQS8TxrX/5AWbLNtqxfoX/VzMfCUlH6xpTKAeDRTkZV7ppirwcEnd5jUpzuOLiixdsDngu2PD+/Wc+jf/x53+un6/Va4Ly1bDFYli7dhWy6RR27d4jqWKFaIGSIbkLT/p7NVnpKWdtwDVvfAvKERL8DAnhDRpzB1LeW1LHNEzkyoRVjiR07yv1lL4YdNMIqaj+aTSOsDdxZtutPBLZj9tnXuiByLHWDLBBqAthMEkuG7tKuSbOBuWz5UYdvbkkdm15HN/952/h4N7d4qxc8brX4hd++UY7r9ap2/FojMEmpIF6KY+5bU+iNFdAVzaKQqGOmao1qLyWb33nL2D9qaeddO1tp4izQeCY4ZN/+eeYnhhX859MZfCu930AvQvESrfz3J0GodMg/LtrELgQbN3yFH7tgx/Cjr17HaY2uNb2jrbLNOayzTG5mMfof+Cz0gAf8ltUO8RTKaQyaXR39aBvoF9Q69DQMHoHB5HryiGRyiBCbgKhYV9sgmWtV1Kn3NkOOKQduOeekwznC624CR7TG2b70mcb8GDjBC1Khl5YQXYVhaB2/ixTjwjBuneBoyGSjfH3tFgC1VK+JemsV8sy15HKgbs3Ry9IftIYw5MaQoPQym3Qjs5GHISxHXWVy+Ctn/8iHrznLrz7Vz+I1aefiZv+5tOYmziID/3u74G7LSE74jC0LJpau3vXnDhJzqOMXXd+vDMlj9cSBQxiFwqj/2I2k1ed93andW7l23gc2mQfBe81fJzgzUuwppAC0OYXRooN/AiDWVrtmUPbZvvkiZstMqBzG4QOGBROuFvmOr6bjarAW5HTPeUpo7xifbkE1i4dQLlUxs6DkyhYTxWgDEPeyREoFRApl9GMxdHIZlGj8kE/aMcUl31zBAO5DNYtW4rhvl4MDvTJkpq8p+A3wAaBvgXv++X34onNm60Yqkmy+GfVSOfrkMvDn9er1Juo1KpK5bT70z5r2e5uvP7t70TPyHJrin28wNNhc3/L2iDqQKXEPMpk/Bu3n2glq4Z5jhVrC1+y8Z+jNyHaXFwPI6CIJcRpnNwOrdlRcFm1jmq1jlKlChpe3XX7rdj6+GOYm5nxBthO89IVy/GR3/8v6O8bdE6RNZF8Ll7H/IGdKB8+oKyRgVwEh2dqej8hTv1ll12Gy6+65nlrEHZu346v3/xFxKLGPyIB9Bdu/BX0DQye8BqdBuHE094ZMZzkVvxpnQEt5rip/b755i/js5/9e+zZu8cXFN/9O4FQcCnJUC6bs9Q9S8UTOY4Ln0PTBoNykXXNPj+IsRhSqaSCogjndfX0oLuvT517D+17+/qRyWZlRmSjAu6kbAcaIHLfgNii6sXPdudca4Kxi48RbJny5sDti7UXmydGajyg9EjjQtjIwj0JHKkIVrp6J7Wq8wxsR8kF3hz96MLHV7PqRFmarfHBlcEarkALNEKllc8wSK5VG/j4Rz+CV7zqVcgODaEwNYHlK1bjk3/yJ/jgb/8aVqzf4AmQXmBVvI3f0crD5r9Ezgt+AIFb4WQGlwWKK3Gc2NOxeWsIQ9iRDs7KuIq7egZ3gGzxNayVMO5BsE2e/wDpVZxjYAXdrpWugI9mDD3wdsEbA/pv8H0Izg6kVm+Kqvq3FTYhCIIn6ka4k6mVkVI1DgoFVD/mctZIXbvjIAGtz87g4MZHEKMZUTKJFRe8GNF0SsWYv8Oni1H2WSygUa0DnFWnkrp+nK+TrDd+eAr1ShNLRvoxNtiLUrGA3//4f0GjVtbvi4/hRD2D948z2JI8M6L0z0q5iq4cCbIm3eHZ5g73Ja94Jc648CWC3Tl2EynX2zh+HmuNGpLJtNlKu3GRhj5S3TjK5le8JRV1pVC4vtYQ2OeE/B5TpLivSWscZHReeinIAIvxJPU6Dm99Enfe/hXs3LZDSEl46HPVaGLl+nX4nY9/3Mi/PL5GHVX25LUKJp7aiPLMHCKxpsZcU0UjKDNlk03CilUr8c5feu/z0iBwnfv8Zz6NanEOcd5kkag4Ie947wfQNzjUaRBOepbnv9FpEF6ADUJ4y5MTE/ji5z6Hr339duzZvw9Vn9ua9M7KhZIE+Sd3v3LGI1fApVMuWQsuhlwrrPDaKwT6YqvQhwaARTrOyOM0unq60DfQh6HBIfT2D6Crt087Ke7UYomUJFfa7bcWSRfGOQ5uxq+hMXH/hGA05LIsY9dbtQqNRguFMKsmk3AqhMlHAMxjKBSEGgQ548Sxo+jqyiIeJzHMduCaD8cS5qtAyah2/W6gpF5HYn9n+PNYzRRoz94D2PHERlx17XWoxxL4+pe/jPz0JGLRJJLRCn7m7e+yHaGbHwnbcWDHYH6bEas5C42RvCC8SWLDFUyE3C46oCtSQMgUyyScgfGv6+RjEZHUQp8RkInQFHgT6eJTQzEkqbRdpJ3q+UbPECPmedjOv/V9vhxHN7yffKNvfBj7B4/HRgQmtbXm0cYQVtLsCERUVWE2fomcqEnAJewu/gSvKYtURMWQxYi7Yu3qjSChrwvRaDZweONjGH18C7LxOA73pNF4ySXoGhzU+WDjXK8C377zAYxPzCJGUiDHVsVDiOQPoF6vqNBWKxYVzgLJxoYciGAyFIiaPC6iHdmunI3MZPxkbhzrzjoLr3jNdYils61QKX4W+SD60JXtaqFlgYgY7l/79Nn5MyMp/0yG/A++U44YnEOjBkEEVbcv9ybdODwRuTdy1FP15mz2yGHc9tlPYdvTT7uviZNPlThqI8JzL7oIH/rYx+zTWSe60URl4igq+3ZiplBEXy6OY1NlVH29kPQzGtMo88YP/apURAs92tnlf/+ee/DIgz8Q1yQh3iatwVN463vfj/5Og7CI9sCSZQPytZhf6JAUFzhLPy0chGce+vE64R3btuFLN38Z37nnHkxNT4I7XDNKCqWexSgKErAshcmka1rEq1UZr2ix1oLE35l3INRi786C5qpGJ76YSeWs/bCZr5vBc1GnRC6VyqhZGBgexOjoMoyMLEFXXx8yuS4hE1x0ufsSnM/wl1aR4HzeiAKcbdtQ25UCLhOTFNC/Tr//0NFIHqiaUUelXNL4IDQ8DTZQige2Is+ZryKEU0kjdEVYelo/7iSvsHf396q1NKJwJLpFZjM5pHPdeOJHm7BmzWpxNu64/Su44U1v9zmwNBlGQAy+ET6/t0vj5++4bZxQjsDVcFTARgwsWGxsLDzHvC2skbBncelja34cOBDGQzGPCUMD5OLdYp5ETaEQmoLgjEkynGSPttNngbMy7AoMb6Rs92w7aE0XjrNs0A7XVQVqCJyvoPagJWmdN4gK+2d9X34Odv6MHMlj4X0SQbXOe4KWxjTPYYxIA/wSz1O8UkR0dgb1Sg2NbA6RXLcyIUhWZaPK+45Swe9+7zHs2b5PjVwUFaQKexEpT9oIpOZ2yXXjPfCUUvIt5M3vN53zmFk/M2GVn62ASvF7yVQKb3nXuzC4bJXMhSTFrdeQStLy3JwUyUgww6J5V1ORRv0+tJZUriLmN+pIhfXX1nDQ96IhVMZHTRqF2TiDn6sixzr8j/wE1JGJxfGNz30GGx99FOPj49YU+joRSJ/82lkXnI/Lr7ocZ51zvu6zo089KV5HsVJBbwo4MFVzDoUdLD9LROOu/5kbcPZ5L/pfahAOHziA2z7/OZRrFaQTTP+UG5dksW9976+ILPrMRzvNR4eDsHC70GkQ/p02CLbpaMrvfWpqEnt278GWzVuwectm7Ni5E/v27UehWHL3Y2q16VlvBYe7Li6I5nRnpSZYL4fNZgCn5bHgwL8kfQGh8HGFlwktOoJXXac/n7zH/IiEpGN0ckynU3Kh4whjsL9PzURf3yB6+vsUtkRdudRf7iNgC6c5zhkxz1j1+ntLMWALI3c+KkiyArZjCQunHacRHTUi0S7ZGhaNMqJu1uS7Oe1utZDayOPosQns3bZVFsdThTKKxTIajZr4BoNLhtHbM+B7ZCd5hVbK5Y4GOts1M3VDSCMMq3WYO9uRGrvE1XvS6xN6N5mqxgzuWigGvLwG3LNAqAXRI0Md7Dq4DkTfC6RQjoFYbKwQu4jUC5I3Tb4jFbTt/A+7FsE8yUchhKN5b4SGyDbEepjRko+QfAc8728i1qmPRkzvbz2H/Xxg8atpOE6OqcYp2F1zN23+0WpghVbUWTrZwNKlMaoxB6mT/KXCbBmbn9qJzZu3o5afRrq0D81Kfl69494jIaXTDogBaQkjCPpkr1KuyA+ATYGdO08ejUVxzoUvxquuvQ5l+k3UqR4gDyKoHOwe5PuxKAo2b+Y0Kdvq1sPgIKvj8w2bnS4jItp5DCwgG8uwCSbyQhKiKTWMrzB1YB9u/eynsXvHDn222HTyeUODwM8B0b9lK1cglUlh2dgozl67FoO9/YiiCnJ6JvI2HgwZD4qdj8bwogsuwLVvWDjdcbFF/JabPouDBw7qjqHoguMhNVXxBN5+4wc7CMLC9f2Er3YQhJOcqMXM8sOv/ntAEJ7tfiEce+swCozoAAAgAElEQVStX8Hv/+F/kwVutrcH0UQSzVoN5VIR1XIJTXoMOLnPUhsdEdCcPrADwpA67HBsV2RQp3EbWrXA5YYqhF4oAtWNBdasYa1gzEc2m7yKxTydTSOXzSHXlUV33wD6+vvR1duD3r4edPf0IZ3JySq3SamY1kJTXGiH7LrwYpGBPnEV7uBVILY+3x53O3FPwnOpmTUAQWJmcsB53oHD5n7c07MF7Ny6VU3Cy698JWKJJHZu34FCsYjzzj0Hue4eNS728FlxaxJtu2IV/tDUeAE1cYF75rd+m0WvLk8BWmRzHqzfVoNk6Z22SNNV0xsAxWsH05wIytWK5rdyMfSRExtCgTCB+Ohqk/mWxMx7wjU15Nr+LY8sfy7L0PBRlo8jxNmQjNObByfzGUnVlAkqZ36K9HW5OxrKIR5F4AL4GKGFUrAEu2ukSKdsRt3HwTw06tqxG9fCCqfOtxNtKXKRy6QkGtalzMzmsXvPQRzcuRXHtj4i/kog+B3/2TIkJ3A7joObmk5ijDQl9wvSUfmMRIBV69fhquuuQyzDqOaMmgkzQKCM0s4FmTBCgWiVbt2jSRj49WANrhwLM43ST4RbzJU+NlmyBqnK8QxRIFebyC9BaYx17fYf+e49uPP2r2JiYqI1QrNzzqbFHBvHVqwwDkKlomNYtXIlXnrBOchkulGs1oTKKAvG5Zwk744uXYp3v//9C5oZLaZBeOzBB3DfvfdqLMLmk/4o9G/guaLp0zs6DcIi24POiOGkJ6rTIPz4qTl44AB+4d3vQyMew5LlK5Dr6xc03pWOY2YujwN79uDQnr0oz05LQqUy6VIt8803Njp3YVIKaIpuuxrtG92BMMDNoV0weDjM4h3ilu1rgKXD79rs2na4oaB61gFhdc27qWA0NQLnvr29fRgcMYObgcEhdPUPIJUm74GqDUNGxKDnkilGN2FW4x3w7RBtyWXTaFK/Lpa4gHTtfOM+x1UxcEc8hhnpvAjej2N8fAIzU+PYsnkzCoVZjI6OYWTZcqxes8ZMmxwlCG6S3CPSu0BW0SJXGnyshd53wWpkvGpqFt9oaOdJ9jmLHnXuNZkzccxDOR7hakKwrLbmccHxAY+QjQOJcHwNSmPjikc2kqEc/GQxTIOihI2bFP5jPx9QATsNngvgLHkW51Ihr3kzWzxdXzUdHE/ZrF73gRQntmO1wuVFv4UHeDPD5/UgEe7sA1EyzOF1GUMj4f4MulpOHuX5JZOAULtNJgQ5zZNEndMSdRWO3d3WPMjDwe8Pc6Bs4qF77sKP7r+vhThJLqjGxxIug5pHYxuXqIo7EomiUi3LlTWdyTjYYJ8R3vEcZb36hp/ByvWnmj24Z6kEVM7Oodki8+UUdtX6opN63W2STa+plVzb4EgL34HyOhpsJnle2CQYv0MjPPJ56izsJre8+TOfwr6dO3DsyBFrZAUfGQ8mkUxgcGgYtVrZCcw21sgmE1i1ag1edOGLhTgJ/eBnKh6VOoj21x/8zQ+rmD/z8VwNwuz0NL70d58W2qkANJJLExFkFG8fQzSRxjtu/AD6ySl5xuO5nvv4H++MGBYunZ0RwwLn5d87gsC3XC6X8La3/jwSXTnUSmUMjAwh0jOM3oFeZFJJpNLUjyeRnyviRw8/jn1bdqIn1YNauYRqYxyxdETkqhb5TIul6aW1jDkbXwsld94euGOweEhqtCXfbHW5A3XZoKxyPQtCm9b5ITYXpHQmhWx3L/qHBjE+OYn927ajt69bDYXZ81qF0uIYjyOZTqKH3IeBQcH9Q8NLMNDfj2xXFkkWtQhn0AY9c6GY92GwYwqzbrNjtnwIQeNenELKIF+T8+mZ6SkZ0VAW2t3d7RC97y6FylA770N/29g6G9BzHXyHSy6GZvjUtdcbqNTqamLqRA4aHB9x90ceBdQkpRURHOKnbcdJIyr6VLBB4iKvqN5qxaSqCuzhQm5pnixMiThHM2Sq10Qq5ViH8ADTBeWV4Dt6HhORe8L2EYbmKEY7cD+aRupjQ6myZh4DuVy3IHhZF/s4SpJPD/xi0SfOYTthG7EEG215VjjsbjRCo+AFnkN4bVN4hPGDjSSESukWMoJj0Kba6MQdIdXV2k5bBd/zDaypq+Prf/93OLR7hyk2lDnBp6nr2Cs1I0Nag2DjKzbTlOHxdNGQiARZqn/USHvDZOOrBs55yUW47OprUKmb9wTVRUS6xPpRg8bDotlSQIksgdSAuqiNgQL6FKY3QSKsxpT3JUmJfr1aKgcr8Dz2KAPAmDlRLOAH338AO7Zvx7ED+zE9fgy1clmfk2xXt9YFBahrTONIIZvQBtDdO4jTznoRVo0tQSpSVzR4UhbTMbzh596MU884s+0ifvc3/hFbfrTJJJq6JxqKGk/JMj6KZCqJd7zvQx2Z4yIxhLZHDM35gd9zvsTxJLjn/OE2k7o6YRkLn9F2uuB2rbB/4zd/G/d893tYPjaCpSODmGomMDkzrZ3j6FA/1q1egYd/uBGrRkZw6elX4/C2cezaeRCP73kUu2YfVoovF4qlw8P4jV//NezZsxd79+7F7l27sXffPuTn5lAhgU4Och5v67tjLW/aJTtETcWAFjkvwp5uF+pn4D5w529SL6IYTSTTWdsZVUo21tDTOl0/sLCdvKWdqAfraJcWi8rzgaMLjlnYNPQNDmJgaAi9Pb1IZrJWPL20uMGEZ0hYoRf86k6A1pjMW+qaXzMRCLlWtaK2jdxn0LATD1R4rAAb9M0iRvyCM2rOjeu1uoimVSIGtYYjCHWkFXpkunRxEFimOVZwtz167bP4W6w3iWMsPIYABX8FuvxpGXD0gQ6aNBvS/Jx2vGwe6NnvBc+ylez6aWdaJd8ikDbtvRLyJrLBZoDvi4hFikx9IT92VQ1BkLCxtUttDaus05Epk4WF+U42JFw6icHOWavmO4LlRFC/eY6X2io63FEQva6cDO39B06K7IkEcRgxlyhAYWYWX/jrv0S9VJRTZrVWEQFPNTzTq0wGNnEtFEHg2LyhV71aRGl2WkhCLJlxwrBxC4jALRkZxtXXXYtMX5/Oi8KseG+5FNm8D6zxDmRU44vYusHrQPSnZW4W7i+eYzZzHLNoSkb+gSNp8rCgTwidL3mfWZOwaeNGzExOo1SqoFoqolSYQ6VUQrVcBKplxMg5qNT0nGb1TAdRHl4csVQOvcPLsXb1Wqwc6UN3kkFbdYwtX47rf/bNJ4wZng3Z3fbUU7jlc/+AKpNL3W2S54HmmWwQSFQkqnHt298lmfUzH+2gxp36cxIEodMgnHhiGJBkRLXFPdop4pT7sZAv9tHOc7fbIHzta7fj//6v/xUZGsisW4XVq1dj//79iCeioOaYnT8Nk3q7czjzjLPx8PcPYMeu3WjGJlEoz2DXnl2CZF+04XR8/uZbWm+JxeLI4cOYmpzEoUOHsGfvXuzZtQsHDx7E+OQEpqamMTU5hblCQTtP25V6tG1wABSyajtb08y7vFAKCWPHi0glVpSNKuhbYCQ50+EbCBuKmRP43KTH4pMDwdHhZyfbcZHPEkXJ5RSCNTAwINMo/pnr7UE224VkJqUCYZwKd50MpL3AKwykO5fuBcMqk+n57JqmT868UE5GvS6lAIl3RCOoAJFbIL+ukYo54JXKJZTKFdRrZvKU4IggEVe8smnt44ixqDORkY2BRg2G1vCMsimoO+Jj1gk+BHIdfoIJgDHzv2BzodEE368T12y3b4hHvVoyhUEgAZLjwZk3CyQhbDej4ixe/2Iz5IFXFv6jDsF9IZwsGq6bmy8Fo6EW6yEoK3wXLaTF5Z/a23q2h4ENrmTRrWPcBjUK7t90fAZEUM+oWdAYzXat/L2dT23F1z77GRqBSyooa+lYHPFkGstP3YDBlWsQS6aEWtGNlJ8fkUEbbDJK2PyD+zA4PISepSvMbyMal28CT15x4gg2Pvh9vPLVr8bq086QyoJuDUJ+1CSoDTDVivNJQjKjWjIpK6zxC6iAfDzYnNXMbtnpIhozqHH1RoH3lYjJbBiqZblEFgt5TE1MY2pqCvnpKRTzBRkrNesV1ItzKJeLqFWqCsOirwI5GqaEIuyfRDLbhcGlK7B6+Uos7cugNxnBu2+80UYtxz1OVsT5nDd96n9i/969dlyEgBzxYYPAzAgpjhIJXP+Od6O7t6/TICyiqLRbfzpxzwuc1BdKg7Bt2za85efejmx/D8aWj+Lwnh1Yf8bpOHboIJ7cvA2HDh1Bjbhko463/OzVeOVrX49CpYYXv+g8fOofbsO/3HEH0Kjg595wPX73P//XHzuTz9XYMHSKPgREGzZv3oynn34KW7dvx8zMnHbI7OjZEpA/YMCw7Xo0pY/GJGeTPK/GXabvQN0kyGxeDaKmvJKz5hbBsCWtC3p6322676Q5DrKAcufPUuNqAhG7pO43zkN3F4aHhzEyNoYR2VQPaYyh3aHbzHKRF3lOhx3CnWywLDZ9k/kCUTRr3EU3rKByMaeZDRdDNgVK5HMTHO4Cq3UcOnAIuw4dweCSMfR0ZZVXEEslbK6tMYNsMbVYKytDxcj+1IaVsLQXGxUgH8kYZ4C7UBs9GNmRgT70hpC8w3a1bA5EguTvWo6GwSwGzXNB526a/zGTgu+PaAU5CkqGdB+J+fwPGWW3vC1sROXpmu6NYI6fVuCNsWIkFCNUGoweXCPk6+GtoZERvU107osJQl15Yb2lSTYdSREO5ETIINnl/UoX0du+8EXsfPyHFovN91gp65VYYAnBrzljA4ZXrUWmd0CpjlQ32M8y96CJfCkv8yRKGru7upDtSiMRjeJrn/0Upo8c0Hl80SUX46WXv9pUHyzy0ShSshblfW4KFXFLQlPtoUw6Py1ycDCTsrGX4zQG3Lmc2U6hWWRX1TgTTaihQaSKY6NqBdV6DeVCETPT0zg2NYXC9KTQlPzcLJLxjIyW2CjQTKJWq6BRNY8F3i6UNUdTOWR7+rF8ZAn+0299ACtXLF9Ug/Ddu+7EvXffZUiaUiMNqeAbYIxLlve5GoQkrn/Hf0B3b2+nQeg0CPNnoB34iL/1XAXr+HP7QmkQqHl+29vfgWq1KNOUgZ4kLrjoxXhk42Y8cP8PldxYyJdQrZSwdsUI3vjGV2No1ekolcoo1Rp49OGN2PWjTbjly7dg+arVbTUIz7yXe3p6tLBwjFUulTCXz+PokSPYvWcvduzYgS1bnsS27dswPTWt3TWhd0GqLKDNBnqXLEUq24057nhmZoSCKNWxZfvr7PUQaCPnOdP6aZ7qnIDgCiiPezcyMskhX88mAqr3LQ8DD4siDyAeVwhVrqcb/QODGBhegqElw5JgdXNkkSLqwJgeRiUTEbAwHcYm09NfO3BaB8sO1+F3cSMsE2Df/oN45NEfYXj5aowtG0XGUQw2Bdq5ueKD75uNkY1T3NBImQh2ziR01K6U8lYvsGoOAkXSvIBldkOmuO9g2RAoXZGsesnZzMo6kOuD1FAJwHQ2lHcA8wqsETIipGEAITyprphsc00UiuSYeTBqDBJB2z+HZs7eg8I03atDf3PEJqhP3MfRfpZyVDoZ6lqGgK8QA+2IlKNRNvqxeb+ai0rJmAjRGNKpDP7sD34fc4cP6njUNLb8OjzFMZXC4NIxLDvlFPQvGROqQG8FFmDliKCJTCIhdIqSwSfv/x4euPOf1YSJkBqJCGl4w9vehlR3v9AEG3QZQTbIH/lzbmVhKgmdBHt+jonY+CkqQs2Pv3fmPQSPDDt7FhktLobFS/PayI6ZjSsbgGoNlUIe+cK0jKCKhZIandmJacxMTctBUkiL0J4YGsyGqZWRYOOqi1FDqVzFK171Orzq0otx6YXnWCrsScbQlUoZf/ZHf4RiqWhSTAZOScFgb5Fcm0yCaZlxJJJJvO5tv9hBEBbRHPBHOgjCSU5Up0E48cTwnNz7nXtw0+duwqYnnlTYyi+97z345Ke/hMMHD2ihob98oVDB9OQkenIpfPj3fhvlehSVYlk7hxVLluI/vPs9Jzx5O+f7ZAvF8U/KhZoLBw2J6OFw+PARHDp8EHv37pMD3OF8GaNr1otMRYnm9OQU9mzfjvyxw2ogVGCsDsybNQeCHHVu7o+gfYqTBrl7N/a+QdaCpAMgHmRm4rbZAqydnecWq9HwFY32tYTXyXfI5rrQ3deDrq5uERgT6bR2QYSqTZBGVrlxDejxzwV5/OhR7Hz6aRQqUZz20kuFXDD+mKxwzaqlgpyP8WaDwLECCz6RAjYdhKORn0Vq/z7EGnWUuroQXbkaERZtOtJpV2oxyaHWBESBiAQVEopQViNCB05q/2nSZIRA44WYLI/NGzFxg58rGokIQUgkff7vDYJKnhMN/Xw5XcRjv1s5nTqXrfm6NwKtA/Wds8lmrYpYufRdZ4RNmf22jTTcMMzliW4JZq1LCAoTOdVY/NFaSc9FYihTHffvOYDP/81foVHJm2eAtuXewJgu1ciMsQhyJNMOL0X/8BL0Dg4Jek+mEujv70euqwe7tzyBO796i6FjrlzRxA1ArrsLL7/m1Vh35tmWiupIWUhfFXpjX2zZpBua5lbHiuY2B0qiEKawMKMxO0vGaVAAm2c0BBmoyR8baBIlIf+lXhNZsVQoyHCsWC5JWTCbn8Ps1Jyaco4lOfIyVQeb7iQy2Th6cmn0DS9Ftm8YiVQX+rqyuPS803HJuafJLO2Zj6/dfDMee/Rha8KJRrHRdHMqvtEsg7jUBMfkkXLNm96iz9UzH+1sIjschIULZ2fEsMB5eaEgCCzijLb9xJ/9KW75+tdxbPworrzmStz97e+C9YqJemvWrsDw0hW485t3aLH/6O/+BjI9/cjPzqEnncF73n0jehaA957vBuH4y/RMlcnE+Dh+5cMfwdDK1ejKdalwkh/QlUljy4P3IZ/PY3Yurz+52+HwwixwvYj74qgiJAId90ExY7JrB+SEOo895iJqrndBb+8mQE5ftB3rvAUxSXZcmDUj50jB3QADOY874YQIgp6aF6WTIVArlZCfnRVJa3TNqTjrlVchm80hnUyZS53GCMZkFwGRv093zDhFl1YQJd2j7BHA1JNPYeSRJ5HOxHA4m0Lt0kvQv2TESgUti+nop1AKU0+Qd8CiL9a9qq6hDOb6ZwWG8cecpdu5M7c+Rg1zBMFCwSZhdmZKsHpogjQaUPKngf2Snbq6QF/RKQ8cgNBnuQxR/IIAtc8jCi1Ng5oBFkhrCfijktw5q1/SvpZjpJVJwu8qoh50Zbt0k+vyWeK1CtDgGCUqL4FYPIX7vnMvvvvN2+3Igw9Ca5RhbaRGPS7TNLVFDClykEiMzeU0Ptv+1BY1B+k0ZZB+06hB4L1gGMhLLrsUF156mSMa3ojK7MrQgDB+kdTTG1V5OPpIST2B+y+okXNuhPUbVO2YjwQRBE6zaGUcArRkWd1omt8GUS5KbMsllIt5lIvGgymVqpiZLWB2bgqlOTYLc2okiI4xHXZs1UqkU11I5qjq6VVDUm3EMTrQjde/8iKcfepqSSH5OHLoEP7ij/+byLQ8d0QP1CBIX8t7OYZcip/tDNaedhYuufwKoQgLPToNwolnpYMgLNwIdUYMC5yXUMS/9c3b8Xdf+BL27t+NfbsP4JzzTse73/cePLFxM5LZBP7x63dg51M7VKw+9h9/E7nefsW7fvD9H0Rf/8CCZ/x/Z4PAHfav/s7HMLhyLTKZtEhiTPm77MIL8KrLLgMXCi7ibCx2796NH23ciIceegiPPv4Yjhw6rDkqF2LOi30/K+jV4pNN614TmdIleJqD2yMABaFIWFFwnb6z45UM7U6GQalhZD0xHizvwtMy2DyUqZ0n8UvyvCbOeMnlWHfeBYiSOEnymxACFpAYFG0hYiE5AWw0yChvipsRp0Mld5njB5EsFFCsVtG/Zh2a6Zx2kdptupoglqDMkQwB/r5B67TPFt/Ai5vtPq3wqVFwJQnfG19LDY6VZIuE5l85wyaZ0kly+lOLfUghPM4XkY2T754D2jNfAOcNluywI7JSpj+FiRVsRi/fCmU9GO+BhLbtW57Ed+/6juLNL3vl5RhZtgwVkjwCWZOjFqEHQTEhLYqaQ3lT1CuasfMcs5kg458S0E//+Scwvm+noSg/5nJo3Ag9lBsSGizzIxAWEvIUJDkuS77K5tbZNhop6F5y0uHKtWvwuje9CQ15V/CixOXzwIaAr0Q+jkYi8geg7NIs0pUtwvvYj4djDI2SdO2okuArCfJQwxsMrvhVkRn1/k3SSiSOO20WbHIyqsWy/uSx50tFzJXLmJmaw8zRYyjnZzE3cQzVchljp56JgZ60yJwRjv0SOXT3DsnYjBMaNlmXn30Kzj19Ne675y4wsZENJkdRlPTyNXXfRCjDjaM7k8HrbngjVq5Zd5LV3r7caRA6DcKz3iDHf7OdgvVCQhB4jibHj+Ev/vLP8Y/fukOzwUw6jnWnrEOtYjvow0cmsOmRjcikUvjQb30Q6UQKb7zuBqxYveak57+d893uh/mZCML4saN43699GP0rVwu6HRoeQmF2GquXLsE73niDvrbQIyx0lGNO0k/hwAHpv7dufVpji73792B2Zk47IU2tFWw1H/tr66mXJjeGsjm57Ry16wkpFoKghft7hoH9nAPezr8oi29gkrumXC7Pu/JaDI6tRjqVRCwRR5LHEKMBEiFWLwCC/m2HL6tlLew2FmAjM7NjJ8pHDquoDJ96ClIjQ0Y21EacDYGx3SkbI2M+qC1UeMJQxtM+JbPTTNzm3eQ1GBXA0A+6UbLR0k6W5yKoMCiHJJeC5DfxTT2eSX4DzmVonU8rDiIPesMQMh9UEKXbj6AqZMDklVKvNOuYm5lFOpsVjE+U5+//9q/x2AM/RCqTxUWXvgzf+/a3ccWrX4urbniDq1hkyedWSfPyE56TlkJFXg9VRBTcZPkN/LOQL+MTf/hHiDSqRvALIVrerqgo02RM9wwbF1caOKdFN4cDIroXiyVw7TEDUGu1gtMln4tKGlo009jM4pbj8kywCVi4Dlb4A9FWyJLGZ44iUBlBpYt8L0KCqxEfXfxh6gwBFSKaWEPiMkPzU2iIeEr0sUgiI9UMHDsUy+INzMzOYXJqCsf27sbE0QmlYvZ0pTBxbFxjlfTACJafcQ5WLF8pEjQlvGpoEEFXrIpUeRqJGhVOZmRGFIHXg6jgwEAfbnjzW2WE9lyPToPQaRCe6x5pfb+dgvVCaxB4kjY99ij+52c+iYOHD2L/vkMi0eVyaUxOzqBUKKG7K4e3vPPnsGbVGrz26tdiZOnos577ds73/2qDMDkxjl/+9Y+gZ+mYkXBSaWSTUfTmsnjP296MlStWLvo+CUYiLGCEUtk8zM7MKsRm34F9QiAOHTqMg/sP4OChQ0KmuGAGiZlFLrNYGZnBNz6+w3Q9vyMLnPFywWVxCAVTCgha2q47ExsueYXQmmg8iSRJWWwM3G0vENqME2AOiZLUSWFgO2rNcKkb12LvxEIV4YY5JXJEIRtdRwW4RHN84A2OuRna7ldg9nHe/9qdehGxBsGSJEVTI5kxkTA+gwADa3hENmPDUCW/omqBS56pIXJcMFtygqhaFd+ZW5hTTLtc7aEdzvdWQu83PzONxx95CKtWr9Zz0y2UzUFhroCXX3EFhkaG8Bcf/7jOyy/96q/hjHPPFZRu2Q0s4myIzdxI7UGrQBoXoVmrINpgYLUbTDcj2PrUVtz+xS+Z/M9zGsLNpqLthlDWC9hzyueilVjqiJP7N9HAjIWQjYFSRr12h+dMJVM447xzcNFlrwBiFhZlJNq6cW4l9TWlgslZjbthnBReMDPEUgPUClpzNEj9gFgrLfTB0A+eGxIsDfyRKsJ5CTLxqlVRrbBxqKJcqsiEbXZ2Ek89+SQajSh2bNqIqWOHbFRQrSGRSuOMS1+Fi172Co3yzNvDRhhhfJeqlREpTiHRKGoIRZ7O+RdeiEtefpk+44t5dBqEToOwmPtEP9NOwXohNgg8Rzu3b8Ohwwdw+PBRbN7yhHaoNN/JzxWwYvlSnHPOBbjyyqsX5ePQzvn+1zYIXICLhQLu/d59+NI3vo2+kSXIkPSXTAla5k72srNPx2uuuWZBH/iFbp52nMboR0/HwB07d2DTph/pv507d2JmdgaFQlFqDMnFhJcHcZ6Rv8qVighgVmparDsV2VVnvggbLnmlxiWcUzMkR1BxlDA+/SGsKaCfMnfJkjG6g6T8kBxaNrmlLf4cNcjlr+W3Y0E83Ikradpn5gZtsyppLiLFhQKwfCcfYyGX86UbVskh05waRdT0naxGE7S4Zq6Fv0OqT1hlJINs1JX9oYah5qFZETYQpjzR78iHwMOc9JqEzl222FJcGEmQRfDw/j148Ic/FHTNmfrM+CGMDC7BVTe8CWU6UJbL+NHGTTi8b7c8Os578QWSGua6utDd1SsOhtwr3bI5Eku0HEBFRKUslbtZFmPusmU/nMTXv3wbfvTQA2acJajfJJ8BITB6hf27NYJy50PxMEL4gieDFgpzSoJksae3idAhxziMaAgMj47ila97HboHhu07PD6ZK5ktcogSt+wHs9m2OHD3ViDvgjeTHAmN0Brkq9YYWUMjeasnveodNEymKgCjRuSEjR9JhDX5JJCjQA+DamVOZM5MJocHv/99bHzwfnkZlApFXasLX/MGXP3a69VYcHRBJKFcKQuVqPAzowCyCNgo5JoFvOm6V+P8Cy9QXPFiH50GodMgLPZe6TQIC5ypkxVxLlpkJG/Z/ASOHj6MsWUrcMZZZ8koaLGPf+sGgTuOO/75Dtx8+7cRyfYgkcsinc0gl4jL456WsJQbjubSuOqlF2lXuZhHOw3CMxsbGdQIUrcd0fT0FPbu3oPNTz6J++67D489/jgOHjyknXSYm9uCbzgzC//Zl1+H0fWnIJtKeXGII05I2L0IJDEMZEE3LaLHQpgraz8piWJCP8cxg3/4THcAACAASURBVDnvmWulERqdZCjpW1OujHRO5HNTkx8kh5oO699e2Lz4UzIoRMHhEdlbhxwCHwHIBZERx3EmJtK0KaU9M3f22o03atyKqlGgjI5eD8qfYDPiSYJBUaIGQGmGLLR1m7GrCJpqxBIUm/qMP7Zpk46rO5vGzs1P4IffuRfXvuXtuPTqq1Tc66UCPv+pT9FgAxdc/FKMjoxIYXJ0chqrVq8U0jJ+aD+akTgGl4768MI8LMQzaBg3xAAi2/bn80X8zR//CZqVQsslUg2VR5KL+OrR58a4CPzYmN5P8DUwKN/O9dT0FLJZomEpU0jwtYKVswiIxhV5+Wteg9PPORfVas2dLo0DYopNdxyVDTS9LeycCTmQnbMZW6t5dOkux1g8ByI4ihTIRiWkufJQSEh10i4ZGboNLAxLEdJqFqryS8j1DiAVj2Pfrt340ZNP4OC+/ZjLF5HqH8L1b3oTiIbQLpyIRLlcVYBYvULSY1nKF5MCG3H4yvNPww2vvlych8U+Og3C89Ag5PN5b3Wf+7RrF9OGwyC7wcU+JKUi42qRj3aem09Jx63FPgT5Br3VIn6pneeWAZAn4i3iqds67lCcFvO87Z4T+Q1Qz77IRzvnhE/ZzvXkfXLbbV/DX3zmS+geG0V//6DOaSITR45wfCqFXHdWu8OeTAKZehVXv+Lli5pb8v420t/iHu0cN88fUQXyHY4dO4b9+/dh965d2Ll7N773wCNYf8HLMLRspRqDZDKuREgSLkk81BjBGwONMIQoGCpAy2kF8njBN7TBOQGea6HxQ9hZClEwRwIWp4npOTy26WlUyzWkUylkM0nkcgn05DKSubJQ5TjTdySDZ8Y4b6bwcPjBd8c+d+cYI5k0sl6tinKxgGwuJyte7T7J6wjufUQUuPvk15w1X9ec3yKpJVJV4rbLVVW2DVrn/wfpqen7KZ032erf/cWfYvsTT+LG3/6PWL12pc7lrZ+7CfeRh3Dt9Vi34SwVn4mJw1i7ci23xJLLJbu63Z6a2Ik5XdpBWAxyMGSy986mK4YnHtuI27/wecTjPGB3X/RC2nL+dATB4q1dj+gNg3lsOLwjVQFQKBTUGJJTEay4W+oI8k3EoIxg3Rmn47Krr9ZIoiFVgqlqGALGo7fexDMi9D0qXsyjwJgONo5qre/kt/iIgkmSMtwy7a9cHIUouBOprq+EPxbYZoTHBmanxnHZJS/T3zme27nvIKbn8jq+XG+fCISVat3yRTiiKNVQ4YiCqohiVQ1PjcRQNR9EZpo4ZdUy/Pz11yzug9nmmtKpPwuf1k5Y0wLn5YUQ1sS3/dPcYd9113fwf/3BH6N/2Ur0DQ7IFz6dSsuMJ5tOor+/D+lszghskTpytSre8Oqr0N3T86wLTLsyoHaQkoWssClh/Nrt38Tt9z+OVO8gUok40qkEkmnC82aTzB267fAs2U/sc9e129fMXVDkRTkkmgsioQTjCnjstRPrZULt0DO/VI8ymriOPfsOY/vuwxifmtWuPinyI2V9caV8Zhh6lcsgl0uJn8LkSx5rKpWU3bNm297oc+SgglI3Vz1C7lPjR6UD6B1aimgya26Zqju2i5RxVMtAipI9RnVbYZbvZSB9hihpNQfW6NioxqWrTv184rFHccctX8a7P/B+3PQ3f41rXv96FMtlfPFvP4krrn8D1p21QdLXfKmAc07fgHSKaE0CMzOTyPX0avdM5MA8AoyEaHkFdtyScXLHXG1o1/uVm25CYeao8yPctcGnR9ZQufuAVXn9O4RRmeQwmB0FhUgEhXxRu3kSVrVb92JuFgbzKMrQ6Ahecc016B9ZilrTpJ66Jxx9sTGCh4EppIsNp6EZum5OWJUkVM1lVA2pZlqORJgLtyEQ9n4MjRLXwl1G9a4bdSTjTVx18aUaUbCJLlXKmMkXlUTKJqNIO2c2CBUmk9Irw0iPRBEqpSqKbBqqVUdhoigWijg6OYOXnnUabrjq5Ytq4tv5bHbSHDsNwqI7z06DcOKp+kkzEuFO8+d/8d04cHQSg8tGkchm0dfTjXK9ib7uHjU/NJohxM01i1Ky+NwU3vKzbzSm+Eke/zsbBPrc/+0nP42t42Wk6LQYTyKdZq6Cpys6cS7aNJUC4X6R0LwQazFXUiO/z3GCEew003bb5LCoG1mt7vPuwPy3nWJTc2gPVWoCk9NFbNt5EPsPHsVcsYgIzW8CYVFwubHVBE/HmkjGI+jiSKcrjdHhQQz0cKbfJTVMUqmRoTZGUC/ksX3LJvQNDmN01RogltTu1ux0LaCK7n00JSJHQaVfNsCGKIS9t+KutFl3EqVGD5a8aTA+FRUx3PrFL+K+27+GRDqlJuXlV1+F++65D7/zR3+oO8AkdE1UygwmKolERy5DPN2FajOmzAXC3xzDsGliBoGaGWZNePgRSLCrVNEslzB9gL4GjKkypYZbE5nhlnM09MJqbngaTSuicitBhRMJYWZU5AzkC3mpNdKZLkkx1Qa1CJS8HHQWIOcjhiuuuxYrTlmPWpMjJg8Oc0InvSt4ZpTgKV6BISBCD2QtbqTG8HtSt4Rxhg7L4sPNtttST81t0uyaiPCQn8LzQT7HBRs2WIaH8xk4NiMaJXNKNQ0VFCpl5EsVlKoWYV6s1MTP4Tkn4sbPOZs2NgfHpmZRnCvhbVdfgjNPXfuc63mnQTjxFLU7Qu0gCB0E4Tk/aGEhZeO02Ec76ASfs50PcyCRMvDpox/9HTz8+Cb0Lh1D92Afsl29yOayyKVJ8GPBjKFZKSrz/oIzT8fLLrnkWZGT/10NwtNbt+KvPnszZmI5ZHIpjZIoMU2Tb6AExjgiTR5/w+KDg0RSJDPfCapRsAaBizZ3fEzUk3xeCLwRIw0ssGQi1qNCIY9KraHiHefvxuNIa5xhDHYrYAz5aWBqJo/dB45i776jmJ4rWbw0KYpR2vJywkAv/gpSTH6MpYBoDYkIuQe0wo1oZNHXlUJPTxY9XTn05LLIphJ4estmfOOWW7D+lPVYtnIlTjtzA0ZGRxFNJklN0M6chYJFWX78jCqm4qNJuSRHEoSg62iwoNSqMsDi7rNcI9mtIte/eqWO2VIZ2zY+jmM7twim71uyHKNnnId4Mm4KCo+BDoW8RZBkuqGTFc2nwrMmIhXtojkSqPHcK5DKxm9MtaxMHUFh4qDtfANPw9WTsj3SdbCmh4Uynsqgb2w1IomUX2vyEoyXwqvB91ipVjBzaC/K+RkMLl8NRBNGNNGlomNlCSgVgHpFBMKzzj8fL73iChkSGehieRsWvG27f6FIqtw0BTMzKUuKNOTJegOz2lYmh9y3yYUxBCsgIA6KeAdoHg889z39A1i+dIl+n/enorpjEWTiCSQZA02kLEkn0KQpaug1wljsahWFsjUNHD0ozTQSxbHJWUzO5HHs6IRcUt/7s6/ByPDgsy5H7awpHQShgyAstrbJUIc7i8U+2imG7XZw7Tz3CzGOm6zp733vu/jWt+7EY088gVKthmxvH3q6utHf24tzz96A09euxdo1q58VOQjX+t+6QeCY4a6778HX7/0hKskM0pkkUokEUlosQ0CSyQ+5CBNml41y2Mm50yF3gzIs4ixaUcxmp2s/Z4u91niXssmzqFrXa5D0SD5BuViUxExJkFQhuClUayTR4s5DO7vZQgVTM7OYnMrj2NQM8tMzKJRop2Mwv5HZGAzEGbfJ63goKaEOtmPm1xPRhhqT8aNH8PSD/4JqMY8kA7ByGfT191tGQTan4olEGs1IAvVmBDWXRFbqTVRqxk9okhznnASLvDKegnbkTh2QWVSN5EIWKYtoNhTEyI7u/2SjDLfVbqCm2kflhdoDkSi5y2ZImEeUs+QquttcIcm1YANVzc+hNHMMlfyMfjaYKOk4A3FRDYShPb1LlmDVqaehd3hEBkzNWBwZqhdIGk3ENdIoz87gO//0DVx+/Q2o0SSqCeRyWSldSDC984v/gOnJYyq2bHxWn7oeL73yCiQyWWtoXGJJtMRULjZWSHjokzgHMtG0NsImVMZVCXHhQTIplMFdPwMnIshzJQ8uzmGgfwB93V1qdE09YU6fcjlVMmjMx1I2BmO+AptU3gf0/KCFuCk8GMzWwHS+hKMzM9hzeBw79hxEfyqGt1171bOOGjoNQgdBWGwNb2ve3mkQTjytP2kjhoXIsoV8Hm/7+Xdh35Gj+PAH34fXX3+9GOrtLBT/lg0CZ6r/fMdduHfTdiS6exTslGSeAp0Rw4JJJ0Qv8pGYuQFKxOj+BjRRVvEX74DqhKaMb7iQmoTRnPIsHdE2mmH2rb8RTmcTlYkjGU/Ixnm2WJIzI42w1EiwoGh84WZHhPJZ4DVdsPk7VQflWgOz+TImp2ZxdGoa07N5mQdJtsgUx1CofYYd8hBikSqahRkc3r0dc8cOGWDBeh1iveuUP1oIkhX1BOLpFOKJDBJZEh0zSKazihWORDOIJrhDjpv1NXf2Du/HWNDZuAT2IkcZMllSxXc5oKd1uvOjyIAmirCAJs3XOcpgQQ8EY39OayGgwCkVfMr8qtZANGpyESzNzaCan0GjUlKeQciLUGviO3P5FESi6Orrw9KVazAwthy9fX2IJhMakTELgWRK2hrTC0PeB7E4+vp7kUzGsOPxR/HDe+8WoVGhYr5j7+rpxitfc41Cw+RkEaSquqfMcNq4K4ZKBTWFFBLeXEpSS6Ji3Fw2RQ8lssAcDndnDKMT4yrWkJ+bRk+uC9lUWgTH4GHBRob/qeHwe95Mv+z52AyxMTBkIYJMMoX+br5HNrBsfOqYLRSVZPrEtp04Z/VynH3G6SetAe187jsIQgdBWHQz0WkQfjobBC6O/8//+9+wZ3oWH3n3L+CU9ev1RtpZKP6tGoRp8g0++wUcqiZEniRiwJkz1QoJygCVvmgLtU8HfFTgps4s2tyV+zhB67kKOXdzJmM0zbqNI8zO1xZ/q7QBWrbdIws8E/+SzFJIxGUGRQa5eAOpnNjlsnMWv9E4C/QoaNQr1qwkMnJLjAsv4M6bVrwRFAnrz+Zx+NgEjkxMYYJOlCXTybMkU0x0bPsmbHvwPkHybCa4OMse2x0d+T4EebtKwXanQVzYVBEJsk7GWieSGWSyPUh3dSGV7UEk16VRBRMoZLpMcx82JQ1rnlj0lTPRMOtkjWy8YCqgyL0djD1vpLwaeQVqLlho2TS4vbI6m4gyGtQY1PmcVYuupopLSocmGtU6isUZ1AqzKDOngM6MahII7xsMH5peck36h4axfPUqDC0dQypDC2bLjHAuIHLd3eju6UJ5ZgK3ffYzLb+CEDomzYpUInW87MpX4tQzzkS15lbWPm4y7goDumwGEme74I2CjanIg2DzSqmqqRzMUMrIlmoegreD6T7FxSjMTqmxoZcDQ8irjGbXPW6NQZDpmmKIxFBLFWWzYFJba0pS6QQG+/rVRJMEy4CmVDKNbCYjbsKeAwex7hkpssevXO187jsNQqdB6DQIzzgD7YwvfhoQBL69P/mzP8PWQ0fw0V9+D1atWvUT0SDs3bMbn7rlG8hHOFLIysSJu16SrxL8U8ZHRhYjYiCGuUhh3MkZp0BqDJ/92mjBiIuc8QbHPyoOwgKuGbYIYuawGJTr+l3pB42dz90pSw/Db7h7npvLS2LGECZCvUai44a4JNMjEtXoEWBzbFcWBJ8E7TtJKLQcBjYhnCsz6pcs/53bnsa3b70ZsxPj0svLbknNhyEVUsixmNZtx6yYa5dDErr+MbMhf28sQhyXsIiRx6FCy+ZAaooU4smUYHalKGZyiKeJOGTQIETejEtyqbAmxxTMDtkQArk9NBtyljQRnxVYKjPUFMmvwWGOuoVT8dnkD8Hn5HNLFumxT/R+UPZRQ4hCpThnqESV75NcC4/O9tcSPySRkDon092LXG+PpKIMvlqxZrUajfu+fQdKhfxxCZVWqCl5zPX0IJFkcFkUy1esxIbzzrV7CJyG2MiFhNAwUmDxZoNE86fg2CnyI8cEHE1xF+9eDGbJHeiVpqYgUYRW2rPTE2hWK2oQKAGlmRgRjyTzOoh2efQ0n0PNEUdebvMtFMODqNhEd/d0y7XRqBER1MtVNKplVEtFHfvP/uzbOgjCAmF5Jzsp7Y64OyTFBc5kB0H46UQQeNQPPPAAUtkszjv77NabaGcn8XwiCIzDve1b9+GhzU8ime1DKsX8etsNcTE2uNV29spQcPti7Y59dmtQv9Uh+h1wcaXGnYu1dl1KpQxxz6baD7bP+o6Y5k5O0096ciH/5jwBafnJRfCmhRbTc7NM46sik85oV8cGMZnKqrGwYmoJkGFfHzwWPO3aYqudDxCrVfHAvXfj9q9+XSl/Ia0iyOesaBl8bZWABcfeV8uPhO6FJCeyaaDygJwCSSLZTDj0L0dH41cIwua8W7tgd6KkbDRhpk2K2U5nrWlIZZFIpNHgiIXhRZGEZ2wYrM1mq96sgamczgz0YzPuQbRZQ7POQC9zmLQEIh6TXS82WXVSBo/Ln+Az1Sply7JQbbWES6EN+rOumQ7fm5AGd2bUc5KQmggKizIGlozaew6ITyyJbDaN1etWY/my5fLVUDKpC0JNdRr8J80JU+dZCsW6ApG8KzWbZpdoSiqpc2vIQ4vwqJEF74c6KqUSpsaPoFwqKt6b74eKBV4X8gvEraQihamRep7AoWFT55HW4oY09VlhLDqVJNVaVQqTUj6vyPe1K1fj2utfj6Gh4U6D0GkQTrwH2ln0+dvt7JY7DcJPb4Ow0GrRzr3yfDUIO/cexKduuxtTlRJy6ZR248xTIJxKopwIid4UKP9AhkbWJCSkVCDMYCQt7YrdkEbeOB7KJMc7RxI0mFBttfJrrnk+fHfNvEnWPMfA9fm2e/f0QRFzm0gkDIqfo0dAvoDu7m4ZJjEBUY2AezCoqDgnUOWGhDwrG7oMqWgDw7kMVo6OyZnz6NEjOHrkKCYmxnH02DEcOnwEhw8flu1xvlhQWFGJxYAqBDYCjl4YEc7GJ+IQujOkjU0iGl/IvbJa0Q6WTn76u0zJbFdu8LbB+GwYFJXNxoE7YU4DaGJFNUYmi2x3L9Jd3UhmepDtyqGbMHc2i0QyjSjto0UCZaImsH/vQZQrZjlMwJ12zOIjNNUS+HTHuAwJjjoU6KStu0KM2JCQCJhMpPDiizYIVue1ZANo6hMbF8nPwO8Dt7BQRLicspXwaI2DmkNdFtOjSCZouIbGAdIZuH11S4EQIrAlhQ0JlMEzwe6QMAYJYx/jKVhHaxmeptqg9fnksSOYOHIIPbmcXp8ZC+wImKcgwiKRKxpptXgyxqEx0QdHThEFe/H9kUfBhrVCd8VSWc3Mq668Bpdf+arnNNZr53PfGTEs3Gd1EIQOgnDSDvz4b/y0jBh+EhqEf/7O/fjK9x5FtsskfTQSYoPAHT+LAYsTF0OTJRokTKa9MhvEMTDZF5sGMf8Jncv/wHTtct0LRkdio7v6wXffJm30ObEHMSnG1+VtbtejubsBxUYn5OLMXWu1XrFj0440Ik36UH+vOAoVjdxNDimImRJErey2P+XMnk1IfzyKs087DbkczapO/mCxYAPCQqJiUq1idmZajcTevbvx9Lbt2LZtO7bv2IED+w+gUCpIuWC9gzVQlhVANoT9nSS+QJyjGx/h6FJhTqRBji3YUIS45dDMKIdB8smqTofm5FEbG1DC2T/Qj4HBAQwO9GF46QiWLl+GkZExpHK9ePjJbdiz75C4Dtr4N3hOSOjkQZKsGQEBfQvBqovHQJSBCE00lkQ0Ece1r7scvbmUldp6Q42LWU3P2zrrHDmfRDMQhoS55bTqesitkJzVyJd+YaXGsNFH8E40t0erynYt1UBGIzIlMstlvzvY+MnF0vguZr7kDQybL5fdkmip4KZyAU88/EMMDg5pPKCGoFoVkiE5Y8Ois+l7YbJKG9PwfavBjZuzKiWkvf1DqJRLKBdLGBgYxG/+1kfRP/Ds8sZwt3UahBM/d50Rw0nWog6CcOKJaeecdBqEhW+s4xchuvJ95pZv4PF9E+jtMh99OiOSCEgyooqOFlg2ACZD1LIsyZ2tk5acY1HDtFgOjG8jIcYtW8GbAwHerl2XbM38lG2hl3JA/DlP9JvXMuh1WgFMJNy5EZEXaRYB/nJSu2z+lbJLg/vpgMfXYYEQD94bBPEamk1kYk2sGxvFspGlz7nDC2d0Mfch779KpSyb6vxcXjbEXOzyhQLm5mYxMz2D6ZlZEVKZYzA5OY3J6SnMzuQxNTOD2XwRlTo9DMinYIxwRahDtVIUYiGnRPoZkF8QeBDuPhiaLcL4Pd05dGUzKpRs5Mh7UHOh+RAdMNNokHiXyiKaTAGJFBpNUx6EXbZUFHwtJl8mU7j00hdj9ejgfHIld9FunW3oiVs8h1EA3R2dA2JSTZN6avTjCZkhQdN4HYzOtgbMGkVHGTw7RHeDuVBZu+gZGzZ2MMSB/ALz33AnRR8JWcQ1f4djFkNzGtUSHrr/XzA6NKzfpW8FGwU1uD6uYiNBfqcSPN3AyZqQpvJAxGdwnwiaK51//kV4wxvfjGEpMhb36DQIz0OD0GwjdOCFqLNfzK3Yzo34fEHYCx3XQla+z3b87Rx3B4Jb+EyG4rZ99z786U23YaJcQS6dQZq7/jihY5LnOAdPCJK2Am5EMTHpHf43BJ1wd0TcAIvnjdmOzQl5tlN2mZmnOJr8zqOJlQrIXaCREtWAiKFvr+jmvx6+5KiBwpM402fj0XQjHHs+svIDAZKoR5K7y0pVpkUm6puXBBLkHu3NYf2K5RgZWdpWZks792G7n5/JiUkZDbGhoEHU7OwcZmbnMK2GYgaTU1Mo5At2dtgUJZNqhui8ydjio0ePYWpqElNT0/qTDQoDg0gsJSpkvgYhgMnVETxPNZvlswEgqZCyTNBMKp5ALJ42/WkkhosvvRjr1yyXLNRsp31Hf5zMlJeRpk0toCbsuBWHbQFW/LbstR2+r5HTIGInmwNPe+S/KT89bnRj4JFB/h63IIUFRwEkK6oRisU0/vnG176Ky664QtJhWXCx6XCnS9633OXXG7w/aji0dzfKs1NIxBMolmu6r5Rj4WMoEg2pouHQg0oHM2myURBJmV3d3fLEWDq6Ahe85GJc+JKXqqHrpDmeuA79W35+Ip0G4cQT/kKNe362ZqLTICx8driQPbLpKfz3f/gqknJwTErildSs2+KAWSjE3vbkO8rKOMfmtDlCoqJb3YaUPQtlstjlsGtTnLNQh3mjG+0YJYsMgUmGTBjVz0cHIcHPD99AY6UlWZHnTq3OxiBI2OjcaL/PjWRrlKGC4DQ3SQ75fRaSGHLxKDasXomhwSG9yr/nz49QlGIRdPHctGkjvvqVW7Fx40ZxKgpzc+ghRyEeQzUWUaIoC6cwHXEFoho9kFshv4VEAutOPQVjy5djZGwEPeQ6ZLJIxFJqFpUIqeRKR5e8yWu5XfplbzUBoRGU8sMUKiRyolnVMEkAQlCD+AhKRMgInSpDQ2ENI3+XXhtUEnT19GKgvwdbtmzD1PSsTJzI8eCGkcTBQqkoPw02CKViQc0VXyfKqOZ0DFP5Ki657GVKNt2+Yzd279yNvu4cLn3Ji3Heeedg+fKVGFoygt6+QXR196g54GiKn53jH50N6sJrUKdBWOC8LAaWPP7X2jmJ/54XuH/tOek0CCfehCwWN912J+7fugu5jMUzC3KOMU04IhY3+QOBnx8ChaKNMlKVOcRLRWO+9/Uhku2jel6wPn83jCHMCNEKvwUsWfBSQCCCqY2yF2Ry5GgBmxBHKkKBEoDsFsAkzUmC14RUFUb4Y56BFX9rL6zVEFwdgoTIoifiQPe7SBPrRpZg1fLlPzZOeCF9fqxhKCjK+L57voOd25+WDfTLr7pau/DZmRlMTxOBmMKhAwdw/wMPmn0yEy6rJt+TDjXaNKlfhPp/SyTt6u5Fd183crSo7utT0aSNeDqVRTpt9txyweT1E2pkREkSHNkzclzCELOQN8HRCtGGWs0iyRkyRS8KkjOpNOCsn+MW5lKUCkU1AbQ+JgdF+Rj1qptgkZBK1MKbRo0+zHmWz0G+AZ+H1tr0LjjrgnNx4YXn49HHn8D2HXsUNb1qZAk+cOP7cc55L1oMSGvPXal0EIQFzlY7ta1dBK6DICxwwl9IC9xiP52dBuHHz9SBQ0fxd7fdiYMzc5JVppOmxSdqQHc7s052HoDIfxwdGOmvMHkU8bu+j2XjU2gM9eLJ/m6MXn450rmMyIHcfZHVLtg18A08Cdiyey0LQJa5nggoNYMT0FR1XJHHmF6VfO1kzTCJ5DjJ3OS+aKQzScw43nDKou17zT1RrHg3/OEP8HVH+3uxftkYehYIvnohf34Y583iS7+C4x/8/HCWfvWVV+HpHTtNTdAa+htN1KKS3RbC1Qv6GdkjG4LUimV2gywGdBGFCpLREFeuoCi/d4KzohE4DZkyJYMhG2Y3bUwGRkjbtTeugkwhXUWh8YAjDcwNGR4cwtjYKMbGxrB06VIsXTqiJobSWL5XjiK2btmMqfw48vk5/PCxJ3HwyDhymTSWD/Xjxvd+oNMg/ITXn06D8BN+gdrpDjschIXbnXbQpsWwfLds34s//cI/IZ1JIZ1mjgIDZ2j4AkUGp9gseIWmTz+zA+QOR2KByxSTnMty9h2LoJ7NIp7LGjO/CTnHBZa93BHd9pbGOx6NNx+244VFjYInOUoMwacKBHGiCRpvmLkPge5oNGE/H1oCgRK2I2ShIBGxlWrgCgj+RFcqiVOXjWJseLillHjmWX8hNwgna7hDg/3Jv/1b/OeP/6FJFmPMvzCSoSKlq4Tm2ayZXJImT+YiSaQhhDOFV3B8R9JE408Em21dPwUrmYeGVXyL47amxBUuIWtS/APeP9a2xEAPCSIZjPXuRn9fD/p6+7BixUqceuopOO2002VC1j8wcALX5PjPD5uQthEJVgAAIABJREFUW7/0OQwvG8R3v/cAnty2W0ZclMwuGxrEhz7wwU6D8BNefzoNwk/4Beo0CCdeoP9TPhVc8O667xF86e6HkOvLIZsk38DsaKmxl5c8eQJEfLnzosmNqxJsNOCxzMfJwmh+JFkj13ESwkhicxOjOGOePZvBmPRywrc67lwDOSUG9rl9y5oHycdcb8/XZpAQg4dkb2uvZ+r4wIuz0CJjuftIQRwE07eToLhiaBBnrl3znKBTp0E48RSFBoEIwytecQX2Hz1mwUiuRVQEcmFGzQC9FiQJpAKiXsXU0UMiuWa6e+QIWa+ULCzJ/8/UBlE3jGpibuoY0hkaXHnUdpPGSiZbVKaBcjysoeC1ve41V2PlMst/oDRxeMkwhpYsQX9/v3IQ/rUN9qH9+3DLl7+AVFcW9z/0KManppW6ybHDimWj+PCvfxhnn3POc95P4Qc6I4aFT1U7NaIzYjjJ7dbOSewscCdf4Bb7aW7nfPM521mE/k80CFyEv/SVr+GBHUeQTHUhkSbfIIoETY5kuONZB56JwAJMlYJMhVjY3ZBH7oeSsZkRDa2L6Y1AYpul50WUsMffk2pBldz4BeQBhIgCs8cl2c2CimWk5DVekLTDEdydEvJm08HXsIgead80O5DpkBIJ7ZdbIwZn5/MYBjJJnLV2Lbq7uryxePa7oPP5efbPz1994q/xB//9j+UnYY6EZqM9N3lMUH+cjSfDqFIZzBw9oJFTpqcXs+PH0DM4hMLsDNLpjIiFxbkZD1uKy+QpletBfnrcMj3iCTV8hZlp9CxZSnaCqzVIWKS9M4mJdXz1li/itFNPPelFbeezGRAEfl7+6au3YuPmJ7Dv2Dj27T8s0y1yIrLxJNatXoEP/9ZvY8NZZy12SelwEJ6H2tZpEJ6Hk9hZ4DoNwvFn4MCBg7jlH+/ErpkK4qmcjxFiiCbc1Ig7fzeZEReAhkguOWQjYI2CZ+dJwWCQMouxHPO0qzepVyuR0fkHXj68QXBGvHUNek1hAAoechjBHfRMMWF2x3Kv43G1dPSmXWfug8nqTK0QAs6V3YM6cskkNqxZhfWrVmFmZmbRC3nn8/Psn58tW7bg6muulQQScfpjxJW5UCsVdV2SmYyKfSSWwKGdW5DpymFg2Xoc2v4kUpm07Ia7+/q0Gy8VZjC8fA1K1aokhYlsF/JHD6HRKKN/6UoRIEvlOWS6epTPYK6dMREFk6kkUjHgDz7ym1i1csXz2iAwhv2v/+x/YM/hg9i+/wBm83nUKjUhW5SHnrJ6JT7y27+DU087bdH3VQdB6CAIi75Z2ulq+aTt7Gg7C1ynQeAZ4A5r46Yn8IVv3otquscW1GQcKSYganRgc14jJ5pfgbTc8Xk3P/MwYDqdjRL0M8q5N4Kh/s2C7+5/JlO0+F82FSZidK8DoyOYoY2b3Zj1sBkW2feMlMhiT8tmWTPrG2ZCI8TBfzQY7IQGIXDmktEYVgz14lw6IWaz+u3O5+fEz0Q75+R4ki/vq/e//1fw4BNPIdXdowaAuRB7Nj2KbJaKhR7MzM5ixamnYdvjj+r7a867GFu+f6+sn+empzC4ZFQGRPu2PYmXXPkqJLI9iKezQoRmjhzGwZ2bcfZFL9MYoRIhmjWfwkgVCn0a4kQQajV8+JffhZXLlj2vDcKenTtw099/Brv2H8T+I8dQqJQQpXNiJILeri6sW7UKv/Oxj2HN2rWLXvM7DUKnQVj0zdJpEE48VR2S4sK3Tzv3SoBICct/6ctfwSN7xoF0l1QKaabccfOl8B86yrEZYEgOd2VyNhL/K+HfU9HXqIC+/WZBLIRBi7VV6WCCpHFDK5hpPsI5qBQEFLjCoOWSSNVBIBW6412rUZAbI5sD9zwIIwcPD9JYwQEEKRNoVByJoC+bxsvPv0Bugcc/2imGnQb7uRvsXbt24Y3v+EWk+waRJkk1ncH+LZtk41wieTUKrDzlTGx5+EEkUkmsv+ASPPXgfUinEjJ86u0bwMqzXoQnfnA/DuzYqlyHi1/1avSPrpJk8qG7/wkXveJKGTMxhZMBX2xqWaR5z1RIfKRHQr2G33rPL2Ll8uXPa4PwtS/fjAceehDb9uzB+NSspI+WGdbEyNAQzjhlHT780Y9hbOzkjckzD6jTIHQahE6D8Iwz0M7C3GkQnp8G4dFHH8Otd34fU/UEEqm03BBpl8yQO6oKWnn2UVoRc8zAQu+7dX7N0QGGzqiJ0PjA0AOS/kJTEMJu9G9PRRA3QaoFQwaCHbPiethrtEYJqgMml+PIgp4G9LJnc0LYmr/bpG2wGfNYNDNpiTZKmG8eIDlmV6yBF51xFkZHRtTEPPPRzn3YaRCeu0FgA3rjje/Hph17kentlUVztVzB9MQ4BkZGMLFvN4ZGl4lnsOWR+3H+pZfhqccexcDSZagWC8j1dCOezMjHYOWGC7Dj0QcwNXEUF7/2DUrlvOvmz+HiK69AKtMFRC0D4f9v70ug5DrLK2/VW6qqN3W31IvUaknWalmSF7wFe8CHsDoQgoEQlgAmDmAbQkIWQjI5Z86czCQsgYSEATKQAHEIkAEbYwjCNkLYBsvYsrENkjftW0tqSa2tu2t7Ned+319t2V2tfo8nyWXxPZAtq7tel179y/3vd7979TNnDLeGWxE7Vqsl/Ol178SCwVNXYmBL42c++XfYtmcPHt+0DYePHyUdp/bhQYDFC+Zi1bnLcf0HPohZs9RcK85lAOE5AAjFYrEe6THtZ0TkKX7eMS/SanGv03lvvgeZEDEvUXnXncZivKZZ7i2OfA0W96n+Ckne9+m8N99fkrEi4qqJJJrpP6C496bCfPWda3HnA78AWrqk3ZDpiwFTAH12J5AFyCLDmFrJOFArZJ68RSToAn5Uj+AEiAQI9WAlvlXHHPA9aWualhf4PSJmdMZIE22KJ7Qr8rVsR6MZktMkqve+Sg1lE+Bnyj9hW2W9u17LDtrdQIMk/b12TOb8DBZ0d+C8pctPmp2QZKzY/Jk8JhvNn82bNuGd770RuRndyLWwhJWDFwZScqqWyygUWuT0v3PzExjevVPA3wVXvhjbH3kEPttp22dgw713Y9Wll2Fo1y4Bgpe96jWS/3HH12/CC654ITpm9kpGBMeGuirTWTGDUqUim3a2VsWf/v61WLhgwZQTKe784Q04Nw8eOIBPffwj2LF3L57auh3HR8edkVIG7W2tWLpwPi6/+BJcd/37Es3707lHnM57P5/3H0tzbDAtnguV/FSzMwk9bgj7l0fYdLr74le+iZ3jkKAdag3YpUDmgDoDbqlqfFQXFFJgSICgLYWiLxAmQYWGFB2yFdGvR/Y6S2SN5VWPQ+lacGJG/oHEP8siTktlGt24eGOWAByMr9Z9/8kIOBMbjeJVJyV2SNAhsVyuSuul/CyCCAd4Xf6OlDxmFkKsWrgQLYVnlhMaPcUk49Dmz+QnOFXY2Yf+/C/xyOZtyM/oRBC2SPBTPvCRDTIIJKGSOheOM5dXEEUi9mMqZaGtBTs3bcKOxx5DNargwpe8HG1dncj5AdZ95xacs3wx+ucuALI57XBxHTT1CGYCTb9WwV9e/24sXbxoSoCQhD2iSn73zh34p3/4JLbu2oWtO3ZibKwkrAW1OP29s7B43ly8+tWvwTW//TuJtC3GkDb+iJLMzTg+Lyf+FAMIBhCmP4I7BoYLf9wryaDlPZMsQqeawt68eTM+/83vo5xrRYGaAp/MAZXlTFRUgCAULQGA9J8r4yEuhG5jl2AlaVt0X6tFyGaoVXg6oIkneGINcbOrBzcy0jlDDYP+OdsTJd2ubo4jrIP+Q6N91SKZdr58L9RDCGPhgANDfaQxgfet0Fa3gkIuJx8bSV7+/BBVXLx0Cbo6OmIzZUk+TwMI8QHCQ+sfxJ/+1f9Ea+9s5AttyFAI6/vwAzJVBJkeQjJMVJO4bAZN66yhKowh8ziy8Gt0U+T4y0jGx8/X3Y3WtjwWn7cStWxOrLHrvgfUHrB0QStm8gp/8d7rsGzJ4lMGENbfdx/+/aYvYvue3di+ay+KZQZR1ZAPQswfnI3Fc+fid99xLS7+tRcmmvcGEAwgxN1/Eg0s3tQWuMmPNskzORvjntkG+P071+KuR59COWiRHIRcLpS42UwQwPMi8SiQcoAABI265Wmdp3bxvM/WtFvAaQyy0sao3Qf1ECYu7LyPxhloeaJufCROd0ziE4CgQsd6op+0JbryhJYJNFxJPRDU9IbMg9xWApTYpaDRvRMuilFNfP/5HilwWzzQj2Xz54FtaEmuJGPFAEJ8gMDP88Mf/kts2LkPhdYO+IUc/CCPTEjwx3HHiG+CRjpgurKUC+nS8eUCu2oqlBWiyMtg6MnHcHD/Llz4a1ci44WoOJDJceQxjKlaQ0SgUKviw+/5PZy3bGofhCTgnQzCN7/+daxZ+wPs2LULO/fsk+Anjtru9nYsnD8Xiwbm4oYP/jEGBuclWscNIBhAiL1mJRm0BhDSD6yzDSDs378f3/qvO7Bx35i0mAUMSZowPlJ/+4BGdELf62Zct7MVuQHjcAkWRKRYt7pVqp+dAzz5aZ3fRSfX43snOhg0jpngQfwQ+BoXiKRqBMoVXHqiq+2SHaDuQdgL17iIjAvNca6HmrioPgk8tTFSN/CArkIOF557LnqdKMzmz+Q58VyV6O5btw5/9b8+hraefuRaW5EN8+rM6fkqOCVD4EChNLxmyR4I1NT8DaeBoR6Go4nC2eMHh7HxgXtx+cteiWzW1xJTLdLXVRnWRICgHS4fevc7seLcqf0IkoyVXC6Hz3zqk9iw4TFs2bELu4f2okzdQyaDgd5eKS8smjeIP/qL/46W1jYDCE3OYFuJock/oCQnt+dqgWsEP5K87zNZYuDpmovXv95yOzIt3QjzuuGypJDJRgj8UBZdihO94GkRYt0mmRs+AYGc6iSS10fgaRKfyMB0b3ZWuGqtXK8nSD4DF2g53rsM4Pr3y/lfuAE9BZIREN2BxvDy51YFqHjIil9/JKUJEVfROdHpH/kaihYljyFTQ0eYxTk9s3D+ylXP+JiSLPoGsE8vwGY88lvf/LsYK7ShtYMdDS3wgjxC+mk49koMtRxDIMNnQkSdRZgFynVWScCrj1qljPvXfBdXvOJqICNIV6Oe6ZFRqyJD/Uq1IimNf/bua7Fy+bmnpMTAuOd/+OjfYvfevXhy6w4MHzwA4pAg9LGI4GBgDhYvXIgb/uTPJc45yTg0BiH9ODQNwhTDPMmGZRRpfIp0qlUlyfM+UwCB4qz/vPk2PLhtPzIh2xdDZNidQLqeTIBkIai2gJ0L2brfgYAC1QBoeUG7FiR+mac22iM7IKDiQ2dkJK1lLnTZeRwIeNAMZ3VAdA8ww8AcpxPQVL8aKlxZ60JG+d56u6Ks7triyJ8hnQwqblTWIkIhyKK3tQUvWLkKLc7s6MTPKsnCbAAh/cI8HQO3/v4H8Of/++Nom9mDljZ2L+QEtLLFliyWGHCQqeIvZBGIcwWZKrXmrgpA1fJVjS6JWQ8Prb0Tq158lZYeJArchUJR3+LaYgka/vj33o7zVyw/JQDhiY0b8dWbvoSh4X14cvM2DB88LOWu7s4OLJw/iAWze7F86Xl41/s+IBqaJOPQAEL6cWgAwQDClBP92V9IsolPt8ClufeZAAjbt2/Ht1avxfajFfj5vCYu0v1QHBCzqHk+Qqq8XTlBQ40cIBC2QL8mmMCBAwIFMUeSHCZu1M4ZkYDCAQFN0NP2SLYp1t0W6+GJnrgeql8id3mWHBjypCICaV502gctOcgp0LEEDi44pkEphNADZuYCLD9nIeYOTG1+k2RhNoCQfmGebv5QTPqu696DA5Us2jrakc+1IBNQMKvsVpV2zII+FQSGruWVnQnSWcNxI0yBIE8BsRgdwWipLGzC8cMj6Jk7F9l8K3ikJ3NQZiZItaoAYeV5pwQgrPn+93DPXWuwdfsubNqxCwcPH5Ews4H+PiwcnIPB2X244ooX4Tfe8Cb5eUnGoQGE9OPQAIIBBAMIJzwBOritWXsXbv3hOlQKM+DTrz7IaglBSgvSA6B+Bg4QkMp9GjwowyCnNwEKHrxMBD9DzYDAABe6lEUgnQwEFtzbXWKeHOnUVlnrC+phICZIdELkfepBSQIM1FaZkZAKLJzocCJgiQFN2vMo4KFGgKHhT+1hBgtm9eD8FdMH4CRZmA0gpF+YpwMI/Am33nILPv3lr6F1Zi9aCi3wczkpVXGDZfCSali1TCX5HhxDYqjFMDCORdXL1DUJB3dsRtXzxOzr8fUPYHDhORhYslReVylXBYgGUQ1/eO1bccHKFacEIHz9376Exx7bIP4Hm7bvwJFjx1HI5TF/oB8L5w5gTl8v3viWt2HFRRcbQJjiiTcTg20ahAYfUjN9QElO+aZBeOaHWS6X8anPfAFPDB9DtqUVoRdK6cBn+YAeAcy3o/agTt9zAa6zBq72y+4C/hk1BtJGlskgzEY4dvQoDhwdl26GsCWHQi5EWyEvAESMZYQtUEdCyVaqq8jF1MhpERztK3ChWpXNnswFtQVSvhCvA7ZB8tCnwIH3qiikEM8lwovAy6ATFbziJb+uro0xLgMIkx/Scz1/CCLedd31OFjNoK19hqQ6KougIkMtf7GNMQuf7Y30zXAlLwGgWapcMsIuRJ6HXVueRFDIo6ePSY5ZVCV+XMdkpVhFlIkQIMIfvP3NuGjVMzUqJz6duGOFepjP/f3HsWXrDuwYGsLmHWqS1NXZifmDA5jf1485/T143598CDO6ug0gGEA4HGOp0m85McwkzoviDtr6vZJstAYQJn8CcU5AJ74qyfPm65J8nnF8EDZufAw33bIa+8tMj8uLxasAA5YQfN1EuRnX/QfIGlCDwPWTLoSStSAsP8sFamhEYaAowasVHDk+jlzOR1s+jyDMqamRM0OSaGd6IDi7Q+dhpCFLVA649ETZ4MW0gBbJjlpwfYsTugICBNe+qKBA+hiF8chTRDl+DOcvXYbZvX3gc4l7JXnexiCcGQaBP+Wr//E1/Ov/uxXts3rh5/LwA8aKh6QM1JvDpW8J+BSTrUjGAn8v45QAlk6M8HH4wBCG9w5h8coVqIm/Rga1KCOdDF6lLOOYfhsfeMebcfEFF6RmEA4eGMaXPvdp7Brah+2792Drzl0olSsYmN2PBYMD6OvuxuJFC3HDB/9sQmSZZBxaiSH9OLQSwxTDPMmGZQDh+QsQxkZH8b0frMXa9Y+j7Ofh5QLkubCKqRBdjJzI0FPXQnoeSKuYi2nmwsv1VoWLzFVwNsYiN+BrlM4PeYQT++6MAA7RFohXQlaskKOoHszkjI/YfiY2hhKfpKmLYluuQkcpF7jOBv6xNjLQTVF9EoRG1tYEeFEFQa2Kud3dWLJosVDQBrDTL57PNYPAv8HRw0fwnhveh2N+i7Q8+mEOnhdIHDRZL4oPJ9oaldLSnA8XBkami0CV7EJ19DgefWAdLn3xS2TcEByIJkZELBFK5RKqlXF88O1vwyUvuCg1QHj4/p/iO7fegn0HD2Bo7z5s2r5TzMLmDs7GsvmD6GyfgUsvvxzXvOVtEz/LAMLkx95M+0+mlsDUvhkm0C/DCJyOE+ovQ8HxNTQSIRKOe9kEijeBOIwPHDiAf/naN7GnFKKQbxVPeuoN6pbDFAuIQ51jByTSSMSIzgxJhIXqaijdCtz4+W85tdXEspiv5X8SQIReDWEYyBuUmm6NvyL4XiCMQpkgQXwQ1AXPc+UCcTegQIxtkvRAENpXAUuN/smKH7RVkeyBa3Wg1XMhqmBwZhcucTXc+tN5vjE8Nn+mXgFu+cY38fHP/SvyXTORKxTg+TlkaP1Nbw3qDzyWHNSMi4ABWSLKDCKPOhgyXgS5WVSiKu5dsxovetkrpfxAnw2P5YcqMznK4HpeLo7jxt+5BheepMQQ93D1jX//Mu5ftw77DuyXmOcde/ahtbUV8wb6MdjXh75ZM/HSV12NVRdfNvGXj3tvvsD2n8ZjJskekXT/MYDQ4JnHobBtgTs5xEkyaHmnJAtFI4R9773r8J0fP4hajrXbnKq/Wb9lx4F0ianSWw9c2iHADVf/7cyHXCSuOtTRxU5LDBSESWcileMqaXTth9pHQCOiMBeKrXGpWBIrZG7uokfIeiiz9kuQIDbIqjMQpbnrhqhjdNEWsIrB/4ntsgMlXha1agkd2Rpe+t9eLCDz2ZcBhPSLZ7NQ2Aw7euWrX4vWvkGEZBFyLSKmFaaKYJYZDZqdjFA6cdSF08ltlS0jkM0C69fciYuuugpZLxRNDI8mRbbQRhWUxosolYq48Xd+66Qlhjhzk+PvC//wMWzetBm79w1LkuPQ8EHMnNmN+f39mNPbh+6uDrzpHe9C3wkRz3HuXf9kDSCkH+MGEKbYt5JsWAYQJj/EZqWwjx07ipu/ewc27DwAr9CCkDa1fiB12EzAEzg3em7GaoHMkz/pV2lbdOmM0s3ATAOJZnbuiMr3K0hw4kB634toURgFda2TezBcKRuJcIx1YgYljZW0xsv7BSIy80VwyB8isc9qiaTmSEodTLgqutg9ec+52nH0tYU4Z8EqDMyZMyUqM4CQfvFsFoAgYr9Pfxo33boahe4eBLkWAaBsxRUbcOJLAoUJa2V1+WQGw0S5QcSLPjY+cD8WrlguTIS0zRITR0C5VMbY+BjGi+P4gze/Hpe84MIpx1acTbxULOJTH/lrDA0NYe/+YWzZuQsjx46jv2cmBvtno7+3B3P6Z+Ot775e9EC/DBNsACH9GDeAYAAhbvUikTCw2QACOxSe3LQZX/vO7TieaUE+34ogJBgIJZZZwu/4y+kCsrSWrUWi+K+LuoQp8CCq8FCEhhp2I6ZIQhKwG0GBgu9ClbT5UAFG/ZIuCMobxLqIFLCCgLFSRWjRaqWMzq4u8Eg3Xi5PsBAiPnTCQx4I9VSo3QnZWgX5WhVXrhhA3+DUCnMrMZw6JqtZAAL/Rvv37cPbrn03xnItaC20wwtz0tUgjorswBGRonbVSFCTz5ZX1/fIwCbRLfrYvXkLZnR3obNrhogTRd1SjVAuljA6Pg66OL7/Ldfg8otfkAogjB4/jk/8zV9jaM8eHBoZwZ59QyhWKuidORP9Pb2Y1T0LF11yKV726tc84+fEAR/GIJy6MW4AwQDCWQ8QRkYO479uvwN3PrxVKNgcOxQ8Hz5dESnmklptpGUFbuhOQMgTf8AaP0/9bG+kcDDjiee9Ruq6ECQBBxquVM9f4FYuAUnu6VIwJppDl5sgzIPzuq+USwjoleB5KIk2AciFAdrb23Ho6DEFHtKdoH4IjHKmsJErPIWMYVTGvFlduOzSp2u1032oxiCkP101E0Ag4/mpT/w9Vq9bj0JnD/L5ggSIEQRLh424dKrnBs2+GL2l3ghqx50P2K2QwfiRIygeP46eOQMyDum/WGLKZ6mM0ngZ48Ux3PjWa3DFpZekAggjhw7iUx/9GwwN7cX+kYPYtXcvgmyA2b0zJeK5q3smXvNbb8SS5c80ZDKAMPmxNxODbRqEBtOimT6gJKWRZlvgptvUTvx63IVi39AQPvfv38TOoyUE+YK0gTGFkayAhisFTnegtVme5IVF4NKZYQIjOwO0m4GnMRURqt5AFlsXriTZC8LkqihRYpjVvkA6HsjySmyzC8HRkoFaJNcDk3jSo0AyzPgoVyso5AOMjRZREXCg9yVeERDD5T4qor81j6WLl4o9ctxnwudoAOHsAwjD+/bh9254PzIdvSi0tCFLgBA4MOt8PGRQqkWH886geJa6Go5TH1GljF1PPY5FK1dJQFM2ijBeqgqTVSqOozI2hve//Q244rJLUwGEPTu34Z8/+THsPjCC/cPDODI6KqZifTO7Mad3Fjo7Z+Dtv3/jhP+BlRimXh2baf8xgGAAIdY+/lyXGCgAXHvPvbj1B+tQCVvghwHCwFMvAy6W1BBwQ67rC1wcMtsURYkgbWAsH8hK6n6v3vVqjvR0lK6WD9TS1ne/54bubA1UdyBJjGQNXDui+7ds9mKU5Oq90hbpy/35PtmlMDZWFPaAokXWg7NRGd35AIsG56Gnp2fi8zCAMHloJqVIn+8A+5/+8Z+wet2DaOnogh8WZNxLiQFkvjyo1bKWu8ggiMmWlMmUSSBP9osHfowLXngFKuUaoqgsDMJYsYJysYjy2Cje/7bX48VXvDAVQNiy8WHcetOnsWnXUewaPoSxUknKdj1dM9DV1YVZPT34/Rv/EP4J+gP+wCRj3DQI6UFw0vljAMEAQtMDBHYt/MfNt2H9U7vh5duRy2lbIjsEsgE7FX34tDh2iyXpVzU6cqLCOpPgugY0b0FbxmiOJBu/c1Ospy+KDqAuMxBDGpez4EoWLAeI4kAIAzU/EuGjlHkVXNQk5paVg7p4TEOgKpVIXe3IKmQinNPXj8F5809I6NOPJMniaQxC+sWzGRm4zU89hRv+6ENo65sLr6UVgU8/BDJh2qnAMoIkifoimVV9i+t2kHbebBY/+9EaXHrVi1GuAtVyDcVKCdH4GMrlEkpjY7jhLa/HS656USqAsHH9PXjw9i9jx74RbB86gpHRKmrZEG2d3ZjZ1YUrrrwKV73s5ZN+RpIxbgAh/Rg3gDDFME9ykmgmiifJ+27GBS4W+jjJZsia5kc/8yUc81vRWlB9gTgeimbARxjSsZAsqy/94D7dBcVYlotjJECCscfazVBzgEAdFYWWlW4E+tdH0kMum7uwEM6LwLkki3DcpTSLzsu50rFGQDaAYCXDNki6HLFu4E5zfDeM1+V/C3igNwIJhvHjmD9rFs4997xJwOCXoV8NIKRfPJtx/rCj4WMf+Sh+suEp+K0dCIMCsgFbeF3uhwhiWU4QFCxggTkhYgrGXIash0fv/hEuuOwSlDMhqrUIlXH1PyiVi6iMjeO9b3otXv6yl6YCCPetXY2dD9yMY8f24uDRcRzGYbf+AAAgAElEQVQbrWK8mkPZ60ZrRw/e8Z73oXvWLAMIMRbEZtp/jEEwBiHGkD3zVtjc8L79vTvxgwc2ouqHYi7FExOFiLSe5SlJ05YVLMg2L22L7kTl4pU1rZFdBto3ro6HdTZAT/1UhIu7Afn+OkBwgUqqXtBmBjIBNYINZ5EsrIGLe1ZnI1EWaEaCa2UUWYKADQokaXE7jtkzOrB44SIxkTnZleR0ZQDh7AQI/Fv94hc/x4f/x0cQdHYjpCdCqOO/PvZFE+N8D9j6yF/yZ77afY8e3C8OoMwLGS9VUMsEoj+gB0JlvIjr3nA1Xn311akAwh3f+RaeuP82zG4/iqg6jrHxCJXIw3i1CyjMxptv/DMB98++koxxYxDSj3FjEIxBiLXh85uSsBNnUoOwe/cefOXbd+KxPYcQ5ArIMX2RnVwMWiKdyq4DF7qkpkYEAVoToOAwpLWy9IlTD+BqtBKkqEFJ9QjmemlBywqqJ2BNl6d+sTauOxq6koESAOJkJNStdDrwnjRGUvMCER5qsyPJXmUXpGJcLaOnkMM5cwcwq6c31meUZPE0gJB+8WxGBoF/K/rnv+u6GzDq5xHS64PunWGIkL4bXoBaNhBwTP1BSHdOltZYgnN6hEytjN3bt6F0/Bg2/fxhXPTS16BYLqNaogZhHO+65pV43Wt/MxVA+N6t38DD996OWbnjaAlL5M1UDJxtR9i5GL/+5hsbMmVJxrgBhPRjPDFAqFQqurLFuCgUY/953KuR49tUr42iSHpy415J7l2fZHHvncvlHPUc7xWcwHEvDQ3y4367LA5xL973RBOS6V6X5N6k4vlc4l5J7s178vMslkr4yU8fwtfvXAcvX5D0RS/gSQkiQCRIoN5AWAEJT+ICqWmJmqBYd5tTkZa4JErLIk2IXFeCdDWc6GGg5kkSlkSnQyf4IpggRBBiwJnLiOpABI2qSRBuQfIUGP3Ml/MfjmUQfQIBSYT2TBWrli3D7NlzbP40GEBJxsqv6vz54Q/W4G//zxeQm9GFnAsfk1wvz5duBZa4WHqjWVJExy4JbRJhAkql49i7eydmzp6Dg7v3oLWjEyUaeZUrqJXH8Y7X/wbeeM3rppzacdbaNd/5Bu750Z3S3pv3q/CyJfn5rYU2DJ57GS57xRsaAoQ4966/Mdt/Gn9Ep3P+WNxzg2feTGEZvyoIe/PmzfiXm1dj7/EIuZDaAmoHeEqn1sCDH2aRCz2EWR8jhw/hyOEj2L9/GF0zWnHOOfPR0tYuITX11kUxOxL/eXVRFKbBnfw1S4HGMtpqKJcrO9SDkdShwBkV1NQDgSBC45VcyFL1aeZA1IgSqqSiBT9bQ1A8jpWLl6C/f7aAimY9ocYBfUnGoc2fyU80LcPD7I53XHsddh4ZRVBog+/nJFeE7opis8zWRoIEOoV62s1DJqwsYxfY/dRGdPX3I6oCUbmC8WIRlWpZ0hz/6Nq34g2v+60ph0EcpvFnd38PD9+3FuOlGkoVgdbCoQX5Vrz8tW/EhZdf2fD+ce5df6HNn8YfUZK5aWmOUwzzJA/RFrhTv8BNtfrwVPDDu3+Cb929HqVMgHwYChAgbcA2LjID+w8cwN4dO3B05BDmDM7DoUMjKI8dRldXJy648EIU2lpl8+YiKbHMojXQUCZNT1YDg7owUTwHmHinRQREEsjkwIBoDdhl4ACCS8sTQCF7vyQlIIoIMKoSxSzyQ8cc+LUIXnkUiwcHMTgwIKc9W+BODkGSzM2kC1ySezc7hf3Qgw/is5//ErYODcPPFxDQfpniWD8Uw6+IOl2OUYkxV0uvMstfUQ01JjdGjCqPUC2VUSmVUKF4thrhwze8E1e/4mWpAMKGn67Bk+vXoFSuYbxcQQVZCZeKMq14640fxMyePgMIcZA4gGbaf4xBMAYh1rBNewJq9EP2DR/A12+7E49u3guvQHBAvwD1M2AZgeDg7jV34+jwEC66/BLM6utHX18PNm/Zhd3btuDgvt2Y1V3AS171G+KrzEWx7jIn7IOLvZ0wP9KtXC5ZPyMNtBECwUUqg5t+RO0A7Wp9ZQ2ke8HZIBMeEAwQGAiD4AyT6NJYLaG/rRXLz10mznfPvuwEdOZPQGcTQODTI4jZsnUrhob2YXRsDJVyRXI/hg+qe+FTT2xAplpFptAhDFopygpLEFVKkg3CsU02IgxyyOdzmNnRgQ9c/y4sXbI4FUB46pF12Hjvd8VOvFKpIhKNTg39C1biVW9+T6p7G8B+7gC2AQQDCGccIFDR/4uNT+Cz/7kaRS9Ea56Z9xG8DMVWLtKW3vJeFo8/sRW7n3wM8xYP4vDBQ5jT040Fy5fjS5/7Iipjx9HXNwvXXv9u1Fy3goTZSIuhy1SQ7oQTXQ+f/utSu1AVh2OyCeReq8IEkNXItRQkTVGyFclGuBjmiiQsar4SrZXJH9C+ua1WwsUXXoSW1rYpn6cBBAMIsSZbQg8M3rNO1e94fAN+9LV/Q/vSFaiFeQRBDoWWAlpbW9Da0iZ2372z+9HZ2dkQxDZ6f3HKAEdGDuL+O/4TY0cOihkTpxPB/ive9n70zJlnAGHGjLgfvTEIjZ7UmVTJT/dJNRPFczaegL713dtx1yNbkAlD8ZbnDs4OBbZBESDURYfsZihWiqgU6crmo6t9ppxOsmEGmSrEvrWvr1PLCML/O8dEMgUEDBqrpPIAJz6sxyi7rX9CNxBVVWzI5EXtaKgJu8DmCDIG/Krchz4GAhay8GpltERlXLhyJTo6ZkwrbDWAYABhurWn/vUk8/5EgMDf1+PDZci6cX/izz1dffbVSgXV8jiOjxzA+Phx9M89B52z+k/6V44DPoxBMAZB6GQO3LhXkoHFeyaZcAYQJn8Kp6LEsGnLNnzte2uwff8xoTfZqijtWBO/tDuBaYw0eakUy6K2rtGKuGsGcoW8dDTQ413kBXX3Q+dfIA6JAhQoTCRA0FZFl7rkIhJcBgJtjskOuNAkOimoPwJf7loWCRKkW4FhSpqxwK8xUKklE2HF4kXo7urWDooYlwEEAwgxhol8S5L16tkAYbqfcboAAn9u0ja6JOu4zZ8zP3+sxNDgmRtAOLUAgXXTu9atx61rfyqmR77PVs8sfJq9SNsiT/xkDthCqNkIrP0zNpmbPU/1BAPKELBDQDdx9llLgp3iCccWOIvleoqjuBxlxayIHYkiXKRoS8oHaoxEKlQki67VUVsc1eyIIq6MKzUQKISZKgY7O3HJxZcIMLAFbvJYsflzaufPdBu+AYTGTyjJ3LQDauNnaADBAEKc9eeXTguU2NovfBU7j1XERyHrZyQGmSCBYkTm1sPz1akwW3OZCgQPFCwqWyDmyQ44EBDQ/IgkP1saucmLo5xzLqTDhGzsEmeTcS6G+lcULYJYF6i40Gf8Y1SDJ2CCQbiaiieKBCEMXJhSpga/VkZvIYcrX3iltCvWrySLkJ2AzvwJKMlJvNm7GE42UZOMQ2MQJj9JAwgGEGJthPwmOwGdmhPQD++5D7fd8yDGyuyH9oURoP2rT8aAmzpLDHW2QMoG+t/CHNA+WezkSf6rIpqvq9sWcEMX90TaF8s9qDOowWcLotMeCFAQlyNlGYpj46IpCNgt4QdqtFRjroJ4I0+4J/KeLCkwCTJbLmHOjHZcsGKFCLueXdNNsjAbQDCAEHcRSgJsjEEwBiHuuEraJmwMgjEIscZWEg0CfQpW3/NTPLx5L+CF0r7oBVoekFhm+g7QJdGLBAywVEBRIX8vGgTJuFfHw4nsBBeuxPhlnuwngpMcM0C2gFkKLD2ouoDsAksJWYlVZsQt+8ADZjiAm39GwIr6ISrQkFeKc1INXrWEvvYWLF+0GHPmzJnyGRlAsBJDnAmUZP7wfgYQJj9VA9hnHmAbQDCAEGd9i1ViIHW/8clN+OrqezCWDZALcwgDH4GkLzpLY4859qoxkDhm6hDk3yw30BkuC5+buy/xSepb4ESJBADirHiCL4FqEwCPugJu8GqXiEheXUO5VEElipAhGJCkRRfLWANCZ0kr5QcHFPxMDR0ecP7iJZg3f/60z8YAggGEaQcJRa7VqjCTcS8DCAYQTsdYScwgRFHdMm76t8MchvHx8em/0X0He27jXpxAo6Ojcb9dOh4atfA0ugFPnEkmZ0tLS2xlOn/e0aNHY7/vfJ69yUHs709yb96X9497Jbk3a3R8LlNdtG79v1+5Gb/YeQDZIIdcGMIPxBBRfOKDQEsI9DYQ1kDimJ0egSUCsYplJwFjmQkCyAYQJ3DT94U14L0kbVGEh9QN8LDvwpdcxLJEJbFiUI1QqlYlzEZUBZmauCNOdDbAk+ClPIFJrShfq5TLuHz5uejv65+2ZbH+HJKMcZs/jUdPknF4ts6fZz+ZJM+Er00yDrnOcr2NeyW5N/eHJHk9Se5t8+fMzx+Le27wzE3EM/mhnEzEs279w/j6HffiaDkjOQq5wJdYZnVDZGnBU5tjJjK6MgK1BdQUkOrn16QTQTQIrsTATPsTopn14O80CPJvF3wgmcvauUC8EFWrKFer6oHA+5I0cNHN0owgxkcavdweerhgySLM6e3BoZERPPyzn2HdXffgvOXLcPXrrom1fiY56ZkIrvEjTcLCWBtd42eYZByaxmryMzSGp/G4MoBgACHWRtgIIIyMHMbNt9+Du36+FYV8AD8IJD+BzQGSVy9CQwUHTF0UwOCCZeh1IIyCJDG6MkG9lVEinNVXXnyO+B/EAfIfao/srApUtMgWRmoMCAzoWyAe8K4lgSZHYmwktIO4IHYVfCyZOwfLFy+exBRx8RwbHUUYM7kyycJsAMEAQqzJljCKnfdMMg4NIBhAiDsODSAYQIg1Vk4ECNQabN62A5+46dsoZXzkGRYTZBEG6oZIfwP+qosMqS8gM0BWoR6tLF+bSF90vgY88UuwEssNLBXw+4EKQYSLXdZ2BS0xqHcRSwMlTVBksp36GdXDmqFcgkoWC14GKwYHsPLcZVOWkJLW6JIszAYQDCDEmmwGEBo+Jps/Z37+GEAwgBBrzaoDhGKxiP+4ZTXue3wnqoGPMPAQkjVgWUEMj7QTIZulZsCTTgECAUlmpG5ARIpkDlxZwXkYiHmilAqoQdDTvpoh1ZGB8zAQJkGNkiuso4q7Ie2alW6oqPeRdC7UalUBJAUvi1XzB7Bs0ULkp2EGDCCkX4SsRJesRNfoiScpuxiDkL7sYiUGKzHE2gj5TbbATX5U3PS3bN+Fr91xL4aPFJEL1eiIXQjCFojI0AUkye/rZQb9vaQtivhQRYuStlgvH2hXoxgbcUOvawZEU6DVBxEXEgxIYgI93yOKF7UToiohCcoa8P9SUKAAMVPD4v5enH/uUnTEtPE2gGAAIe5CkWQTNyOe9Ju4MQjp52ZSDY8xCMYgTLseHjt+HD+49yH86NEtEhPL4CTPVwvkTJAV98Oal0HIdkURJaqNMrUDYmJEMWLG098TCPD7ySqIyMCFIjH8iGBANIcuYEmJhImLAsRKtSLgQlsYpGdBwcEEs6BgYm5XB1YtnC+dF0nKAAYQ0i9CBrCNQZh2UXHfkGRuGkBIPzcNIEwxMpOgfVvgnn6IO3buxhe/vRZHqxmEuVDKCFIuEFfEetCSdgxoSYEWyMooSJsiQYKAAz3ts4NALJQJJpz/gIgQ1Z9IlYmRlhvqTIIfAeOVMqq0R6Axci0S90PqEhi/zEAlXrzfrHyAy1YsQ1tr68RfIskiZAAh/SJk88cAggGEZz6B5+v+YwyCMQgN5zJ9Db595z1Yv3mv5CbQx4AtisxRYNeBaAukjVEZgmxGtQY+uxR8oQnodaSdCqIzUGtkjUlQV0UhEERroP+eyF5WgwMBCJVSCVFEo6WslBvEHzGiFTKtkBRTsFZRKRZx2cJ5WLxg3iR/DAMIkz/iJM+Er36+LnBJ3rc59aUvAxjAPrsAtgEEAwiTnsCOXUO49Uf3Y9uBI8jnmLzIkoITF2Z9bWMUcEAtAdkClhK0gyEUMyRtTRSRofM5EF8CF6UsoKFeO5B8Zte2SDbAGSFF1QpKkYoMlXlQYMBaAr+HWQnUNtA85eDwfsxpyeP1r7664exMshnaAnd2LXAGECZ/ntbmOPmZmEix8bw3gGAAYeIJsMb3kwcfxer7HhNr4nyeIMBHNghUdMhSAYWJBAQCDrRjQWKbCRBYfpA/U0JA0pPl1J8V/wEBDdzjpVthovFAv8mxAWyhjMpl+R69EW8iMkRtX3SmSFG1jIP79mL7tq3IIcL73/kOzOrpMYAQk9tNApqMQUgPmkykmJ6dMA1C+nFoGoQpFsgkJ4lfxRrq/uGD+Pw3VuNAGciHHgqhL5bQbEvU5EUgkC4Epful1CDWyNq9wHwFUv10PyQpELHsUI9c5p9JO6IGLYnGUEyPXFUhQ6/6COVSWZ0WPdogkyXgjXhbkSIKQqDh0sjQEB599FFUKuPIF3J4y2t+ExdecMGUW2OSzdAYhPSL0K/i/JkOlxlAMIAw3Ripf72Z5o+FNTX41H6VKDie2G+5fS3uefhJlCIPYc5DjnqDwHUh1H0NqCmQnASNZA5YR5DNnN0IND1S4aGIDxUBSKeB2BTV2QIRDNTzkqQpEfz546UymAgSUtdQZxjUFxlVggrUENaAgfYCls6fh97eHgEa9GQol0vo6ek9aXZCEnCYFGEnubfVuNNvEgbgDMDF3WiTzE0DcFOUGEZGRtyyPf1jtwXu7FngWHPbtnsvbltzH4aOlZDLeQgDehvoBu8xXImAQMoJBAdsZ9RsBVoZ+z43egUG2qWgAKGepyAditQNuPwDygec2kDjmKMKKuWKgoessgW1qn4XjZIkhwFAgAj9MzrEGnlmd7d8AM2EsJMsQjZ/zp75w79JEmbKatzpgY3NnzM/f4xB+BVkEMbGx3Hz9+/CIzsOIC+pi+xKUKGhlBFofCQxzMoQSPuix68pWKAOgCwC2wpZfpC4ZeY5g+6J7FZgXkJWvh6hJoJChxPkaReLFdDeKOv56mNA0yPHLbBtsVypIJ/NoL8tjxecu3RSUp0BhMmD1k5A6RdPq3Gn38SNgUs/DpuJwTaA8KsEEGo1/HzDY7jlxz/DaNVDkNMY5lB8CwgSWD7wZYOnkCAQQWI9YVGFiXrCpxBR2wz5dQlBkuRFBQUiQjihbVE0iPQsKJdRqlBn4KsegZZGdEcU52TGz9bgo4ZZhRwuWLYEM9rbG5YODCAYQJie79TvSHLKN4BgACHuuErCHCYdhwYQGnwKdgJKjzxPtsCNHD6C7679KTbsGIKXz0vrYihWyf7Tbod14SEYfKSpiGKL7NgDbvyqM9CsBfoasEOhrjfkn5NZ0KSEmlgn8/fVsjogajkhKwJEggLpbEAGESIEtQpmd7ZjyeAAZnV3T/IyOPHpGEAwgBB3ITeAMPlJ2fyx+RN3/hiDcJYzCDyhb9q6E7f88Kc4XKzCywXI+1o6YLcA/Q1YJmBpgJs7uxPE4IhaA+lMICvgjI0kbVHdEX1hAJzQQFsM5D6iHHC5CNUoQrVacWyCig3rVyXS6GW2T/a3F7BkoB99vb2xxq0tcLbAxRooxiA0fEw2f2z+xJ0/BhDOYoBARuHbt6/FA1sOwA9zKOQCZL0IPsWIJyYvugwFsUWm74E76cuG74KU6uLDiQqC6A+UTdD0ZVIC/L/WE44dH5OSBNsW+fVyVG9VVPEiv787H+CKC1ahv6/PnPoajMMkNKYxcKeXgWt09yTshIkU05cvTKSYfown7QIygHCWAoSNT2zCbT9+GEeLZfhBiIAiRLFM1k09w/JChh4GdZ1B3RGRG71+jSUGdT+kCNH9mSMNtKwgyUrSqUCygSqCarksrYtEGTWCAmeCxJICf3mI0BF4uOLCVZjd1yulDl5JNkM7AdkJKO4JKMkmbhqE9Ju4iRTTb+KmQWjwDO0ElH5gcYHbNzyM79/zIB7atAtZAQS0Sc4iELdDDVNSW2QFBmxlnGATMlkEzr9A8xNYhnAeBy50mUBAWxg1Wll0BZF2HkT0QpZWxwyiqCa/5H+1SMSLXYUczjtnHpYsWACeBk68DCBM/vyTPBObP6dm/vCEFfdKAj6MQUgPPoxBSD/GjUGYYnYnmczNhODivm8uQBue2Iwv3fpDFOHDD7MIJC8hi0zgI5xwP+Qx3hPTI1okSxnBtS1q+qIzPBKPA6croBESfQokQyFC5BwRJU0xqqJcZgSzdjFQ8yASxYgtjiwr1DAjF+LcubOxYtkycWdsdCXZDI1BMAbhdGzixiCk38SNQUi/iTfT/mMlhrOkxPDPX7kFj2wfRkCLZJ76fQIAxxJ47FSgU2EgIkKWF8QVka2NGXVMFN2Bi2cGo5QlJEkBgqMMnMhQbZOZpkhrZF58PcEDfY6ydD6IIrlfkKnh4iULBRiQtTjZZQDBGIQ4m37SE1BcgM2fbQDBAEKcMZi0JMrvTzIOmwoglEql2E6KrC3zpBr3muq02Oj1PHlWKlS8x7uS3Jt3ZOpf3It1cZ6q415J7i0hR9Nslif+3JPdm8/s0Y1P4js/fhhHxisIQk+8C4QZkJ+jLYrUGTBLgSWGkN4DgboiEjWIvsCVBer5SJK2KO2MdW9kZ2RA46NahGK57JyUFVWwjBBVyS5URXxY8LNYOtCPRXMH0NraGusxJvk8OU6UqYh3Jbk3x7doKGJeSe5t86fxQ32u5s+z342W3cTJI9aV5H1zPtX1NnFunuTevF+ScWjzZ/InYPtP41FpaY4NnsvzgcI+fOQo7vjxQ3ho8x54OR/5gJ4GBAS0S9aWRXVC5KL3tO5ASgp10MC/uwgVlQXgZk/cICFLLClIMIKGJFWhOgOyA1pqcCJFSVuMUKkBBQ84j6WEJYtRTQD2+Daerwg7yfu2E2rjRSgJe2QUduNnmGQcNtMJNcn7tvlz5uePAYTnGUAolcrY8ORm3PbjR1BEFjkCAwIAz5f2RYleFh8D529QZwmcTTK/JgmNBAEUE0rwkrIIkdMjSHOCMzsiYyAnDrYgEHCIfbJjFJwIkQBhfHQMr7nyMiyaP0+eaJJF3wBC+kXfRHDpF08TwaUfh1YCSj8Om+mAagDheQQQHnviKdy8dj2OVWrI5QLkQnYlBE8bHQW+eBOwpEB9AX0NpBNB/Az4b3YyUFfALkRtW2QXgmQnMEKJzAA3fReyNFosTXyvpi7VpG2RWKGWqYqu4NCBA9i7ewirFp2Dd/72NROlGQMIkweWnYDSL57GIKTfxI1BmPwMDWBbiSFO6U++p5kQHDfavUP7sPqe+/Hk0AhqYQ75gGyBdiFQcyBlBKc3ULvjrFgli5FRvdTAEoI4HVbhZ3xhHcQyWeKVtZSgToc16Upgi6KggxpEkMjuBURaguB1cHgYWzdvQbVSQndHJz543dsxu69v4hkbQDCAEHfCJRkrBhAMIMQdV0nKFwYQDCDEHVdNAxCK40XcvvZu3H7vI6jk2hCwnBCwrJATwZPEMEurYgYBOxWcOyLbDQMJOlDWgLbIEpkg4EH/LVHM1BzIt7Etkb8ilCsl1Gr6unqQkor2IuQyWRw9egSPPf64lhAyHjraC7ho+Qq8921vesbzTbLoW4kh/aJvC1x6dsJKDOnHoZUY0o/DZjqgWomhSUsMPMX/4+f/DU/sG0WYzyMb+vD9DHJifEQ5gCfthgHjmj1lEsTzQGyTqUPQSGbRGEgks6QkaHcCuYJ6GyMyojEQK2SCBTIJEs+s/yOTEGQy6AyyeOkVlyPwfWzasgWPbtiIxzZtEYDywevfgxkdHQYQpoGgVmJIv3gag5B+E7cSg5UY4p6WDSA0IUA4eOgQPv7ZL+NwuYYwH2p7lJdFvtAqbIF4F9DDgE6IGZYaaHCk7EAYsHZAd0TqDTRLgf8QUCDagQw8AQgZRFVlDHz2QEoLo3sYEbsWIni1Gjq8COcvWYw5/f2TOg3qbXuNWqyMQbASQ9xFKMlYMYBgACHuuLISw+QnlXT+GEBoMoBw7OgxfPLvPoWZR8axryPEeBBi6MAhzJ43F/m2TrYnsP9AhIXCGIj+gJoDBQjEB8xeUEEiv66sgF7aysiNvVyuIpOJhFGQBgVaHzIvATX4NaAz52Pp4BwMzJ6tYMPzpPQS90qy6FuJIf2ibyWG9OyElRjSj0MrMaQfh1ZiaPAMbYHTh3LsyBHc9I+fxXn7juDRvhz21wLsO3IYsxcug19oke6DeolAOhBqLjPB9yU3gUyCBDO5zgWKF6lJkMKCy0wgP5DJkEcgIKCNAbsTKuJ90J73sKSvFwsXzH+GoZMBhPSLp5UY0i+eSU9ASYCqAYT0Y9wAQvoxbgDBAMJJD+KVchkb7r8Pd979Q2zdtR9jmQwWrLwIXr5F9ARMRKxJG4Inm3ulQutjeiFkEAY+AnY4aC+jCBKpT6iybFApA16gHQs1cgUZaWskxdCWqeLCc+ZhYGCgodOjAYT0i6cBhPSLpwGE9OPQNAiTn6EdUBuPKysxNFmJ4cS3Uy6VsG3bNuzctRO79+3HnpGjOD42hjm9Hahk8yhFWdSyGVTZnVBjA6OHCsWGyCBHy2XPR9Znu4KWD9gOGdHHQAyOtPTQmfdw/jmD6Js1E+EUQUp8TwYQ0i/MBhAMIFiJ7plPIIlOwObPmZ8/FtbU4Jk3K8IuFovYuX07jh0fweZtOzF06DDGKlXADxFQdxCE4pIoTocZD9WapiuyjZFdDbxqlUhEjTlUsXLRAly8ckUs/3lD2Oknp1HY6UGWUdjpx2EzUdhWApr8eTbT/mMA4XkEEJ79Vik2PDC8H9u2bMa2HTtx4PARYRMyQYAMAUOooIFliLZsGcXiOI6iFbOCGl508QswMHdu3AONhHRx4Ma9kpwMeM8kC4UtcJM/BWN40oMPO6GmBx9WAko/Dg0gNHiGtsClH1g8XdUH1+joKA4eGMbe/fsxdvwYuoMKvOoRzDzvJRjo7xOdQZJN3ABC+sXTGIRTM9kKoSMAAAN8SURBVMa5kce9koxxAwjpx7gBhPRj3ACCAYS461uiTdwWOFvg4g6sJIwN75lko22mBS7J+7b5Y/PH5s8zn4CVGJ7HJYZnv3Vb4GyBswXumU/AAMLkEWElOivRxV0nDCAYQIg1VqzEkB58WIkhPf1qIsX049AAggGEWIs+O91GRkYmfPame5EtcLbATTdG6l9PcnLja5JQ3rbA2QJ3OsahMXDpwYdpENLvEc1UojOAYAxCrLXWGIT0i6cB7PSLpzEI6cehAWwD2LEWfWMQGj+mZkJwSU7idgJKv3jaCSj9Jm7zZ/IzNICdfm4awE4/N5MCbGMQjEGIBSZtgbMFLtZAYZ7IsWPimxH3SgKCky5wSe5tADv9GDeAnX4Tb6b5YwDBAEKsddwAQvrF005A6RdPAwjpx6GVGKzEEGvRZ4lhdHQ0tkiR0cD8Ffei01/cK+m9aSHMX3Gu03lv/nyaDsW9krzvpPfm9yd55knet9278Sec5HknHYen895JxmHS953k3knH+Om8t43x9GP8dK4pScehzZ/Jn2fS+WNhTQ3mhCFsQ9hxAZ9R2JOflM0fmz82f575BJ6vXVoGEAwgxJrLZoWdnh63Gnd6etxq3OnHYTPVuA1gNzfANoBgAMEAwglPwGrc6TdxYxCMQYi1qCS08DaAnX5uJgXYBhAMIMSay8YgpD+52QJ35he4JNSuiUjTj3ED2OnHeDMBbAMIBhAMIBiDMO0YSLLRNtMCl+R9G0AwgDDtRHDfkKQ0wpckGYfNNH8MIBhAiDUnjEFIv3gag5D+dJWUIk2yMBtASD/GjUFIP8YNIDR4htZnn35g2QJnC1wstJew9vt8PgEZQJg8IkykOPmZ2P7TeOUwBsEYhFh7ijEI6cGHMQjpQbAxCOnHoQEEAwixFn0aJdXiug0BsAXOFri4AyvJyY33TFLTswXOFrjTMQ6NgUsPPqzEkH6PsBKDlRjirm+JxC22wNkCF3dgJQFkVmJIv+gbA5d+btoBNf04TMrAGYNgJYZYe4otcLbAxRooAJrpBJSEyTKAnX6MG4OQfhNvpvljYU0NPk+jsI3CjrsZ2gY0+UnZ/LH5Y/PnmU8gCWPXTPPHAIIBhFhz2VS+6U8GdkK1E2qsyZZQk2MloPRz0xjSxs/QAIIBhFhrlgGE9IuQAQQDCLEmmwGEho/J5s+Znz//H7hrmYwCUF7HAAAAAElFTkSuQmCC;" vertex="1" parent="WIyWlLk6GJQsqaUBKTNV-1">
          <mxGeometry x="48.03" width="231.97" height="120" as="geometry" />
        </mxCell>
        <mxCell id="ntVtzUU6A0rQ3JmOIG8a-4" style="edgeStyle=orthogonalEdgeStyle;rounded=0;orthogonalLoop=1;jettySize=auto;html=1;" edge="1" parent="WIyWlLk6GJQsqaUBKTNV-1" source="ntVtzUU6A0rQ3JmOIG8a-3" target="WIyWlLk6GJQsqaUBKTNV-6">
          <mxGeometry relative="1" as="geometry">
            <Array as="points">
              <mxPoint x="410" y="150" />
              <mxPoint x="300" y="150" />
            </Array>
          </mxGeometry>
        </mxCell>
        <mxCell id="ntVtzUU6A0rQ3JmOIG8a-6" value="STANAG 4586" style="edgeLabel;html=1;align=center;verticalAlign=middle;resizable=0;points=[];" vertex="1" connectable="0" parent="ntVtzUU6A0rQ3JmOIG8a-4">
          <mxGeometry x="-0.3533" relative="1" as="geometry">
            <mxPoint x="-50" y="-8" as="offset" />
          </mxGeometry>
        </mxCell>
        <mxCell id="ntVtzUU6A0rQ3JmOIG8a-3" value="STANAG 4586 Simulator" style="rounded=1;whiteSpace=wrap;html=1;fontSize=12;glass=0;strokeWidth=1;shadow=0;" vertex="1" parent="WIyWlLk6GJQsqaUBKTNV-1">
          <mxGeometry x="350" y="40" width="120" height="40" as="geometry" />
        </mxCell>
        <mxCell id="ntVtzUU6A0rQ3JmOIG8a-7" value="Flight Simulator system" style="rounded=1;whiteSpace=wrap;html=1;fontSize=12;glass=0;strokeWidth=1;shadow=0;arcSize=0;" vertex="1" parent="WIyWlLk6GJQsqaUBKTNV-1">
          <mxGeometry x="360" y="440" width="120" height="50" as="geometry" />
        </mxCell>
        <mxCell id="ntVtzUU6A0rQ3JmOIG8a-8" value="X Window System" style="rounded=0;html=1;jettySize=auto;orthogonalLoop=1;fontSize=11;endArrow=block;endFill=0;endSize=8;strokeWidth=1;shadow=0;labelBackgroundColor=none;edgeStyle=orthogonalEdgeStyle;exitX=0.5;exitY=1;exitDx=0;exitDy=0;entryX=0.4;entryY=0.04;entryDx=0;entryDy=0;entryPerimeter=0;" edge="1" parent="WIyWlLk6GJQsqaUBKTNV-1" source="WIyWlLk6GJQsqaUBKTNV-10" target="ntVtzUU6A0rQ3JmOIG8a-7">
          <mxGeometry x="0.3125" y="15" relative="1" as="geometry">
            <mxPoint as="offset" />
            <mxPoint x="310" y="400" as="sourcePoint" />
            <mxPoint x="340" y="450" as="targetPoint" />
          </mxGeometry>
        </mxCell>
      </root>
    </mxGraphModel>
  </diagram>
</mxfile>
